<svg xmlns="http://www.w3.org/2000/svg" width="760" height="900" viewBox="0 0 760 900" font-family="DejaVu Sans, sans-serif"><rect width="760" height="900" fill="#ffffff"/>
<text x="380" y="20" text-anchor="middle" font-weight="600" font-size="14">Happy case — SPXW 2025-03-10 DTE 1 (monotone skew)</text>
<line x1="66" y1="254" x2="610" y2="254" stroke="#ececf0"/>
<text x="58" y="258" text-anchor="end" font-size="11" fill="#52525b">25</text>
<line x1="66" y1="199" x2="610" y2="199" stroke="#ececf0"/>
<text x="58" y="203" text-anchor="end" font-size="11" fill="#52525b">30</text>
<line x1="66" y1="144" x2="610" y2="144" stroke="#ececf0"/>
<text x="58" y="148" text-anchor="end" font-size="11" fill="#52525b">35</text>
<line x1="66" y1="89" x2="610" y2="89" stroke="#ececf0"/>
<text x="58" y="93" text-anchor="end" font-size="11" fill="#52525b">40</text>
<line x1="66" y1="34" x2="610" y2="34" stroke="#ececf0"/>
<text x="58" y="38" text-anchor="end" font-size="11" fill="#52525b">45</text>
<line x1="145.52283220045922" y1="34" x2="145.52283220045922" y2="254" stroke="#ececf0"/>
<text x="145.52283220045922" y="270" text-anchor="middle" font-size="11" fill="#52525b">-0.05</text>
<line x1="358.92307692307696" y1="34" x2="358.92307692307696" y2="254" stroke="#ececf0"/>
<text x="358.92307692307696" y="270" text-anchor="middle" font-size="11" fill="#52525b">0.00</text>
<line x1="572.3233216456947" y1="34" x2="572.3233216456947" y2="254" stroke="#ececf0"/>
<text x="572.3233216456947" y="270" text-anchor="middle" font-size="11" fill="#52525b">0.05</text>
<path d="M66.00 70.93L67.36 71.78L68.72 72.63L70.08 73.48L71.44 74.32L72.80 75.16L74.16 76.00L75.52 76.84L76.88 77.68L78.24 78.51L79.60 79.34L80.96 80.17L82.32 80.99L83.68 81.81L85.04 82.63L86.40 83.45L87.76 84.27L89.12 85.08L90.48 85.89L91.84 86.69L93.20 87.50L94.56 88.30L95.92 89.10L97.28 89.89L98.64 90.69L100.00 91.48L101.36 92.27L102.72 93.05L104.08 93.83L105.44 94.61L106.80 95.39L108.16 96.16L109.52 96.93L110.88 97.70L112.24 98.47L113.60 99.23L114.96 99.99L116.32 100.75L117.68 101.50L119.04 102.25L120.40 103.00L121.76 103.74L123.12 104.48L124.48 105.22L125.84 105.96L127.20 106.69L128.56 107.42L129.92 108.15L131.28 108.87L132.64 109.60L134.00 110.31L135.36 111.03L136.72 111.74L138.08 112.45L139.44 113.16L140.80 113.86L142.16 114.56L143.52 115.26L144.88 115.95L146.24 116.64L147.60 117.33L148.96 118.01L150.32 118.69L151.68 119.37L153.04 120.05L154.40 120.72L155.76 121.39L157.12 122.05L158.48 122.71L159.84 123.37L161.20 124.03L162.56 124.68L163.92 125.33L165.28 125.97L166.64 126.62L168.00 127.26L169.36 127.89L170.72 128.53L172.08 129.16L173.44 129.78L174.80 130.41L176.16 131.03L177.52 131.64L178.88 132.26L180.24 132.87L181.60 133.47L182.96 134.07L184.32 134.67L185.68 135.27L187.04 135.86L188.40 136.45L189.76 137.04L191.12 137.62L192.48 138.20L193.84 138.78L195.20 139.35L196.56 139.92L197.92 140.49L199.28 141.05L200.64 141.61L202.00 142.17L203.36 142.72L204.72 143.27L206.08 143.82L207.44 144.36L208.80 144.90L210.16 145.44L211.52 145.97L212.88 146.50L214.24 147.02L215.60 147.54L216.96 148.06L218.32 148.58L219.68 149.09L221.04 149.60L222.40 150.10L223.76 150.61L225.12 151.10L226.48 151.60L227.84 152.09L229.20 152.58L230.56 153.06L231.92 153.55L233.28 154.02L234.64 154.50L236.00 154.97L237.36 155.44L238.72 155.90L240.08 156.36L241.44 156.82L242.80 157.27L244.16 157.72L245.52 158.17L246.88 158.62L248.24 159.06L249.60 159.49L250.96 159.93L252.32 160.36L253.68 160.78L255.04 161.21L256.40 161.63L257.76 162.05L259.12 162.46L260.48 162.87L261.84 163.28L263.20 163.68L264.56 164.08L265.92 164.48L267.28 164.87L268.64 165.26L270.00 165.65L271.36 166.04L272.72 166.42L274.08 166.79L275.44 167.17L276.80 167.54L278.16 167.91L279.52 168.27L280.88 168.63L282.24 168.99L283.60 169.35L284.96 169.70L286.32 170.05L287.68 170.39L289.04 170.74L290.40 171.07L291.76 171.41L293.12 171.74L294.48 172.07L295.84 172.40L297.20 172.73L298.56 173.05L299.92 173.36L301.28 173.68L302.64 173.99L304.00 174.30L305.36 174.60L306.72 174.91L308.08 175.21L309.44 175.50L310.80 175.80L312.16 176.09L313.52 176.38L314.88 176.66L316.24 176.95L317.60 177.23L318.96 177.50L320.32 177.78L321.68 178.05L323.04 178.32L324.40 178.58L325.76 178.84L327.12 179.10L328.48 179.36L329.84 179.62L331.20 179.87L332.56 180.12L333.92 180.36L335.28 180.61L336.64 180.85L338.00 181.09L339.36 181.33L340.72 181.56L342.08 181.79L343.44 182.02L344.80 182.25L346.16 182.47L347.52 182.69L348.88 182.91L350.24 183.13L351.60 183.34L352.96 183.55L354.32 183.76L355.68 183.97L357.04 184.17L358.40 184.38L359.76 184.58L361.12 184.77L362.48 184.97L363.84 185.16L365.20 185.35L366.56 185.54L367.92 185.73L369.28 185.92L370.64 186.10L372.00 186.28L373.36 186.46L374.72 186.63L376.08 186.81L377.44 186.98L378.80 187.15L380.16 187.32L381.52 187.49L382.88 187.65L384.24 187.81L385.60 187.98L386.96 188.14L388.32 188.29L389.68 188.45L391.04 188.60L392.40 188.75L393.76 188.91L395.12 189.05L396.48 189.20L397.84 189.35L399.20 189.49L400.56 189.63L401.92 189.77L403.28 189.91L404.64 190.05L406.00 190.19L407.36 190.32L408.72 190.45L410.08 190.59L411.44 190.72L412.80 190.85L414.16 190.97L415.52 191.10L416.88 191.22L418.24 191.35L419.60 191.47L420.96 191.59L422.32 191.71L423.68 191.83L425.04 191.95L426.40 192.06L427.76 192.18L429.12 192.29L430.48 192.41L431.84 192.52L433.20 192.63L434.56 192.74L435.92 192.85L437.28 192.96L438.64 193.06L440.00 193.17L441.36 193.28L442.72 193.38L444.08 193.48L445.44 193.59L446.80 193.69L448.16 193.79L449.52 193.89L450.88 193.99L452.24 194.09L453.60 194.19L454.96 194.29L456.32 194.39L457.68 194.48L459.04 194.58L460.40 194.67L461.76 194.77L463.12 194.86L464.48 194.96L465.84 195.05L467.20 195.15L468.56 195.24L469.92 195.33L471.28 195.42L472.64 195.52L474.00 195.61L475.36 195.70L476.72 195.79L478.08 195.88L479.44 195.97L480.80 196.07L482.16 196.16L483.52 196.25L484.88 196.34L486.24 196.43L487.60 196.52L488.96 196.61L490.32 196.70L491.68 196.79L493.04 196.88L494.40 196.97L495.76 197.06L497.12 197.15L498.48 197.24L499.84 197.34L501.20 197.43L502.56 197.52L503.92 197.61L505.28 197.70L506.64 197.80L508.00 197.89L509.36 197.98L510.72 198.08L512.08 198.17L513.44 198.27L514.80 198.36L516.16 198.46L517.52 198.55L518.88 198.65L520.24 198.75L521.60 198.85L522.96 198.94L524.32 199.04L525.68 199.14L527.04 199.24L528.40 199.35L529.76 199.45L531.12 199.55L532.48 199.65L533.84 199.76L535.20 199.87L536.56 199.97L537.92 200.08L539.28 200.19L540.64 200.30L542.00 200.41L543.36 200.52L544.72 200.63L546.08 200.74L547.44 200.86L548.80 200.98L550.16 201.09L551.52 201.21L552.88 201.33L554.24 201.45L555.60 201.57L556.96 201.70L558.32 201.82L559.68 201.95L561.04 202.07L562.40 202.20L563.76 202.33L565.12 202.47L566.48 202.60L567.84 202.73L569.20 202.87L570.56 203.01L571.92 203.15L573.28 203.29L574.64 203.43L576.00 203.58L577.36 203.73L578.72 203.87L580.08 204.03L581.44 204.18L582.80 204.33L584.16 204.49L585.52 204.65L586.88 204.81L588.24 204.97L589.60 205.13L590.96 205.30L592.32 205.47L593.68 205.64L595.04 205.81L596.40 205.99L597.76 206.16L599.12 206.34L600.48 206.53L601.84 206.71L603.20 206.90L604.56 207.09L605.92 207.28L607.28 207.47L608.64 207.67L610.00 207.87" fill="none" stroke="#18181b" stroke-width="2"/>
<line x1="622" y1="44" x2="644" y2="44" stroke="#18181b" stroke-width="2"/>
<text x="650" y="48" font-size="11" fill="#3f3f46">PDE (truth)</text>
<path d="M66.00 78.25L67.36 79.07L68.72 79.88L70.08 80.70L71.44 81.51L72.80 82.32L74.16 83.13L75.52 83.93L76.88 84.73L78.24 85.53L79.60 86.33L80.96 87.13L82.32 87.92L83.68 88.71L85.04 89.50L86.40 90.28L87.76 91.07L89.12 91.85L90.48 92.62L91.84 93.40L93.20 94.17L94.56 94.94L95.92 95.71L97.28 96.47L98.64 97.23L100.00 97.99L101.36 98.75L102.72 99.50L104.08 100.25L105.44 101.00L106.80 101.75L108.16 102.49L109.52 103.23L110.88 103.97L112.24 104.70L113.60 105.43L114.96 106.16L116.32 106.89L117.68 107.61L119.04 108.33L120.40 109.05L121.76 109.77L123.12 110.48L124.48 111.19L125.84 111.89L127.20 112.60L128.56 113.30L129.92 114.00L131.28 114.69L132.64 115.38L134.00 116.07L135.36 116.76L136.72 117.44L138.08 118.12L139.44 118.80L140.80 119.47L142.16 120.14L143.52 120.81L144.88 121.48L146.24 122.14L147.60 122.80L148.96 123.46L150.32 124.11L151.68 124.76L153.04 125.41L154.40 126.05L155.76 126.69L157.12 127.33L158.48 127.96L159.84 128.60L161.20 129.22L162.56 129.85L163.92 130.47L165.28 131.09L166.64 131.71L168.00 132.32L169.36 132.93L170.72 133.54L172.08 134.14L173.44 134.74L174.80 135.34L176.16 135.93L177.52 136.52L178.88 137.11L180.24 137.69L181.60 138.27L182.96 138.85L184.32 139.43L185.68 140.00L187.04 140.57L188.40 141.13L189.76 141.69L191.12 142.25L192.48 142.81L193.84 143.36L195.20 143.91L196.56 144.45L197.92 144.99L199.28 145.53L200.64 146.07L202.00 146.60L203.36 147.13L204.72 147.65L206.08 148.17L207.44 148.69L208.80 149.21L210.16 149.72L211.52 150.23L212.88 150.74L214.24 151.24L215.60 151.74L216.96 152.23L218.32 152.72L219.68 153.21L221.04 153.70L222.40 154.18L223.76 154.66L225.12 155.14L226.48 155.61L227.84 156.08L229.20 156.54L230.56 157.00L231.92 157.46L233.28 157.92L234.64 158.37L236.00 158.82L237.36 159.27L238.72 159.71L240.08 160.15L241.44 160.58L242.80 161.02L244.16 161.44L245.52 161.87L246.88 162.29L248.24 162.71L249.60 163.13L250.96 163.54L252.32 163.95L253.68 164.36L255.04 164.76L256.40 165.16L257.76 165.55L259.12 165.95L260.48 166.34L261.84 166.72L263.20 167.11L264.56 167.49L265.92 167.86L267.28 168.24L268.64 168.61L270.00 168.98L271.36 169.34L272.72 169.70L274.08 170.06L275.44 170.41L276.80 170.76L278.16 171.11L279.52 171.46L280.88 171.80L282.24 172.14L283.60 172.47L284.96 172.81L286.32 173.13L287.68 173.46L289.04 173.78L290.40 174.10L291.76 174.42L293.12 174.74L294.48 175.05L295.84 175.35L297.20 175.66L298.56 175.96L299.92 176.26L301.28 176.56L302.64 176.85L304.00 177.14L305.36 177.43L306.72 177.71L308.08 177.99L309.44 178.27L310.80 178.55L312.16 178.82L313.52 179.09L314.88 179.36L316.24 179.62L317.60 179.88L318.96 180.14L320.32 180.40L321.68 180.65L323.04 180.90L324.40 181.15L325.76 181.39L327.12 181.64L328.48 181.88L329.84 182.11L331.20 182.35L332.56 182.58L333.92 182.81L335.28 183.04L336.64 183.26L338.00 183.48L339.36 183.70L340.72 183.92L342.08 184.13L343.44 184.34L344.80 184.55L346.16 184.76L347.52 184.96L348.88 185.17L350.24 185.36L351.60 185.56L352.96 185.76L354.32 185.95L355.68 186.14L357.04 186.33L358.40 186.51L359.76 186.70L361.12 186.88L362.48 187.06L363.84 187.23L365.20 187.41L366.56 187.58L367.92 187.75L369.28 187.92L370.64 188.09L372.00 188.25L373.36 188.41L374.72 188.57L376.08 188.73L377.44 188.89L378.80 189.04L380.16 189.20L381.52 189.35L382.88 189.50L384.24 189.64L385.60 189.79L386.96 189.93L388.32 190.07L389.68 190.21L391.04 190.35L392.40 190.49L393.76 190.62L395.12 190.75L396.48 190.89L397.84 191.01L399.20 191.14L400.56 191.27L401.92 191.39L403.28 191.52L404.64 191.64L406.00 191.76L407.36 191.88L408.72 192.00L410.08 192.11L411.44 192.23L412.80 192.34L414.16 192.45L415.52 192.56L416.88 192.67L418.24 192.78L419.60 192.89L420.96 192.99L422.32 193.10L423.68 193.20L425.04 193.31L426.40 193.41L427.76 193.51L429.12 193.61L430.48 193.70L431.84 193.80L433.20 193.90L434.56 193.99L435.92 194.08L437.28 194.18L438.64 194.27L440.00 194.36L441.36 194.45L442.72 194.54L444.08 194.63L445.44 194.72L446.80 194.80L448.16 194.89L449.52 194.98L450.88 195.06L452.24 195.15L453.60 195.23L454.96 195.31L456.32 195.40L457.68 195.48L459.04 195.56L460.40 195.64L461.76 195.72L463.12 195.80L464.48 195.88L465.84 195.96L467.20 196.04L468.56 196.12L469.92 196.19L471.28 196.27L472.64 196.35L474.00 196.43L475.36 196.50L476.72 196.58L478.08 196.66L479.44 196.73L480.80 196.81L482.16 196.89L483.52 196.96L484.88 197.04L486.24 197.11L487.60 197.19L488.96 197.26L490.32 197.34L491.68 197.42L493.04 197.49L494.40 197.57L495.76 197.64L497.12 197.72L498.48 197.80L499.84 197.87L501.20 197.95L502.56 198.03L503.92 198.11L505.28 198.18L506.64 198.26L508.00 198.34L509.36 198.42L510.72 198.50L512.08 198.58L513.44 198.66L514.80 198.74L516.16 198.82L517.52 198.90L518.88 198.99L520.24 199.07L521.60 199.15L522.96 199.24L524.32 199.32L525.68 199.41L527.04 199.49L528.40 199.58L529.76 199.67L531.12 199.76L532.48 199.85L533.84 199.94L535.20 200.03L536.56 200.12L537.92 200.21L539.28 200.31L540.64 200.40L542.00 200.50L543.36 200.59L544.72 200.69L546.08 200.79L547.44 200.89L548.80 200.99L550.16 201.10L551.52 201.20L552.88 201.31L554.24 201.41L555.60 201.52L556.96 201.63L558.32 201.74L559.68 201.85L561.04 201.96L562.40 202.08L563.76 202.20L565.12 202.31L566.48 202.43L567.84 202.55L569.20 202.68L570.56 202.80L571.92 202.93L573.28 203.05L574.64 203.18L576.00 203.31L577.36 203.45L578.72 203.58L580.08 203.72L581.44 203.85L582.80 203.99L584.16 204.14L585.52 204.28L586.88 204.43L588.24 204.57L589.60 204.72L590.96 204.88L592.32 205.03L593.68 205.19L595.04 205.35L596.40 205.51L597.76 205.67L599.12 205.84L600.48 206.01L601.84 206.18L603.20 206.35L604.56 206.52L605.92 206.70L607.28 206.88L608.64 207.07L610.00 207.25" fill="none" stroke="#a1a1aa" stroke-width="1.5" stroke-dasharray="5 4"/>
<line x1="622" y1="61" x2="644" y2="61" stroke="#a1a1aa" stroke-width="1.5" stroke-dasharray="5 4"/>
<text x="650" y="65" font-size="11" fill="#3f3f46">BBF0</text>
<path d="M66.00 71.14L67.36 71.99L68.72 72.84L70.08 73.69L71.44 74.53L72.80 75.37L74.16 76.21L75.52 77.05L76.88 77.88L78.24 78.71L79.60 79.54L80.96 80.37L82.32 81.19L83.68 82.02L85.04 82.83L86.40 83.65L87.76 84.46L89.12 85.27L90.48 86.08L91.84 86.89L93.20 87.69L94.56 88.49L95.92 89.29L97.28 90.08L98.64 90.87L100.00 91.66L101.36 92.45L102.72 93.23L104.08 94.01L105.44 94.79L106.80 95.57L108.16 96.34L109.52 97.11L110.88 97.87L112.24 98.64L113.60 99.40L114.96 100.16L116.32 100.91L117.68 101.67L119.04 102.41L120.40 103.16L121.76 103.90L123.12 104.65L124.48 105.38L125.84 106.12L127.20 106.85L128.56 107.58L129.92 108.30L131.28 109.03L132.64 109.75L134.00 110.46L135.36 111.18L136.72 111.89L138.08 112.60L139.44 113.30L140.80 114.00L142.16 114.70L143.52 115.40L144.88 116.09L146.24 116.78L147.60 117.46L148.96 118.15L150.32 118.83L151.68 119.50L153.04 120.18L154.40 120.85L155.76 121.51L157.12 122.18L158.48 122.84L159.84 123.50L161.20 124.15L162.56 124.80L163.92 125.45L165.28 126.10L166.64 126.74L168.00 127.38L169.36 128.01L170.72 128.64L172.08 129.27L173.44 129.90L174.80 130.52L176.16 131.14L177.52 131.75L178.88 132.36L180.24 132.97L181.60 133.58L182.96 134.18L184.32 134.78L185.68 135.38L187.04 135.97L188.40 136.56L189.76 137.14L191.12 137.72L192.48 138.30L193.84 138.88L195.20 139.45L196.56 140.02L197.92 140.59L199.28 141.15L200.64 141.71L202.00 142.26L203.36 142.81L204.72 143.36L206.08 143.91L207.44 144.45L208.80 144.99L210.16 145.52L211.52 146.05L212.88 146.58L214.24 147.11L215.60 147.63L216.96 148.15L218.32 148.66L219.68 149.17L221.04 149.68L222.40 150.18L223.76 150.68L225.12 151.18L226.48 151.68L227.84 152.17L229.20 152.65L230.56 153.14L231.92 153.62L233.28 154.10L234.64 154.57L236.00 155.04L237.36 155.51L238.72 155.97L240.08 156.43L241.44 156.89L242.80 157.34L244.16 157.79L245.52 158.24L246.88 158.68L248.24 159.12L249.60 159.56L250.96 159.99L252.32 160.42L253.68 160.85L255.04 161.27L256.40 161.69L257.76 162.11L259.12 162.52L260.48 162.93L261.84 163.34L263.20 163.74L264.56 164.14L265.92 164.54L267.28 164.93L268.64 165.32L270.00 165.71L271.36 166.09L272.72 166.47L274.08 166.85L275.44 167.22L276.80 167.59L278.16 167.96L279.52 168.32L280.88 168.68L282.24 169.04L283.60 169.40L284.96 169.75L286.32 170.09L287.68 170.44L289.04 170.78L290.40 171.12L291.76 171.46L293.12 171.79L294.48 172.12L295.84 172.45L297.20 172.77L298.56 173.09L299.92 173.41L301.28 173.72L302.64 174.03L304.00 174.34L305.36 174.65L306.72 174.95L308.08 175.25L309.44 175.54L310.80 175.84L312.16 176.13L313.52 176.42L314.88 176.70L316.24 176.98L317.60 177.26L318.96 177.54L320.32 177.81L321.68 178.08L323.04 178.35L324.40 178.62L325.76 178.88L327.12 179.14L328.48 179.39L329.84 179.65L331.20 179.90L332.56 180.15L333.92 180.40L335.28 180.64L336.64 180.88L338.00 181.12L339.36 181.36L340.72 181.59L342.08 181.82L343.44 182.05L344.80 182.27L346.16 182.50L347.52 182.72L348.88 182.94L350.24 183.15L351.60 183.37L352.96 183.58L354.32 183.79L355.68 183.99L357.04 184.20L358.40 184.40L359.76 184.60L361.12 184.80L362.48 184.99L363.84 185.19L365.20 185.38L366.56 185.57L367.92 185.75L369.28 185.94L370.64 186.12L372.00 186.30L373.36 186.48L374.72 186.66L376.08 186.83L377.44 187.00L378.80 187.17L380.16 187.34L381.52 187.51L382.88 187.67L384.24 187.83L385.60 188.00L386.96 188.15L388.32 188.31L389.68 188.47L391.04 188.62L392.40 188.77L393.76 188.92L395.12 189.07L396.48 189.22L397.84 189.36L399.20 189.51L400.56 189.65L401.92 189.79L403.28 189.93L404.64 190.07L406.00 190.20L407.36 190.34L408.72 190.47L410.08 190.60L411.44 190.73L412.80 190.86L414.16 190.99L415.52 191.11L416.88 191.24L418.24 191.36L419.60 191.48L420.96 191.60L422.32 191.72L423.68 191.84L425.04 191.96L426.40 192.08L427.76 192.19L429.12 192.31L430.48 192.42L431.84 192.53L433.20 192.64L434.56 192.75L435.92 192.86L437.28 192.97L438.64 193.08L440.00 193.18L441.36 193.29L442.72 193.39L444.08 193.49L445.44 193.60L446.80 193.70L448.16 193.80L449.52 193.90L450.88 194.00L452.24 194.10L453.60 194.20L454.96 194.30L456.32 194.39L457.68 194.49L459.04 194.59L460.40 194.68L461.76 194.78L463.12 194.87L464.48 194.97L465.84 195.06L467.20 195.15L468.56 195.25L469.92 195.34L471.28 195.43L472.64 195.52L474.00 195.62L475.36 195.71L476.72 195.80L478.08 195.89L479.44 195.98L480.80 196.07L482.16 196.16L483.52 196.25L484.88 196.34L486.24 196.43L487.60 196.53L488.96 196.62L490.32 196.71L491.68 196.80L493.04 196.89L494.40 196.98L495.76 197.07L497.12 197.16L498.48 197.25L499.84 197.34L501.20 197.43L502.56 197.53L503.92 197.62L505.28 197.71L506.64 197.80L508.00 197.90L509.36 197.99L510.72 198.08L512.08 198.18L513.44 198.27L514.80 198.37L516.16 198.46L517.52 198.56L518.88 198.66L520.24 198.75L521.60 198.85L522.96 198.95L524.32 199.05L525.68 199.15L527.04 199.25L528.40 199.35L529.76 199.45L531.12 199.56L532.48 199.66L533.84 199.77L535.20 199.87L536.56 199.98L537.92 200.08L539.28 200.19L540.64 200.30L542.00 200.41L543.36 200.52L544.72 200.64L546.08 200.75L547.44 200.87L548.80 200.98L550.16 201.10L551.52 201.22L552.88 201.34L554.24 201.46L555.60 201.58L556.96 201.70L558.32 201.83L559.68 201.95L561.04 202.08L562.40 202.21L563.76 202.34L565.12 202.47L566.48 202.61L567.84 202.74L569.20 202.88L570.56 203.02L571.92 203.16L573.28 203.30L574.64 203.44L576.00 203.59L577.36 203.73L578.72 203.88L580.08 204.03L581.44 204.18L582.80 204.34L584.16 204.50L585.52 204.65L586.88 204.81L588.24 204.98L589.60 205.14L590.96 205.31L592.32 205.48L593.68 205.65L595.04 205.82L596.40 205.99L597.76 206.17L599.12 206.35L600.48 206.53L601.84 206.72L603.20 206.91L604.56 207.10L605.92 207.29L607.28 207.48L608.64 207.68L610.00 207.88" fill="none" stroke="#2563eb" stroke-width="1.5"/>
<line x1="622" y1="78" x2="644" y2="78" stroke="#2563eb" stroke-width="1.5"/>
<text x="650" y="82" font-size="11" fill="#3f3f46">PHL1</text>
<path d="M66.00 70.92L67.36 71.78L68.72 72.63L70.08 73.48L71.44 74.32L72.80 75.17L74.16 76.01L75.52 76.85L76.88 77.68L78.24 78.51L79.60 79.35L80.96 80.17L82.32 81.00L83.68 81.82L85.04 82.64L86.40 83.46L87.76 84.27L89.12 85.09L90.48 85.90L91.84 86.70L93.20 87.51L94.56 88.31L95.92 89.11L97.28 89.90L98.64 90.70L100.00 91.49L101.36 92.28L102.72 93.06L104.08 93.84L105.44 94.62L106.80 95.40L108.16 96.17L109.52 96.94L110.88 97.71L112.24 98.48L113.60 99.24L114.96 100.00L116.32 100.76L117.68 101.51L119.04 102.26L120.40 103.01L121.76 103.75L123.12 104.50L124.48 105.23L125.84 105.97L127.20 106.70L128.56 107.43L129.92 108.16L131.28 108.89L132.64 109.61L134.00 110.32L135.36 111.04L136.72 111.75L138.08 112.46L139.44 113.17L140.80 113.87L142.16 114.57L143.52 115.27L144.88 115.96L146.24 116.65L147.60 117.34L148.96 118.02L150.32 118.70L151.68 119.38L153.04 120.05L154.40 120.73L155.76 121.39L157.12 122.06L158.48 122.72L159.84 123.38L161.20 124.04L162.56 124.69L163.92 125.34L165.28 125.98L166.64 126.63L168.00 127.27L169.36 127.90L170.72 128.53L172.08 129.16L173.44 129.79L174.80 130.41L176.16 131.03L177.52 131.65L178.88 132.26L180.24 132.87L181.60 133.48L182.96 134.08L184.32 134.68L185.68 135.28L187.04 135.87L188.40 136.46L189.76 137.05L191.12 137.63L192.48 138.21L193.84 138.79L195.20 139.36L196.56 139.93L197.92 140.50L199.28 141.06L200.64 141.62L202.00 142.17L203.36 142.73L204.72 143.28L206.08 143.82L207.44 144.37L208.80 144.90L210.16 145.44L211.52 145.97L212.88 146.50L214.24 147.03L215.60 147.55L216.96 148.07L218.32 148.58L219.68 149.10L221.04 149.60L222.40 150.11L223.76 150.61L225.12 151.11L226.48 151.60L227.84 152.10L229.20 152.58L230.56 153.07L231.92 153.55L233.28 154.03L234.64 154.50L236.00 154.97L237.36 155.44L238.72 155.90L240.08 156.37L241.44 156.82L242.80 157.28L244.16 157.73L245.52 158.17L246.88 158.62L248.24 159.06L249.60 159.50L250.96 159.93L252.32 160.36L253.68 160.79L255.04 161.21L256.40 161.63L257.76 162.05L259.12 162.46L260.48 162.87L261.84 163.28L263.20 163.68L264.56 164.08L265.92 164.48L267.28 164.88L268.64 165.27L270.00 165.65L271.36 166.04L272.72 166.42L274.08 166.80L275.44 167.17L276.80 167.54L278.16 167.91L279.52 168.27L280.88 168.64L282.24 168.99L283.60 169.35L284.96 169.70L286.32 170.05L287.68 170.40L289.04 170.74L290.40 171.08L291.76 171.41L293.12 171.75L294.48 172.08L295.84 172.40L297.20 172.73L298.56 173.05L299.92 173.37L301.28 173.68L302.64 173.99L304.00 174.30L305.36 174.61L306.72 174.91L308.08 175.21L309.44 175.51L310.80 175.80L312.16 176.09L313.52 176.38L314.88 176.66L316.24 176.95L317.60 177.23L318.96 177.50L320.32 177.78L321.68 178.05L323.04 178.32L324.40 178.58L325.76 178.85L327.12 179.11L328.48 179.36L329.84 179.62L331.20 179.87L332.56 180.12L333.92 180.37L335.28 180.61L336.64 180.85L338.00 181.09L339.36 181.33L340.72 181.56L342.08 181.79L343.44 182.02L344.80 182.25L346.16 182.47L347.52 182.69L348.88 182.91L350.24 183.13L351.60 183.34L352.96 183.55L354.32 183.76L355.68 183.97L357.04 184.17L358.40 184.38L359.76 184.58L361.12 184.77L362.48 184.97L363.84 185.16L365.20 185.36L366.56 185.54L367.92 185.73L369.28 185.92L370.64 186.10L372.00 186.28L373.36 186.46L374.72 186.63L376.08 186.81L377.44 186.98L378.80 187.15L380.16 187.32L381.52 187.49L382.88 187.65L384.24 187.82L385.60 187.98L386.96 188.14L388.32 188.29L389.68 188.45L391.04 188.60L392.40 188.76L393.76 188.91L395.12 189.05L396.48 189.20L397.84 189.35L399.20 189.49L400.56 189.63L401.92 189.77L403.28 189.91L404.64 190.05L406.00 190.19L407.36 190.32L408.72 190.45L410.08 190.59L411.44 190.72L412.80 190.85L414.16 190.97L415.52 191.10L416.88 191.22L418.24 191.35L419.60 191.47L420.96 191.59L422.32 191.71L423.68 191.83L425.04 191.95L426.40 192.06L427.76 192.18L429.12 192.29L430.48 192.41L431.84 192.52L433.20 192.63L434.56 192.74L435.92 192.85L437.28 192.96L438.64 193.06L440.00 193.17L441.36 193.28L442.72 193.38L444.08 193.48L445.44 193.59L446.80 193.69L448.16 193.79L449.52 193.89L450.88 193.99L452.24 194.09L453.60 194.19L454.96 194.29L456.32 194.39L457.68 194.48L459.04 194.58L460.40 194.68L461.76 194.77L463.12 194.87L464.48 194.96L465.84 195.05L467.20 195.15L468.56 195.24L469.92 195.33L471.28 195.43L472.64 195.52L474.00 195.61L475.36 195.70L476.72 195.79L478.08 195.88L479.44 195.98L480.80 196.07L482.16 196.16L483.52 196.25L484.88 196.34L486.24 196.43L487.60 196.52L488.96 196.61L490.32 196.70L491.68 196.79L493.04 196.88L494.40 196.97L495.76 197.06L497.12 197.15L498.48 197.25L499.84 197.34L501.20 197.43L502.56 197.52L503.92 197.61L505.28 197.70L506.64 197.80L508.00 197.89L509.36 197.98L510.72 198.08L512.08 198.17L513.44 198.27L514.80 198.36L516.16 198.46L517.52 198.55L518.88 198.65L520.24 198.75L521.60 198.85L522.96 198.95L524.32 199.04L525.68 199.14L527.04 199.25L528.40 199.35L529.76 199.45L531.12 199.55L532.48 199.66L533.84 199.76L535.20 199.87L536.56 199.97L537.92 200.08L539.28 200.19L540.64 200.30L542.00 200.41L543.36 200.52L544.72 200.63L546.08 200.75L547.44 200.86L548.80 200.98L550.16 201.09L551.52 201.21L552.88 201.33L554.24 201.45L555.60 201.57L556.96 201.70L558.32 201.82L559.68 201.95L561.04 202.08L562.40 202.21L563.76 202.34L565.12 202.47L566.48 202.60L567.84 202.74L569.20 202.87L570.56 203.01L571.92 203.15L573.28 203.29L574.64 203.44L576.00 203.58L577.36 203.73L578.72 203.88L580.08 204.03L581.44 204.18L582.80 204.33L584.16 204.49L585.52 204.65L586.88 204.81L588.24 204.97L589.60 205.14L590.96 205.30L592.32 205.47L593.68 205.64L595.04 205.81L596.40 205.99L597.76 206.17L599.12 206.35L600.48 206.53L601.84 206.71L603.20 206.90L604.56 207.09L605.92 207.28L607.28 207.48L608.64 207.67L610.00 207.87" fill="none" stroke="#ea580c" stroke-width="1.5"/>
<line x1="622" y1="95" x2="644" y2="95" stroke="#ea580c" stroke-width="1.5"/>
<text x="650" y="99" font-size="11" fill="#3f3f46">GHLOW2</text>
<text x="338" y="292" text-anchor="middle" font-size="11" fill="#52525b">log-moneyness k</text>
<text transform="translate(18 144) rotate(-90)" text-anchor="middle" font-size="11" fill="#52525b">implied vol (ann %)</text>
<text x="380" y="320" text-anchor="middle" font-weight="600" font-size="14">Error vs PDE (basis points)</text>
<line x1="66" y1="554" x2="610" y2="554" stroke="#ececf0"/>
<text x="58" y="558" text-anchor="end" font-size="11" fill="#52525b">-80</text>
<line x1="66" y1="510" x2="610" y2="510" stroke="#ececf0"/>
<text x="58" y="514" text-anchor="end" font-size="11" fill="#52525b">-60</text>
<line x1="66" y1="466" x2="610" y2="466" stroke="#ececf0"/>
<text x="58" y="470" text-anchor="end" font-size="11" fill="#52525b">-40</text>
<line x1="66" y1="422" x2="610" y2="422" stroke="#ececf0"/>
<text x="58" y="426" text-anchor="end" font-size="11" fill="#52525b">-20</text>
<line x1="66" y1="378" x2="610" y2="378" stroke="#a1a1aa"/>
<text x="58" y="382" text-anchor="end" font-size="11" fill="#52525b">0</text>
<line x1="66" y1="334" x2="610" y2="334" stroke="#ececf0"/>
<text x="58" y="338" text-anchor="end" font-size="11" fill="#52525b">20</text>
<line x1="145.52283220045922" y1="334" x2="145.52283220045922" y2="554" stroke="#ececf0"/>
<text x="145.52283220045922" y="570" text-anchor="middle" font-size="11" fill="#52525b">-0.05</text>
<line x1="358.92307692307696" y1="334" x2="358.92307692307696" y2="554" stroke="#ececf0"/>
<text x="358.92307692307696" y="570" text-anchor="middle" font-size="11" fill="#52525b">0.00</text>
<line x1="572.3233216456947" y1="334" x2="572.3233216456947" y2="554" stroke="#ececf0"/>
<text x="572.3233216456947" y="570" text-anchor="middle" font-size="11" fill="#52525b">0.05</text>
<line x1="66" y1="378" x2="610" y2="378" stroke="#71717a"/>
<path d="M66.00 524.42L67.36 523.76L68.72 523.10L70.08 522.44L71.44 521.78L72.80 521.13L74.16 520.47L75.52 519.82L76.88 519.16L78.24 518.51L79.60 517.86L80.96 517.21L82.32 516.56L83.68 515.92L85.04 515.27L86.40 514.63L87.76 513.98L89.12 513.34L90.48 512.70L91.84 512.06L93.20 511.43L94.56 510.79L95.92 510.16L97.28 509.53L98.64 508.90L100.00 508.27L101.36 507.64L102.72 507.02L104.08 506.39L105.44 505.77L106.80 505.15L108.16 504.53L109.52 503.92L110.88 503.30L112.24 502.69L113.60 502.08L114.96 501.47L116.32 500.87L117.68 500.26L119.04 499.66L120.40 499.06L121.76 498.46L123.12 497.86L124.48 497.27L125.84 496.67L127.20 496.08L128.56 495.49L129.92 494.90L131.28 494.32L132.64 493.74L134.00 493.15L135.36 492.58L136.72 492.00L138.08 491.42L139.44 490.85L140.80 490.28L142.16 489.71L143.52 489.14L144.88 488.58L146.24 488.01L147.60 487.45L148.96 486.89L150.32 486.33L151.68 485.78L153.04 485.22L154.40 484.67L155.76 484.12L157.12 483.58L158.48 483.03L159.84 482.49L161.20 481.94L162.56 481.40L163.92 480.87L165.28 480.33L166.64 479.80L168.00 479.27L169.36 478.74L170.72 478.21L172.08 477.68L173.44 477.16L174.80 476.63L176.16 476.11L177.52 475.60L178.88 475.08L180.24 474.57L181.60 474.05L182.96 473.54L184.32 473.03L185.68 472.53L187.04 472.02L188.40 471.52L189.76 471.02L191.12 470.52L192.48 470.02L193.84 469.52L195.20 469.03L196.56 468.54L197.92 468.05L199.28 467.56L200.64 467.07L202.00 466.59L203.36 466.10L204.72 465.62L206.08 465.14L207.44 464.67L208.80 464.19L210.16 463.72L211.52 463.24L212.88 462.77L214.24 462.30L215.60 461.84L216.96 461.37L218.32 460.91L219.68 460.45L221.04 459.99L222.40 459.53L223.76 459.07L225.12 458.62L226.48 458.16L227.84 457.71L229.20 457.26L230.56 456.81L231.92 456.37L233.28 455.92L234.64 455.48L236.00 455.03L237.36 454.59L238.72 454.16L240.08 453.72L241.44 453.28L242.80 452.85L244.16 452.42L245.52 451.99L246.88 451.56L248.24 451.13L249.60 450.70L250.96 450.28L252.32 449.86L253.68 449.43L255.04 449.01L256.40 448.60L257.76 448.18L259.12 447.76L260.48 447.35L261.84 446.94L263.20 446.53L264.56 446.12L265.92 445.71L267.28 445.30L268.64 444.89L270.00 444.49L271.36 444.09L272.72 443.69L274.08 443.29L275.44 442.89L276.80 442.49L278.16 442.09L279.52 441.70L280.88 441.31L282.24 440.91L283.60 440.52L284.96 440.13L286.32 439.75L287.68 439.36L289.04 438.97L290.40 438.59L291.76 438.21L293.12 437.83L294.48 437.44L295.84 437.07L297.20 436.69L298.56 436.31L299.92 435.93L301.28 435.56L302.64 435.19L304.00 434.81L305.36 434.44L306.72 434.07L308.08 433.70L309.44 433.34L310.80 432.97L312.16 432.60L313.52 432.24L314.88 431.88L316.24 431.51L317.60 431.15L318.96 430.79L320.32 430.43L321.68 430.07L323.04 429.72L324.40 429.36L325.76 429.01L327.12 428.65L328.48 428.30L329.84 427.95L331.20 427.60L332.56 427.24L333.92 426.90L335.28 426.55L336.64 426.20L338.00 425.85L339.36 425.51L340.72 425.16L342.08 424.82L343.44 424.48L344.80 424.13L346.16 423.79L347.52 423.45L348.88 423.11L350.24 422.77L351.60 422.43L352.96 422.10L354.32 421.76L355.68 421.43L357.04 421.09L358.40 420.76L359.76 420.42L361.12 420.09L362.48 419.76L363.84 419.43L365.20 419.10L366.56 418.77L367.92 418.44L369.28 418.11L370.64 417.78L372.00 417.46L373.36 417.13L374.72 416.80L376.08 416.48L377.44 416.16L378.80 415.83L380.16 415.51L381.52 415.19L382.88 414.87L384.24 414.54L385.60 414.22L386.96 413.90L388.32 413.58L389.68 413.27L391.04 412.95L392.40 412.63L393.76 412.31L395.12 412.00L396.48 411.68L397.84 411.37L399.20 411.05L400.56 410.74L401.92 410.42L403.28 410.11L404.64 409.80L406.00 409.48L407.36 409.17L408.72 408.86L410.08 408.55L411.44 408.24L412.80 407.93L414.16 407.62L415.52 407.31L416.88 407.00L418.24 406.69L419.60 406.39L420.96 406.08L422.32 405.77L423.68 405.47L425.04 405.16L426.40 404.85L427.76 404.55L429.12 404.24L430.48 403.94L431.84 403.63L433.20 403.33L434.56 403.03L435.92 402.72L437.28 402.42L438.64 402.12L440.00 401.82L441.36 401.51L442.72 401.21L444.08 400.91L445.44 400.61L446.80 400.31L448.16 400.01L449.52 399.71L450.88 399.41L452.24 399.11L453.60 398.81L454.96 398.51L456.32 398.21L457.68 397.91L459.04 397.62L460.40 397.32L461.76 397.02L463.12 396.72L464.48 396.43L465.84 396.13L467.20 395.83L468.56 395.54L469.92 395.24L471.28 394.95L472.64 394.65L474.00 394.35L475.36 394.06L476.72 393.76L478.08 393.47L479.44 393.17L480.80 392.88L482.16 392.59L483.52 392.29L484.88 392.00L486.24 391.70L487.60 391.41L488.96 391.12L490.32 390.83L491.68 390.53L493.04 390.24L494.40 389.95L495.76 389.66L497.12 389.36L498.48 389.07L499.84 388.78L501.20 388.49L502.56 388.20L503.92 387.90L505.28 387.61L506.64 387.32L508.00 387.03L509.36 386.74L510.72 386.45L512.08 386.16L513.44 385.87L514.80 385.58L516.16 385.29L517.52 385.00L518.88 384.71L520.24 384.42L521.60 384.13L522.96 383.84L524.32 383.55L525.68 383.26L527.04 382.98L528.40 382.69L529.76 382.40L531.12 382.11L532.48 381.82L533.84 381.53L535.20 381.25L536.56 380.96L537.92 380.67L539.28 380.38L540.64 380.09L542.00 379.81L543.36 379.52L544.72 379.23L546.08 378.95L547.44 378.66L548.80 378.37L550.16 378.09L551.52 377.80L552.88 377.51L554.24 377.23L555.60 376.94L556.96 376.66L558.32 376.37L559.68 376.08L561.04 375.80L562.40 375.51L563.76 375.23L565.12 374.94L566.48 374.66L567.84 374.37L569.20 374.09L570.56 373.80L571.92 373.52L573.28 373.23L574.64 372.95L576.00 372.67L577.36 372.38L578.72 372.10L580.08 371.82L581.44 371.53L582.80 371.25L584.16 370.97L585.52 370.68L586.88 370.40L588.24 370.12L589.60 369.84L590.96 369.55L592.32 369.27L593.68 368.99L595.04 368.71L596.40 368.43L597.76 368.15L599.12 367.87L600.48 367.59L601.84 367.30L603.20 367.02L604.56 366.74L605.92 366.46L607.28 366.19L608.64 365.91L610.00 365.63" fill="none" stroke="#a1a1aa" stroke-width="1.5" stroke-dasharray="5 4"/>
<line x1="622" y1="344" x2="644" y2="344" stroke="#a1a1aa" stroke-width="1.5" stroke-dasharray="5 4"/>
<text x="650" y="348" font-size="11" fill="#3f3f46">BBF0 − PDE</text>
<path d="M66.00 382.27L67.36 382.25L68.72 382.24L70.08 382.22L71.44 382.21L72.80 382.19L74.16 382.17L75.52 382.15L76.88 382.13L78.24 382.11L79.60 382.08L80.96 382.06L82.32 382.04L83.68 382.01L85.04 381.99L86.40 381.97L87.76 381.94L89.12 381.91L90.48 381.89L91.84 381.86L93.20 381.83L94.56 381.81L95.92 381.78L97.28 381.75L98.64 381.73L100.00 381.70L101.36 381.67L102.72 381.64L104.08 381.61L105.44 381.58L106.80 381.56L108.16 381.53L109.52 381.50L110.88 381.47L112.24 381.44L113.60 381.41L114.96 381.39L116.32 381.36L117.68 381.33L119.04 381.30L120.40 381.27L121.76 381.24L123.12 381.22L124.48 381.19L125.84 381.16L127.20 381.13L128.56 381.10L129.92 381.08L131.28 381.05L132.64 381.02L134.00 380.99L135.36 380.97L136.72 380.94L138.08 380.91L139.44 380.89L140.80 380.86L142.16 380.83L143.52 380.81L144.88 380.78L146.24 380.76L147.60 380.73L148.96 380.71L150.32 380.68L151.68 380.65L153.04 380.63L154.40 380.61L155.76 380.58L157.12 380.56L158.48 380.53L159.84 380.51L161.20 380.48L162.56 380.46L163.92 380.44L165.28 380.41L166.64 380.39L168.00 380.37L169.36 380.34L170.72 380.32L172.08 380.30L173.44 380.28L174.80 380.25L176.16 380.23L177.52 380.21L178.88 380.19L180.24 380.17L181.60 380.15L182.96 380.13L184.32 380.10L185.68 380.08L187.04 380.06L188.40 380.04L189.76 380.02L191.12 380.00L192.48 379.98L193.84 379.96L195.20 379.94L196.56 379.92L197.92 379.90L199.28 379.89L200.64 379.87L202.00 379.85L203.36 379.83L204.72 379.81L206.08 379.79L207.44 379.77L208.80 379.76L210.16 379.74L211.52 379.72L212.88 379.70L214.24 379.69L215.60 379.67L216.96 379.65L218.32 379.63L219.68 379.62L221.04 379.60L222.40 379.59L223.76 379.57L225.12 379.55L226.48 379.54L227.84 379.52L229.20 379.50L230.56 379.49L231.92 379.47L233.28 379.46L234.64 379.44L236.00 379.43L237.36 379.41L238.72 379.40L240.08 379.38L241.44 379.37L242.80 379.35L244.16 379.34L245.52 379.33L246.88 379.31L248.24 379.30L249.60 379.28L250.96 379.27L252.32 379.26L253.68 379.24L255.04 379.23L256.40 379.22L257.76 379.20L259.12 379.19L260.48 379.18L261.84 379.16L263.20 379.15L264.56 379.14L265.92 379.13L267.28 379.11L268.64 379.10L270.00 379.09L271.36 379.08L272.72 379.07L274.08 379.06L275.44 379.04L276.80 379.03L278.16 379.02L279.52 379.01L280.88 379.00L282.24 378.99L283.60 378.98L284.96 378.96L286.32 378.95L287.68 378.94L289.04 378.93L290.40 378.92L291.76 378.91L293.12 378.90L294.48 378.89L295.84 378.88L297.20 378.87L298.56 378.86L299.92 378.85L301.28 378.84L302.64 378.83L304.00 378.82L305.36 378.81L306.72 378.80L308.08 378.79L309.44 378.78L310.80 378.77L312.16 378.77L313.52 378.76L314.88 378.75L316.24 378.74L317.60 378.73L318.96 378.72L320.32 378.71L321.68 378.70L323.04 378.70L324.40 378.69L325.76 378.68L327.12 378.67L328.48 378.66L329.84 378.65L331.20 378.65L332.56 378.64L333.92 378.63L335.28 378.62L336.64 378.62L338.00 378.61L339.36 378.60L340.72 378.59L342.08 378.59L343.44 378.58L344.80 378.57L346.16 378.56L347.52 378.56L348.88 378.55L350.24 378.54L351.60 378.54L352.96 378.53L354.32 378.52L355.68 378.52L357.04 378.51L358.40 378.50L359.76 378.50L361.12 378.49L362.48 378.48L363.84 378.48L365.20 378.47L366.56 378.47L367.92 378.46L369.28 378.45L370.64 378.45L372.00 378.44L373.36 378.44L374.72 378.43L376.08 378.42L377.44 378.42L378.80 378.41L380.16 378.41L381.52 378.40L382.88 378.40L384.24 378.39L385.60 378.39L386.96 378.38L388.32 378.38L389.68 378.37L391.04 378.37L392.40 378.36L393.76 378.36L395.12 378.35L396.48 378.35L397.84 378.34L399.20 378.34L400.56 378.33L401.92 378.33L403.28 378.32L404.64 378.32L406.00 378.31L407.36 378.31L408.72 378.31L410.08 378.30L411.44 378.30L412.80 378.29L414.16 378.29L415.52 378.28L416.88 378.28L418.24 378.28L419.60 378.27L420.96 378.27L422.32 378.27L423.68 378.26L425.04 378.26L426.40 378.25L427.76 378.25L429.12 378.25L430.48 378.24L431.84 378.24L433.20 378.24L434.56 378.23L435.92 378.23L437.28 378.23L438.64 378.22L440.00 378.22L441.36 378.22L442.72 378.21L444.08 378.21L445.44 378.21L446.80 378.21L448.16 378.20L449.52 378.20L450.88 378.20L452.24 378.19L453.60 378.19L454.96 378.19L456.32 378.19L457.68 378.18L459.04 378.18L460.40 378.18L461.76 378.18L463.12 378.17L464.48 378.17L465.84 378.17L467.20 378.17L468.56 378.17L469.92 378.16L471.28 378.16L472.64 378.16L474.00 378.16L475.36 378.16L476.72 378.15L478.08 378.15L479.44 378.15L480.80 378.15L482.16 378.15L483.52 378.15L484.88 378.14L486.24 378.14L487.60 378.14L488.96 378.14L490.32 378.14L491.68 378.14L493.04 378.13L494.40 378.13L495.76 378.13L497.12 378.13L498.48 378.13L499.84 378.13L501.20 378.13L502.56 378.13L503.92 378.13L505.28 378.12L506.64 378.12L508.00 378.12L509.36 378.12L510.72 378.12L512.08 378.12L513.44 378.12L514.80 378.12L516.16 378.12L517.52 378.12L518.88 378.12L520.24 378.12L521.60 378.12L522.96 378.12L524.32 378.12L525.68 378.12L527.04 378.11L528.40 378.11L529.76 378.11L531.12 378.11L532.48 378.11L533.84 378.11L535.20 378.11L536.56 378.11L537.92 378.11L539.28 378.11L540.64 378.11L542.00 378.11L543.36 378.11L544.72 378.11L546.08 378.12L547.44 378.12L548.80 378.12L550.16 378.12L551.52 378.12L552.88 378.12L554.24 378.12L555.60 378.12L556.96 378.12L558.32 378.12L559.68 378.12L561.04 378.12L562.40 378.12L563.76 378.12L565.12 378.12L566.48 378.12L567.84 378.13L569.20 378.13L570.56 378.13L571.92 378.13L573.28 378.13L574.64 378.13L576.00 378.13L577.36 378.13L578.72 378.13L580.08 378.14L581.44 378.14L582.80 378.14L584.16 378.14L585.52 378.14L586.88 378.14L588.24 378.14L589.60 378.15L590.96 378.15L592.32 378.15L593.68 378.15L595.04 378.15L596.40 378.15L597.76 378.16L599.12 378.16L600.48 378.16L601.84 378.16L603.20 378.16L604.56 378.17L605.92 378.17L607.28 378.17L608.64 378.17L610.00 378.17" fill="none" stroke="#2563eb" stroke-width="1.5"/>
<line x1="622" y1="361" x2="644" y2="361" stroke="#2563eb" stroke-width="1.5"/>
<text x="650" y="365" font-size="11" fill="#3f3f46">PHL1 − PDE</text>
<path d="M66.00 377.95L67.36 377.97L68.72 377.99L70.08 378.01L71.44 378.03L72.80 378.05L74.16 378.06L75.52 378.08L76.88 378.09L78.24 378.10L79.60 378.12L80.96 378.13L82.32 378.14L83.68 378.15L85.04 378.16L86.40 378.16L87.76 378.17L89.12 378.18L90.48 378.18L91.84 378.19L93.20 378.20L94.56 378.20L95.92 378.20L97.28 378.21L98.64 378.21L100.00 378.21L101.36 378.22L102.72 378.22L104.08 378.22L105.44 378.22L106.80 378.22L108.16 378.22L109.52 378.22L110.88 378.22L112.24 378.22L113.60 378.22L114.96 378.22L116.32 378.22L117.68 378.22L119.04 378.22L120.40 378.22L121.76 378.22L123.12 378.22L124.48 378.22L125.84 378.22L127.20 378.22L128.56 378.21L129.92 378.21L131.28 378.21L132.64 378.21L134.00 378.21L135.36 378.21L136.72 378.20L138.08 378.20L139.44 378.20L140.80 378.20L142.16 378.20L143.52 378.20L144.88 378.19L146.24 378.19L147.60 378.19L148.96 378.19L150.32 378.18L151.68 378.18L153.04 378.18L154.40 378.18L155.76 378.18L157.12 378.17L158.48 378.17L159.84 378.17L161.20 378.17L162.56 378.17L163.92 378.16L165.28 378.16L166.64 378.16L168.00 378.16L169.36 378.16L170.72 378.15L172.08 378.15L173.44 378.15L174.80 378.15L176.16 378.15L177.52 378.14L178.88 378.14L180.24 378.14L181.60 378.14L182.96 378.14L184.32 378.14L185.68 378.13L187.04 378.13L188.40 378.13L189.76 378.13L191.12 378.13L192.48 378.12L193.84 378.12L195.20 378.12L196.56 378.12L197.92 378.12L199.28 378.12L200.64 378.11L202.00 378.11L203.36 378.11L204.72 378.11L206.08 378.11L207.44 378.11L208.80 378.11L210.16 378.10L211.52 378.10L212.88 378.10L214.24 378.10L215.60 378.10L216.96 378.10L218.32 378.10L219.68 378.09L221.04 378.09L222.40 378.09L223.76 378.09L225.12 378.09L226.48 378.09L227.84 378.09L229.20 378.08L230.56 378.08L231.92 378.08L233.28 378.08L234.64 378.08L236.00 378.08L237.36 378.08L238.72 378.08L240.08 378.08L241.44 378.07L242.80 378.07L244.16 378.07L245.52 378.07L246.88 378.07L248.24 378.07L249.60 378.07L250.96 378.07L252.32 378.07L253.68 378.07L255.04 378.06L256.40 378.06L257.76 378.06L259.12 378.06L260.48 378.06L261.84 378.06L263.20 378.06L264.56 378.06L265.92 378.06L267.28 378.06L268.64 378.06L270.00 378.05L271.36 378.05L272.72 378.05L274.08 378.05L275.44 378.05L276.80 378.05L278.16 378.05L279.52 378.05L280.88 378.05L282.24 378.05L283.60 378.05L284.96 378.05L286.32 378.05L287.68 378.04L289.04 378.04L290.40 378.04L291.76 378.04L293.12 378.04L294.48 378.04L295.84 378.04L297.20 378.04L298.56 378.04L299.92 378.04L301.28 378.04L302.64 378.04L304.00 378.04L305.36 378.04L306.72 378.04L308.08 378.04L309.44 378.03L310.80 378.03L312.16 378.03L313.52 378.03L314.88 378.03L316.24 378.03L317.60 378.03L318.96 378.03L320.32 378.03L321.68 378.03L323.04 378.03L324.40 378.03L325.76 378.03L327.12 378.03L328.48 378.03L329.84 378.03L331.20 378.03L332.56 378.03L333.92 378.03L335.28 378.03L336.64 378.03L338.00 378.03L339.36 378.02L340.72 378.02L342.08 378.02L343.44 378.02L344.80 378.02L346.16 378.02L347.52 378.02L348.88 378.02L350.24 378.02L351.60 378.02L352.96 378.02L354.32 378.02L355.68 378.02L357.04 378.02L358.40 378.02L359.76 378.02L361.12 378.02L362.48 378.02L363.84 378.02L365.20 378.02L366.56 378.02L367.92 378.02L369.28 378.02L370.64 378.02L372.00 378.02L373.36 378.02L374.72 378.02L376.08 378.02L377.44 378.02L378.80 378.02L380.16 378.02L381.52 378.02L382.88 378.02L384.24 378.02L385.60 378.02L386.96 378.02L388.32 378.02L389.68 378.02L391.04 378.02L392.40 378.02L393.76 378.02L395.12 378.02L396.48 378.02L397.84 378.02L399.20 378.02L400.56 378.02L401.92 378.02L403.28 378.02L404.64 378.02L406.00 378.01L407.36 378.01L408.72 378.01L410.08 378.01L411.44 378.01L412.80 378.01L414.16 378.01L415.52 378.01L416.88 378.01L418.24 378.01L419.60 378.01L420.96 378.01L422.32 378.01L423.68 378.01L425.04 378.01L426.40 378.01L427.76 378.01L429.12 378.01L430.48 378.01L431.84 378.01L433.20 378.01L434.56 378.01L435.92 378.02L437.28 378.02L438.64 378.02L440.00 378.02L441.36 378.02L442.72 378.02L444.08 378.02L445.44 378.02L446.80 378.02L448.16 378.02L449.52 378.02L450.88 378.02L452.24 378.02L453.60 378.02L454.96 378.02L456.32 378.02L457.68 378.02L459.04 378.02L460.40 378.02L461.76 378.02L463.12 378.02L464.48 378.02L465.84 378.02L467.20 378.02L468.56 378.02L469.92 378.02L471.28 378.02L472.64 378.02L474.00 378.02L475.36 378.02L476.72 378.02L478.08 378.02L479.44 378.02L480.80 378.02L482.16 378.02L483.52 378.02L484.88 378.02L486.24 378.02L487.60 378.02L488.96 378.02L490.32 378.02L491.68 378.02L493.04 378.02L494.40 378.02L495.76 378.02L497.12 378.02L498.48 378.02L499.84 378.02L501.20 378.02L502.56 378.02L503.92 378.02L505.28 378.02L506.64 378.02L508.00 378.02L509.36 378.02L510.72 378.02L512.08 378.02L513.44 378.02L514.80 378.03L516.16 378.03L517.52 378.03L518.88 378.03L520.24 378.03L521.60 378.03L522.96 378.03L524.32 378.03L525.68 378.03L527.04 378.03L528.40 378.03L529.76 378.03L531.12 378.03L532.48 378.03L533.84 378.03L535.20 378.03L536.56 378.03L537.92 378.03L539.28 378.03L540.64 378.03L542.00 378.03L543.36 378.03L544.72 378.03L546.08 378.03L547.44 378.03L548.80 378.03L550.16 378.03L551.52 378.03L552.88 378.03L554.24 378.03L555.60 378.04L556.96 378.04L558.32 378.04L559.68 378.04L561.04 378.04L562.40 378.04L563.76 378.04L565.12 378.04L566.48 378.04L567.84 378.04L569.20 378.04L570.56 378.04L571.92 378.04L573.28 378.04L574.64 378.04L576.00 378.04L577.36 378.04L578.72 378.04L580.08 378.04L581.44 378.04L582.80 378.04L584.16 378.04L585.52 378.04L586.88 378.05L588.24 378.05L589.60 378.05L590.96 378.05L592.32 378.05L593.68 378.05L595.04 378.05L596.40 378.05L597.76 378.05L599.12 378.05L600.48 378.05L601.84 378.05L603.20 378.05L604.56 378.05L605.92 378.05L607.28 378.05L608.64 378.05L610.00 378.05" fill="none" stroke="#ea580c" stroke-width="1.5"/>
<line x1="622" y1="378" x2="644" y2="378" stroke="#ea580c" stroke-width="1.5"/>
<text x="650" y="382" font-size="11" fill="#3f3f46">GHLOW2 − PDE</text>
<text x="338" y="592" text-anchor="middle" font-size="11" fill="#52525b">log-moneyness k</text>
<text transform="translate(18 444) rotate(-90)" text-anchor="middle" font-size="11" fill="#52525b">error (bps)</text>
<text x="380" y="620" text-anchor="middle" font-weight="600" font-size="14">Error vs PDE — BBF0 excluded (PHL1 vs GHLOW2)</text>
<line x1="66" y1="854" x2="610" y2="854" stroke="#ececf0"/>
<text x="58" y="858" text-anchor="end" font-size="11" fill="#52525b">-3</text>
<line x1="66" y1="799" x2="610" y2="799" stroke="#ececf0"/>
<text x="58" y="803" text-anchor="end" font-size="11" fill="#52525b">-2</text>
<line x1="66" y1="744" x2="610" y2="744" stroke="#ececf0"/>
<text x="58" y="748" text-anchor="end" font-size="11" fill="#52525b">-1</text>
<line x1="66" y1="689" x2="610" y2="689" stroke="#a1a1aa"/>
<text x="58" y="693" text-anchor="end" font-size="11" fill="#52525b">0</text>
<line x1="66" y1="634" x2="610" y2="634" stroke="#ececf0"/>
<text x="58" y="638" text-anchor="end" font-size="11" fill="#52525b">1</text>
<line x1="145.52283220045922" y1="634" x2="145.52283220045922" y2="854" stroke="#ececf0"/>
<text x="145.52283220045922" y="870" text-anchor="middle" font-size="11" fill="#52525b">-0.05</text>
<line x1="358.92307692307696" y1="634" x2="358.92307692307696" y2="854" stroke="#ececf0"/>
<text x="358.92307692307696" y="870" text-anchor="middle" font-size="11" fill="#52525b">0.00</text>
<line x1="572.3233216456947" y1="634" x2="572.3233216456947" y2="854" stroke="#ececf0"/>
<text x="572.3233216456947" y="870" text-anchor="middle" font-size="11" fill="#52525b">0.05</text>
<line x1="66" y1="689" x2="610" y2="689" stroke="#71717a"/>
<path d="M66.00 795.71L67.36 795.37L68.72 794.99L70.08 794.58L71.44 794.15L72.80 793.70L74.16 793.22L75.52 792.73L76.88 792.21L78.24 791.67L79.60 791.12L80.96 790.55L82.32 789.97L83.68 789.37L85.04 788.76L86.40 788.13L87.76 787.50L89.12 786.86L90.48 786.20L91.84 785.54L93.20 784.87L94.56 784.20L95.92 783.52L97.28 782.83L98.64 782.14L100.00 781.44L101.36 780.74L102.72 780.04L104.08 779.33L105.44 778.62L106.80 777.91L108.16 777.20L109.52 776.49L110.88 775.78L112.24 775.07L113.60 774.35L114.96 773.64L116.32 772.93L117.68 772.22L119.04 771.51L120.40 770.80L121.76 770.10L123.12 769.40L124.48 768.70L125.84 768.00L127.20 767.30L128.56 766.61L129.92 765.92L131.28 765.23L132.64 764.55L134.00 763.87L135.36 763.19L136.72 762.52L138.08 761.85L139.44 761.18L140.80 760.52L142.16 759.86L143.52 759.21L144.88 758.56L146.24 757.91L147.60 757.27L148.96 756.63L150.32 756.00L151.68 755.37L153.04 754.75L154.40 754.13L155.76 753.51L157.12 752.90L158.48 752.30L159.84 751.69L161.20 751.10L162.56 750.50L163.92 749.91L165.28 749.33L166.64 748.75L168.00 748.17L169.36 747.60L170.72 747.04L172.08 746.47L173.44 745.92L174.80 745.36L176.16 744.81L177.52 744.27L178.88 743.73L180.24 743.19L181.60 742.66L182.96 742.13L184.32 741.61L185.68 741.09L187.04 740.58L188.40 740.07L189.76 739.56L191.12 739.06L192.48 738.56L193.84 738.07L195.20 737.58L196.56 737.10L197.92 736.62L199.28 736.14L200.64 735.67L202.00 735.20L203.36 734.73L204.72 734.27L206.08 733.81L207.44 733.36L208.80 732.91L210.16 732.47L211.52 732.03L212.88 731.59L214.24 731.15L215.60 730.72L216.96 730.30L218.32 729.87L219.68 729.45L221.04 729.04L222.40 728.63L223.76 728.22L225.12 727.81L226.48 727.41L227.84 727.01L229.20 726.62L230.56 726.23L231.92 725.84L233.28 725.46L234.64 725.07L236.00 724.70L237.36 724.32L238.72 723.95L240.08 723.58L241.44 723.22L242.80 722.86L244.16 722.50L245.52 722.14L246.88 721.79L248.24 721.44L249.60 721.10L250.96 720.76L252.32 720.42L253.68 720.08L255.04 719.75L256.40 719.41L257.76 719.09L259.12 718.76L260.48 718.44L261.84 718.12L263.20 717.81L264.56 717.49L265.92 717.18L267.28 716.87L268.64 716.57L270.00 716.27L271.36 715.97L272.72 715.67L274.08 715.38L275.44 715.08L276.80 714.79L278.16 714.51L279.52 714.22L280.88 713.94L282.24 713.67L283.60 713.39L284.96 713.12L286.32 712.84L287.68 712.58L289.04 712.31L290.40 712.05L291.76 711.78L293.12 711.53L294.48 711.27L295.84 711.01L297.20 710.76L298.56 710.51L299.92 710.27L301.28 710.02L302.64 709.78L304.00 709.54L305.36 709.30L306.72 709.06L308.08 708.83L309.44 708.60L310.80 708.37L312.16 708.14L313.52 707.92L314.88 707.69L316.24 707.47L317.60 707.25L318.96 707.04L320.32 706.82L321.68 706.61L323.04 706.40L324.40 706.19L325.76 705.98L327.12 705.78L328.48 705.57L329.84 705.37L331.20 705.17L332.56 704.98L333.92 704.78L335.28 704.59L336.64 704.40L338.00 704.21L339.36 704.02L340.72 703.84L342.08 703.65L343.44 703.47L344.80 703.29L346.16 703.11L347.52 702.93L348.88 702.76L350.24 702.58L351.60 702.41L352.96 702.24L354.32 702.08L355.68 701.91L357.04 701.74L358.40 701.58L359.76 701.42L361.12 701.26L362.48 701.10L363.84 700.95L365.20 700.79L366.56 700.64L367.92 700.49L369.28 700.34L370.64 700.19L372.00 700.04L373.36 699.90L374.72 699.75L376.08 699.61L377.44 699.47L378.80 699.33L380.16 699.19L381.52 699.06L382.88 698.92L384.24 698.79L385.60 698.66L386.96 698.53L388.32 698.40L389.68 698.27L391.04 698.14L392.40 698.02L393.76 697.90L395.12 697.78L396.48 697.66L397.84 697.54L399.20 697.42L400.56 697.30L401.92 697.19L403.28 697.08L404.64 696.96L406.00 696.85L407.36 696.74L408.72 696.64L410.08 696.53L411.44 696.43L412.80 696.32L414.16 696.22L415.52 696.12L416.88 696.02L418.24 695.92L419.60 695.82L420.96 695.73L422.32 695.63L423.68 695.54L425.04 695.45L426.40 695.36L427.76 695.27L429.12 695.18L430.48 695.09L431.84 695.01L433.20 694.92L434.56 694.84L435.92 694.76L437.28 694.67L438.64 694.60L440.00 694.52L441.36 694.44L442.72 694.36L444.08 694.29L445.44 694.22L446.80 694.14L448.16 694.07L449.52 694.00L450.88 693.93L452.24 693.87L453.60 693.80L454.96 693.73L456.32 693.67L457.68 693.61L459.04 693.54L460.40 693.48L461.76 693.42L463.12 693.37L464.48 693.31L465.84 693.25L467.20 693.20L468.56 693.14L469.92 693.09L471.28 693.04L472.64 692.99L474.00 692.94L475.36 692.89L476.72 692.85L478.08 692.80L479.44 692.75L480.80 692.71L482.16 692.67L483.52 692.63L484.88 692.59L486.24 692.55L487.60 692.51L488.96 692.47L490.32 692.44L491.68 692.40L493.04 692.37L494.40 692.33L495.76 692.30L497.12 692.27L498.48 692.24L499.84 692.21L501.20 692.19L502.56 692.16L503.92 692.14L505.28 692.11L506.64 692.09L508.00 692.07L509.36 692.05L510.72 692.03L512.08 692.01L513.44 691.99L514.80 691.97L516.16 691.96L517.52 691.94L518.88 691.93L520.24 691.92L521.60 691.90L522.96 691.89L524.32 691.88L525.68 691.88L527.04 691.87L528.40 691.86L529.76 691.86L531.12 691.85L532.48 691.85L533.84 691.85L535.20 691.85L536.56 691.85L537.92 691.85L539.28 691.85L540.64 691.85L542.00 691.86L543.36 691.86L544.72 691.87L546.08 691.88L547.44 691.88L548.80 691.89L550.16 691.90L551.52 691.92L552.88 691.93L554.24 691.94L555.60 691.96L556.96 691.97L558.32 691.99L559.68 692.00L561.04 692.02L562.40 692.04L563.76 692.06L565.12 692.08L566.48 692.11L567.84 692.13L569.20 692.16L570.56 692.18L571.92 692.21L573.28 692.23L574.64 692.26L576.00 692.29L577.36 692.32L578.72 692.36L580.08 692.39L581.44 692.42L582.80 692.46L584.16 692.49L585.52 692.53L586.88 692.57L588.24 692.60L589.60 692.64L590.96 692.68L592.32 692.73L593.68 692.77L595.04 692.81L596.40 692.86L597.76 692.90L599.12 692.95L600.48 693.00L601.84 693.05L603.20 693.10L604.56 693.15L605.92 693.20L607.28 693.25L608.64 693.30L610.00 693.36" fill="none" stroke="#2563eb" stroke-width="1.5"/>
<line x1="622" y1="644" x2="644" y2="644" stroke="#2563eb" stroke-width="1.5"/>
<text x="650" y="648" font-size="11" fill="#3f3f46">PHL1 − PDE</text>
<path d="M66.00 687.71L67.36 688.27L68.72 688.79L70.08 689.28L71.44 689.74L72.80 690.17L74.16 690.57L75.52 690.95L76.88 691.29L78.24 691.62L79.60 691.92L80.96 692.20L82.32 692.45L83.68 692.69L85.04 692.91L86.40 693.11L87.76 693.29L89.12 693.46L90.48 693.61L91.84 693.75L93.20 693.88L94.56 693.99L95.92 694.10L97.28 694.19L98.64 694.27L100.00 694.34L101.36 694.40L102.72 694.45L104.08 694.50L105.44 694.53L106.80 694.56L108.16 694.58L109.52 694.60L110.88 694.61L112.24 694.62L113.60 694.62L114.96 694.61L116.32 694.61L117.68 694.59L119.04 694.58L120.40 694.56L121.76 694.53L123.12 694.51L124.48 694.48L125.84 694.44L127.20 694.41L128.56 694.37L129.92 694.34L131.28 694.30L132.64 694.25L134.00 694.21L135.36 694.17L136.72 694.12L138.08 694.07L139.44 694.03L140.80 693.98L142.16 693.93L143.52 693.88L144.88 693.83L146.24 693.78L147.60 693.73L148.96 693.68L150.32 693.62L151.68 693.57L153.04 693.52L154.40 693.47L155.76 693.42L157.12 693.36L158.48 693.31L159.84 693.26L161.20 693.21L162.56 693.16L163.92 693.11L165.28 693.05L166.64 693.00L168.00 692.95L169.36 692.90L170.72 692.85L172.08 692.80L173.44 692.75L174.80 692.71L176.16 692.66L177.52 692.61L178.88 692.56L180.24 692.51L181.60 692.47L182.96 692.42L184.32 692.38L185.68 692.33L187.04 692.29L188.40 692.24L189.76 692.20L191.12 692.15L192.48 692.11L193.84 692.07L195.20 692.03L196.56 691.98L197.92 691.94L199.28 691.90L200.64 691.86L202.00 691.82L203.36 691.78L204.72 691.74L206.08 691.71L207.44 691.67L208.80 691.63L210.16 691.59L211.52 691.56L212.88 691.52L214.24 691.49L215.60 691.45L216.96 691.42L218.32 691.38L219.68 691.35L221.04 691.31L222.40 691.28L223.76 691.25L225.12 691.22L226.48 691.18L227.84 691.15L229.20 691.12L230.56 691.09L231.92 691.06L233.28 691.03L234.64 691.00L236.00 690.97L237.36 690.94L238.72 690.91L240.08 690.89L241.44 690.86L242.80 690.83L244.16 690.80L245.52 690.78L246.88 690.75L248.24 690.73L249.60 690.70L250.96 690.67L252.32 690.65L253.68 690.63L255.04 690.60L256.40 690.58L257.76 690.55L259.12 690.53L260.48 690.51L261.84 690.48L263.20 690.46L264.56 690.44L265.92 690.42L267.28 690.40L268.64 690.38L270.00 690.35L271.36 690.33L272.72 690.31L274.08 690.29L275.44 690.27L276.80 690.25L278.16 690.24L279.52 690.22L280.88 690.20L282.24 690.18L283.60 690.16L284.96 690.14L286.32 690.13L287.68 690.11L289.04 690.09L290.40 690.07L291.76 690.06L293.12 690.04L294.48 690.03L295.84 690.01L297.20 689.99L298.56 689.98L299.92 689.96L301.28 689.95L302.64 689.93L304.00 689.92L305.36 689.90L306.72 689.89L308.08 689.88L309.44 689.86L310.80 689.85L312.16 689.84L313.52 689.82L314.88 689.81L316.24 689.80L317.60 689.79L318.96 689.77L320.32 689.76L321.68 689.75L323.04 689.74L324.40 689.73L325.76 689.72L327.12 689.71L328.48 689.70L329.84 689.69L331.20 689.68L332.56 689.67L333.92 689.66L335.28 689.65L336.64 689.64L338.00 689.63L339.36 689.62L340.72 689.61L342.08 689.60L343.44 689.59L344.80 689.58L346.16 689.57L347.52 689.57L348.88 689.56L350.24 689.55L351.60 689.54L352.96 689.54L354.32 689.53L355.68 689.52L357.04 689.52L358.40 689.51L359.76 689.50L361.12 689.50L362.48 689.49L363.84 689.48L365.20 689.48L366.56 689.47L367.92 689.47L369.28 689.46L370.64 689.46L372.00 689.45L373.36 689.45L374.72 689.44L376.08 689.44L377.44 689.43L378.80 689.43L380.16 689.42L381.52 689.42L382.88 689.42L384.24 689.41L385.60 689.41L386.96 689.41L388.32 689.40L389.68 689.40L391.04 689.40L392.40 689.39L393.76 689.39L395.12 689.39L396.48 689.39L397.84 689.38L399.20 689.38L400.56 689.38L401.92 689.38L403.28 689.38L404.64 689.38L406.00 689.37L407.36 689.37L408.72 689.37L410.08 689.37L411.44 689.37L412.80 689.37L414.16 689.37L415.52 689.37L416.88 689.37L418.24 689.37L419.60 689.37L420.96 689.37L422.32 689.37L423.68 689.37L425.04 689.37L426.40 689.37L427.76 689.37L429.12 689.37L430.48 689.37L431.84 689.37L433.20 689.37L434.56 689.37L435.92 689.38L437.28 689.38L438.64 689.38L440.00 689.38L441.36 689.38L442.72 689.38L444.08 689.39L445.44 689.39L446.80 689.39L448.16 689.39L449.52 689.39L450.88 689.40L452.24 689.40L453.60 689.40L454.96 689.41L456.32 689.41L457.68 689.41L459.04 689.41L460.40 689.42L461.76 689.42L463.12 689.42L464.48 689.43L465.84 689.43L467.20 689.44L468.56 689.44L469.92 689.44L471.28 689.45L472.64 689.45L474.00 689.46L475.36 689.46L476.72 689.46L478.08 689.47L479.44 689.47L480.80 689.48L482.16 689.48L483.52 689.49L484.88 689.49L486.24 689.50L487.60 689.50L488.96 689.51L490.32 689.51L491.68 689.52L493.04 689.53L494.40 689.53L495.76 689.54L497.12 689.54L498.48 689.55L499.84 689.56L501.20 689.56L502.56 689.57L503.92 689.57L505.28 689.58L506.64 689.59L508.00 689.59L509.36 689.60L510.72 689.61L512.08 689.61L513.44 689.62L514.80 689.63L516.16 689.63L517.52 689.64L518.88 689.65L520.24 689.66L521.60 689.66L522.96 689.67L524.32 689.68L525.68 689.69L527.04 689.69L528.40 689.70L529.76 689.71L531.12 689.72L532.48 689.73L533.84 689.74L535.20 689.74L536.56 689.75L537.92 689.76L539.28 689.77L540.64 689.78L542.00 689.79L543.36 689.80L544.72 689.80L546.08 689.81L547.44 689.82L548.80 689.83L550.16 689.84L551.52 689.85L552.88 689.86L554.24 689.87L555.60 689.88L556.96 689.89L558.32 689.90L559.68 689.91L561.04 689.92L562.40 689.93L563.76 689.94L565.12 689.95L566.48 689.96L567.84 689.97L569.20 689.98L570.56 689.99L571.92 690.00L573.28 690.01L574.64 690.02L576.00 690.03L577.36 690.04L578.72 690.06L580.08 690.07L581.44 690.08L582.80 690.09L584.16 690.10L585.52 690.11L586.88 690.13L588.24 690.14L589.60 690.15L590.96 690.16L592.32 690.17L593.68 690.19L595.04 690.20L596.40 690.21L597.76 690.22L599.12 690.24L600.48 690.25L601.84 690.26L603.20 690.28L604.56 690.29L605.92 690.30L607.28 690.32L608.64 690.33L610.00 690.34" fill="none" stroke="#ea580c" stroke-width="1.5"/>
<line x1="622" y1="661" x2="644" y2="661" stroke="#ea580c" stroke-width="1.5"/>
<text x="650" y="665" font-size="11" fill="#3f3f46">GHLOW2 − PDE</text>
<text x="338" y="892" text-anchor="middle" font-size="11" fill="#52525b">log-moneyness k</text>
<text transform="translate(18 744) rotate(-90)" text-anchor="middle" font-size="11" fill="#52525b">error (bps)</text>
</svg>
