<svg xmlns="http://www.w3.org/2000/svg" width="760" height="300" viewBox="0 0 760 300" font-family="DejaVu Sans, sans-serif"><rect width="760" height="300" fill="#ffffff"/>
<text x="380" y="20" text-anchor="middle" font-weight="600" font-size="14">ATM-knot IV corrections R_n</text>
<line x1="66" y1="254" x2="610" y2="254" stroke="#ececf0"/>
<text x="58" y="258" text-anchor="end" font-size="11" fill="#52525b">-0.01</text>
<line x1="66" y1="210" x2="610" y2="210" stroke="#a1a1aa"/>
<text x="58" y="214" text-anchor="end" font-size="11" fill="#52525b">0.00</text>
<line x1="66" y1="166" x2="610" y2="166" stroke="#ececf0"/>
<text x="58" y="170" text-anchor="end" font-size="11" fill="#52525b">0.01</text>
<line x1="66" y1="122" x2="610" y2="122" stroke="#ececf0"/>
<text x="58" y="126" text-anchor="end" font-size="11" fill="#52525b">0.02</text>
<line x1="66" y1="78.00000000000003" x2="610" y2="78.00000000000003" stroke="#ececf0"/>
<text x="58" y="82.00000000000003" text-anchor="end" font-size="11" fill="#52525b">0.03</text>
<line x1="66" y1="34" x2="610" y2="34" stroke="#ececf0"/>
<text x="58" y="38" text-anchor="end" font-size="11" fill="#52525b">0.04</text>
<line x1="145.52283220045922" y1="34" x2="145.52283220045922" y2="254" stroke="#ececf0"/>
<text x="145.52283220045922" y="270" text-anchor="middle" font-size="11" fill="#52525b">-0.05</text>
<line x1="358.92307692307696" y1="34" x2="358.92307692307696" y2="254" stroke="#ececf0"/>
<text x="358.92307692307696" y="270" text-anchor="middle" font-size="11" fill="#52525b">0.00</text>
<line x1="572.3233216456947" y1="34" x2="572.3233216456947" y2="254" stroke="#ececf0"/>
<text x="572.3233216456947" y="270" text-anchor="middle" font-size="11" fill="#52525b">0.05</text>
<line x1="66" y1="210" x2="610" y2="210" stroke="#71717a"/>
<line x1="358.92307692307696" y1="34" x2="358.92307692307696" y2="254" stroke="#ef4444" stroke-dasharray="3 3"/>
<path d="M66.00 209.31L67.36 209.30L68.72 209.29L70.08 209.28L71.44 209.27L72.80 209.25L74.16 209.24L75.52 209.23L76.88 209.21L78.24 209.20L79.60 209.18L80.96 209.17L82.32 209.16L83.68 209.14L85.04 209.12L86.40 209.11L87.76 209.09L89.12 209.08L90.48 209.06L91.84 209.04L93.20 209.02L94.56 209.01L95.92 208.99L97.28 208.97L98.64 208.95L100.00 208.93L101.36 208.91L102.72 208.89L104.08 208.87L105.44 208.85L106.80 208.83L108.16 208.80L109.52 208.78L110.88 208.76L112.24 208.74L113.60 208.71L114.96 208.69L116.32 208.66L117.68 208.63L119.04 208.61L120.40 208.58L121.76 208.55L123.12 208.53L124.48 208.50L125.84 208.47L127.20 208.44L128.56 208.41L129.92 208.37L131.28 208.34L132.64 208.31L134.00 208.28L135.36 208.24L136.72 208.21L138.08 208.17L139.44 208.13L140.80 208.09L142.16 208.05L143.52 208.02L144.88 207.97L146.24 207.93L147.60 207.89L148.96 207.85L150.32 207.80L151.68 207.76L153.04 207.71L154.40 207.66L155.76 207.61L157.12 207.56L158.48 207.51L159.84 207.46L161.20 207.40L162.56 207.35L163.92 207.29L165.28 207.23L166.64 207.17L168.00 207.11L169.36 207.05L170.72 206.98L172.08 206.92L173.44 206.85L174.80 206.78L176.16 206.71L177.52 206.64L178.88 206.56L180.24 206.49L181.60 206.41L182.96 206.33L184.32 206.25L185.68 206.16L187.04 206.07L188.40 205.99L189.76 205.89L191.12 205.80L192.48 205.70L193.84 205.61L195.20 205.50L196.56 205.40L197.92 205.29L199.28 205.18L200.64 205.07L202.00 204.96L203.36 204.84L204.72 204.72L206.08 204.59L207.44 204.46L208.80 204.33L210.16 204.20L211.52 204.06L212.88 203.91L214.24 203.77L215.60 203.61L216.96 203.46L218.32 203.30L219.68 203.14L221.04 202.97L222.40 202.79L223.76 202.62L225.12 202.43L226.48 202.25L227.84 202.05L229.20 201.85L230.56 201.65L231.92 201.44L233.28 201.22L234.64 201.00L236.00 200.77L237.36 200.53L238.72 200.29L240.08 200.04L241.44 199.78L242.80 199.52L244.16 199.25L245.52 198.97L246.88 198.68L248.24 198.38L249.60 198.07L250.96 197.76L252.32 197.43L253.68 197.10L255.04 196.75L256.40 196.40L257.76 196.03L259.12 195.66L260.48 195.27L261.84 194.87L263.20 194.45L264.56 194.03L265.92 193.59L267.28 193.14L268.64 192.67L270.00 192.19L271.36 191.69L272.72 191.18L274.08 190.65L275.44 190.11L276.80 189.55L278.16 188.97L279.52 188.37L280.88 187.75L282.24 187.11L283.60 186.46L284.96 185.78L286.32 185.08L287.68 184.35L289.04 183.60L290.40 182.83L291.76 182.03L293.12 181.21L294.48 180.36L295.84 179.48L297.20 178.57L298.56 177.63L299.92 176.66L301.28 175.65L302.64 174.62L304.00 173.54L305.36 172.43L306.72 171.29L308.08 170.10L309.44 168.87L310.80 167.60L312.16 166.29L313.52 164.93L314.88 163.52L316.24 162.07L317.60 160.56L318.96 159.00L320.32 157.39L321.68 155.71L323.04 153.98L324.40 152.19L325.76 150.33L327.12 148.41L328.48 146.42L329.84 144.35L331.20 142.21L332.56 139.99L333.92 137.70L335.28 135.31L336.64 132.84L338.00 130.28L339.36 127.63L340.72 124.87L342.08 122.02L343.44 119.05L344.80 115.98L346.16 112.79L347.52 109.48L348.88 106.04L350.24 102.48L351.60 98.77L352.96 94.93L354.32 90.94L355.68 86.80L357.04 82.49L358.40 78.02L359.76 79.07L361.12 83.50L362.48 87.77L363.84 91.87L365.20 95.83L366.56 99.64L367.92 103.31L369.28 106.85L370.64 110.25L372.00 113.53L373.36 116.70L374.72 119.75L376.08 122.68L377.44 125.52L378.80 128.25L380.16 130.88L381.52 133.42L382.88 135.87L384.24 138.23L385.60 140.51L386.96 142.71L388.32 144.83L389.68 146.88L391.04 148.86L392.40 150.77L393.76 152.61L395.12 154.39L396.48 156.10L397.84 157.76L399.20 159.37L400.56 160.91L401.92 162.41L403.28 163.85L404.64 165.25L406.00 166.60L407.36 167.90L408.72 169.16L410.08 170.38L411.44 171.55L412.80 172.69L414.16 173.79L415.52 174.86L416.88 175.89L418.24 176.88L419.60 177.85L420.96 178.78L422.32 179.68L423.68 180.56L425.04 181.40L426.40 182.22L427.76 183.01L429.12 183.78L430.48 184.52L431.84 185.24L433.20 185.94L434.56 186.61L435.92 187.26L437.28 187.90L438.64 188.51L440.00 189.10L441.36 189.68L442.72 190.24L444.08 190.78L445.44 191.30L446.80 191.81L448.16 192.30L449.52 192.78L450.88 193.24L452.24 193.69L453.60 194.13L454.96 194.55L456.32 194.96L457.68 195.36L459.04 195.74L460.40 196.12L461.76 196.48L463.12 196.83L464.48 197.18L465.84 197.51L467.20 197.83L468.56 198.14L469.92 198.45L471.28 198.74L472.64 199.03L474.00 199.31L475.36 199.58L476.72 199.84L478.08 200.10L479.44 200.35L480.80 200.59L482.16 200.82L483.52 201.05L484.88 201.27L486.24 201.49L487.60 201.70L488.96 201.90L490.32 202.10L491.68 202.29L493.04 202.48L494.40 202.66L495.76 202.84L497.12 203.01L498.48 203.17L499.84 203.34L501.20 203.50L502.56 203.65L503.92 203.80L505.28 203.95L506.64 204.09L508.00 204.23L509.36 204.36L510.72 204.49L512.08 204.62L513.44 204.74L514.80 204.87L516.16 204.98L517.52 205.10L518.88 205.21L520.24 205.32L521.60 205.42L522.96 205.53L524.32 205.63L525.68 205.73L527.04 205.82L528.40 205.92L529.76 206.01L531.12 206.10L532.48 206.18L533.84 206.27L535.20 206.35L536.56 206.43L537.92 206.51L539.28 206.58L540.64 206.66L542.00 206.73L543.36 206.80L544.72 206.87L546.08 206.93L547.44 207.00L548.80 207.06L550.16 207.13L551.52 207.19L552.88 207.25L554.24 207.30L555.60 207.36L556.96 207.42L558.32 207.47L559.68 207.52L561.04 207.57L562.40 207.62L563.76 207.67L565.12 207.72L566.48 207.77L567.84 207.81L569.20 207.86L570.56 207.90L571.92 207.94L573.28 207.98L574.64 208.02L576.00 208.06L577.36 208.10L578.72 208.14L580.08 208.18L581.44 208.21L582.80 208.25L584.16 208.28L585.52 208.32L586.88 208.35L588.24 208.38L589.60 208.41L590.96 208.44L592.32 208.47L593.68 208.50L595.04 208.53L596.40 208.56L597.76 208.59L599.12 208.61L600.48 208.64L601.84 208.67L603.20 208.69L604.56 208.72L605.92 208.74L607.28 208.76L608.64 208.79L610.00 208.81" fill="none" stroke="#059669" stroke-width="1.8"/>
<line x1="622" y1="44" x2="644" y2="44" stroke="#059669" stroke-width="1.8"/>
<text x="650" y="48" font-size="11" fill="#3f3f46">R_1 = δ·σ³·K₁^dir</text>
<path d="M66.00 210.00L67.36 210.00L68.72 210.00L70.08 210.00L71.44 210.00L72.80 210.00L74.16 210.00L75.52 210.00L76.88 210.00L78.24 210.00L79.60 210.00L80.96 210.00L82.32 210.00L83.68 210.00L85.04 210.00L86.40 210.00L87.76 210.00L89.12 210.00L90.48 210.00L91.84 210.00L93.20 210.00L94.56 210.00L95.92 210.00L97.28 210.00L98.64 210.00L100.00 210.00L101.36 210.00L102.72 210.00L104.08 210.00L105.44 210.00L106.80 210.00L108.16 210.00L109.52 210.00L110.88 210.00L112.24 210.00L113.60 210.00L114.96 210.00L116.32 210.00L117.68 210.00L119.04 210.00L120.40 210.00L121.76 210.00L123.12 210.00L124.48 210.00L125.84 210.00L127.20 210.00L128.56 210.00L129.92 210.00L131.28 210.00L132.64 210.00L134.00 210.00L135.36 210.00L136.72 210.00L138.08 210.00L139.44 210.00L140.80 210.00L142.16 210.00L143.52 210.00L144.88 210.00L146.24 210.00L147.60 210.00L148.96 210.00L150.32 210.00L151.68 210.00L153.04 210.00L154.40 210.00L155.76 210.00L157.12 210.00L158.48 210.00L159.84 210.00L161.20 210.00L162.56 210.00L163.92 210.00L165.28 210.00L166.64 210.00L168.00 210.00L169.36 210.00L170.72 210.00L172.08 210.00L173.44 210.00L174.80 210.00L176.16 210.00L177.52 210.00L178.88 210.00L180.24 210.00L181.60 210.00L182.96 210.00L184.32 210.00L185.68 210.00L187.04 210.00L188.40 210.00L189.76 210.00L191.12 210.00L192.48 210.00L193.84 210.00L195.20 210.00L196.56 210.00L197.92 210.00L199.28 210.00L200.64 210.00L202.00 210.00L203.36 210.00L204.72 210.00L206.08 210.00L207.44 210.00L208.80 210.00L210.16 210.00L211.52 210.00L212.88 210.00L214.24 210.00L215.60 210.00L216.96 210.00L218.32 210.00L219.68 210.00L221.04 210.00L222.40 210.00L223.76 210.00L225.12 210.00L226.48 210.00L227.84 210.00L229.20 210.00L230.56 210.00L231.92 210.00L233.28 210.00L234.64 210.00L236.00 210.00L237.36 210.00L238.72 210.00L240.08 210.00L241.44 210.00L242.80 210.00L244.16 210.00L245.52 210.00L246.88 210.00L248.24 210.00L249.60 210.00L250.96 210.00L252.32 210.00L253.68 210.00L255.04 210.00L256.40 210.00L257.76 210.00L259.12 210.00L260.48 210.00L261.84 210.00L263.20 210.00L264.56 210.00L265.92 210.00L267.28 210.00L268.64 210.00L270.00 210.00L271.36 210.00L272.72 210.00L274.08 210.00L275.44 210.00L276.80 210.00L278.16 210.00L279.52 210.00L280.88 210.00L282.24 210.00L283.60 210.00L284.96 210.00L286.32 210.00L287.68 210.00L289.04 210.00L290.40 210.00L291.76 210.00L293.12 210.00L294.48 210.00L295.84 210.00L297.20 210.00L298.56 210.00L299.92 210.00L301.28 210.00L302.64 210.00L304.00 210.00L305.36 210.00L306.72 210.00L308.08 210.00L309.44 210.00L310.80 210.00L312.16 210.00L313.52 210.00L314.88 210.00L316.24 210.00L317.60 210.00L318.96 210.00L320.32 210.00L321.68 210.00L323.04 210.00L324.40 210.00L325.76 210.00L327.12 210.00L328.48 210.00L329.84 210.00L331.20 210.00L332.56 210.00L333.92 210.00L335.28 210.00L336.64 210.00L338.00 210.00L339.36 210.00L340.72 210.00L342.08 210.00L343.44 210.00L344.80 210.00L346.16 210.00L347.52 210.00L348.88 210.00L350.24 210.00L351.60 210.00L352.96 210.00L354.32 210.00L355.68 210.00L357.04 210.00L358.40 210.00L359.76 202.60L361.12 202.78L362.48 202.96L363.84 203.14L365.20 203.32L366.56 203.50L367.92 203.68L369.28 203.86L370.64 204.03L372.00 204.21L373.36 204.38L374.72 204.56L376.08 204.73L377.44 204.90L378.80 205.07L380.16 205.24L381.52 205.41L382.88 205.57L384.24 205.74L385.60 205.91L386.96 206.07L388.32 206.23L389.68 206.40L391.04 206.56L392.40 206.72L393.76 206.88L395.12 207.04L396.48 207.19L397.84 207.35L399.20 207.51L400.56 207.66L401.92 207.82L403.28 207.97L404.64 208.12L406.00 208.28L407.36 208.43L408.72 208.58L410.08 208.73L411.44 208.88L412.80 209.03L414.16 209.17L415.52 209.32L416.88 209.46L418.24 209.61L419.60 209.75L420.96 209.90L422.32 210.00L423.68 210.00L425.04 210.00L426.40 210.00L427.76 210.00L429.12 210.00L430.48 210.00L431.84 210.00L433.20 210.00L434.56 210.00L435.92 210.00L437.28 210.00L438.64 210.00L440.00 210.00L441.36 210.00L442.72 210.00L444.08 210.00L445.44 210.00L446.80 210.00L448.16 210.00L449.52 210.00L450.88 210.00L452.24 210.00L453.60 210.00L454.96 210.00L456.32 210.00L457.68 210.00L459.04 210.00L460.40 210.00L461.76 210.00L463.12 210.00L464.48 210.00L465.84 210.00L467.20 210.00L468.56 210.00L469.92 210.00L471.28 210.00L472.64 210.00L474.00 210.00L475.36 210.00L476.72 210.00L478.08 210.00L479.44 210.00L480.80 210.00L482.16 210.00L483.52 210.00L484.88 210.00L486.24 210.00L487.60 210.00L488.96 210.00L490.32 210.00L491.68 210.00L493.04 210.00L494.40 210.00L495.76 210.00L497.12 210.00L498.48 210.00L499.84 210.00L501.20 210.00L502.56 210.00L503.92 210.00L505.28 210.00L506.64 210.00L508.00 210.00L509.36 210.00L510.72 210.00L512.08 210.00L513.44 210.00L514.80 210.00L516.16 210.00L517.52 210.00L518.88 210.00L520.24 210.00L521.60 210.00L522.96 210.00L524.32 210.00L525.68 210.00L527.04 210.00L528.40 210.00L529.76 210.00L531.12 210.00L532.48 210.00L533.84 210.00L535.20 210.00L536.56 210.00L537.92 210.00L539.28 210.00L540.64 210.00L542.00 210.00L543.36 210.00L544.72 210.00L546.08 210.00L547.44 210.00L548.80 210.00L550.16 210.00L551.52 210.00L552.88 210.00L554.24 210.00L555.60 210.00L556.96 210.00L558.32 210.00L559.68 210.00L561.04 210.00L562.40 210.00L563.76 210.00L565.12 210.00L566.48 210.00L567.84 210.00L569.20 210.00L570.56 210.00L571.92 210.00L573.28 210.00L574.64 210.00L576.00 210.00L577.36 210.00L578.72 210.00L580.08 210.00L581.44 210.00L582.80 210.00L584.16 210.00L585.52 210.00L586.88 210.00L588.24 210.00L589.60 210.00L590.96 210.00L592.32 210.00L593.68 210.00L595.04 210.00L596.40 210.00L597.76 210.00L599.12 210.00L600.48 210.00L601.84 210.00L603.20 210.00L604.56 210.00L605.92 210.00L607.28 210.00L608.64 210.00L610.00 210.00" fill="none" stroke="#9333ea" stroke-width="1.8" stroke-dasharray="6 3"/>
<line x1="622" y1="61" x2="644" y2="61" stroke="#9333ea" stroke-width="1.8" stroke-dasharray="6 3"/>
<text x="650" y="65" font-size="11" fill="#3f3f46">R_2 − R_1</text>
<text x="338" y="292" text-anchor="middle" font-size="11" fill="#52525b">log-moneyness k</text>
<text transform="translate(18 144) rotate(-90)" text-anchor="middle" font-size="11" fill="#52525b">correction (annualised %)</text>
</svg>
