<svg xmlns="http://www.w3.org/2000/svg" width="760" height="900" viewBox="0 0 760 900" font-family="DejaVu Sans, sans-serif"><rect width="760" height="900" fill="#ffffff"/>
<text x="380" y="20" text-anchor="middle" font-weight="600" font-size="14">Concave case — SPXW 2025-03-10 DTE 3 (concave smile)</text>
<line x1="66" y1="254" x2="610" y2="254" stroke="#a1a1aa"/>
<text x="58" y="258" text-anchor="end" font-size="11" fill="#52525b">0</text>
<line x1="66" y1="199" x2="610" y2="199" stroke="#ececf0"/>
<text x="58" y="203" text-anchor="end" font-size="11" fill="#52525b">10</text>
<line x1="66" y1="144" x2="610" y2="144" stroke="#ececf0"/>
<text x="58" y="148" text-anchor="end" font-size="11" fill="#52525b">20</text>
<line x1="66" y1="89" x2="610" y2="89" stroke="#ececf0"/>
<text x="58" y="93" text-anchor="end" font-size="11" fill="#52525b">30</text>
<line x1="66" y1="34" x2="610" y2="34" stroke="#ececf0"/>
<text x="58" y="38" text-anchor="end" font-size="11" fill="#52525b">40</text>
<line x1="87.91123611626551" y1="34" x2="87.91123611626551" y2="254" stroke="#ececf0"/>
<text x="87.91123611626551" y="270" text-anchor="middle" font-size="11" fill="#52525b">-0.1</text>
<line x1="358.92307692307696" y1="34" x2="358.92307692307696" y2="254" stroke="#ececf0"/>
<text x="358.92307692307696" y="270" text-anchor="middle" font-size="11" fill="#52525b">0.0</text>
<path d="M66.00 148.11L67.36 147.02L68.72 145.96L70.08 144.94L71.44 143.94L72.80 142.98L74.16 142.04L75.52 141.13L76.88 140.24L78.24 139.37L79.60 138.53L80.96 137.71L82.32 136.91L83.68 136.12L85.04 135.36L86.40 134.61L87.76 133.88L89.12 133.16L90.48 132.46L91.84 131.78L93.20 131.11L94.56 130.45L95.92 129.80L97.28 129.17L98.64 128.55L100.00 127.94L101.36 127.35L102.72 126.76L104.08 126.19L105.44 125.62L106.80 125.07L108.16 124.52L109.52 123.99L110.88 123.46L112.24 122.95L113.60 122.44L114.96 121.94L116.32 121.45L117.68 120.97L119.04 120.50L120.40 120.03L121.76 119.57L123.12 119.12L124.48 118.68L125.84 118.24L127.20 117.82L128.56 117.39L129.92 116.98L131.28 116.57L132.64 116.17L134.00 115.77L135.36 115.38L136.72 115.00L138.08 114.62L139.44 114.25L140.80 113.88L142.16 113.53L143.52 113.17L144.88 112.82L146.24 112.48L147.60 112.14L148.96 111.81L150.32 111.48L151.68 111.16L153.04 110.84L154.40 110.53L155.76 110.22L157.12 109.92L158.48 109.62L159.84 109.33L161.20 109.04L162.56 108.76L163.92 108.48L165.28 108.20L166.64 107.93L168.00 107.66L169.36 107.40L170.72 107.14L172.08 106.89L173.44 106.64L174.80 106.40L176.16 106.15L177.52 105.92L178.88 105.68L180.24 105.45L181.60 105.23L182.96 105.01L184.32 104.79L185.68 104.57L187.04 104.36L188.40 104.16L189.76 103.95L191.12 103.75L192.48 103.56L193.84 103.36L195.20 103.17L196.56 102.99L197.92 102.81L199.28 102.63L200.64 102.45L202.00 102.28L203.36 102.11L204.72 101.94L206.08 101.78L207.44 101.62L208.80 101.47L210.16 101.31L211.52 101.16L212.88 101.02L214.24 100.87L215.60 100.73L216.96 100.60L218.32 100.46L219.68 100.33L221.04 100.20L222.40 100.08L223.76 99.96L225.12 99.84L226.48 99.72L227.84 99.61L229.20 99.50L230.56 99.39L231.92 99.28L233.28 99.18L234.64 99.08L236.00 98.98L237.36 98.89L238.72 98.80L240.08 98.71L241.44 98.63L242.80 98.54L244.16 98.46L245.52 98.39L246.88 98.31L248.24 98.24L249.60 98.17L250.96 98.10L252.32 98.04L253.68 97.98L255.04 97.92L256.40 97.86L257.76 97.81L259.12 97.76L260.48 97.71L261.84 97.66L263.20 97.62L264.56 97.58L265.92 97.54L267.28 97.50L268.64 97.47L270.00 97.44L271.36 97.41L272.72 97.38L274.08 97.36L275.44 97.34L276.80 97.32L278.16 97.30L279.52 97.29L280.88 97.28L282.24 97.27L283.60 97.26L284.96 97.25L286.32 97.25L287.68 97.25L289.04 97.26L290.40 97.26L291.76 97.27L293.12 97.28L294.48 97.29L295.84 97.31L297.20 97.32L298.56 97.34L299.92 97.36L301.28 97.39L302.64 97.41L304.00 97.44L305.36 97.47L306.72 97.51L308.08 97.54L309.44 97.58L310.80 97.62L312.16 97.66L313.52 97.71L314.88 97.75L316.24 97.80L317.60 97.86L318.96 97.91L320.32 97.97L321.68 98.02L323.04 98.08L324.40 98.15L325.76 98.21L327.12 98.28L328.48 98.35L329.84 98.42L331.20 98.50L332.56 98.57L333.92 98.65L335.28 98.73L336.64 98.82L338.00 98.90L339.36 98.99L340.72 99.08L342.08 99.17L343.44 99.27L344.80 99.37L346.16 99.47L347.52 99.57L348.88 99.67L350.24 99.78L351.60 99.89L352.96 100.00L354.32 100.11L355.68 100.23L357.04 100.34L358.40 100.46L359.76 100.59L361.12 100.71L362.48 100.84L363.84 100.97L365.20 101.10L366.56 101.23L367.92 101.37L369.28 101.51L370.64 101.65L372.00 101.79L373.36 101.94L374.72 102.08L376.08 102.23L377.44 102.39L378.80 102.54L380.16 102.70L381.52 102.86L382.88 103.02L384.24 103.19L385.60 103.35L386.96 103.52L388.32 103.69L389.68 103.87L391.04 104.04L392.40 104.22L393.76 104.40L395.12 104.59L396.48 104.77L397.84 104.96L399.20 105.15L400.56 105.34L401.92 105.54L403.28 105.74L404.64 105.94L406.00 106.14L407.36 106.35L408.72 106.56L410.08 106.77L411.44 106.98L412.80 107.20L414.16 107.41L415.52 107.64L416.88 107.86L418.24 108.09L419.60 108.31L420.96 108.55L422.32 108.78L423.68 109.02L425.04 109.26L426.40 109.50L427.76 109.74L429.12 109.99L430.48 110.24L431.84 110.49L433.20 110.75L434.56 111.01L435.92 111.27L437.28 111.53L438.64 111.80L440.00 112.07L441.36 112.34L442.72 112.62L444.08 112.89L445.44 113.17L446.80 113.46L448.16 113.75L449.52 114.04L450.88 114.33L452.24 114.62L453.60 114.92L454.96 115.23L456.32 115.53L457.68 115.84L459.04 116.15L460.40 116.47L461.76 116.78L463.12 117.10L464.48 117.43L465.84 117.76L467.20 118.09L468.56 118.42L469.92 118.76L471.28 119.10L472.64 119.44L474.00 119.79L475.36 120.14L476.72 120.50L478.08 120.86L479.44 121.22L480.80 121.58L482.16 121.95L483.52 122.32L484.88 122.70L486.24 123.08L487.60 123.47L488.96 123.85L490.32 124.25L491.68 124.64L493.04 125.04L494.40 125.45L495.76 125.86L497.12 126.27L498.48 126.69L499.84 127.11L501.20 127.53L502.56 127.96L503.92 128.40L505.28 128.83L506.64 129.28L508.00 129.73L509.36 130.18L510.72 130.64L512.08 131.10L513.44 131.57L514.80 132.04L516.16 132.52L517.52 133.00L518.88 133.49L520.24 133.98L521.60 134.48L522.96 134.99L524.32 135.50L525.68 136.02L527.04 136.54L528.40 137.07L529.76 137.60L531.12 138.14L532.48 138.69L533.84 139.24L535.20 139.80L536.56 140.37L537.92 140.95L539.28 141.53L540.64 142.12L542.00 142.71L543.36 143.32L544.72 143.93L546.08 144.55L547.44 145.18L548.80 145.82L550.16 146.46L551.52 147.12L552.88 147.78L554.24 148.46L555.60 149.14L556.96 149.84L558.32 150.54L559.68 151.26L561.04 151.99L562.40 152.73L563.76 153.48L565.12 154.24L566.48 155.02L567.84 155.81L569.20 156.61L570.56 157.43L571.92 158.27L573.28 159.12L574.64 159.99L576.00 160.87L577.36 161.78L578.72 162.70L580.08 163.65L581.44 164.62L582.80 165.61L584.16 166.62L585.52 167.66L586.88 168.73L588.24 169.83L589.60 170.97L590.96 172.14L592.32 173.34L593.68 174.59L595.04 175.88L596.40 177.23L597.76 178.63L599.12 180.09" fill="none" stroke="#18181b" stroke-width="2"/>
<line x1="622" y1="44" x2="644" y2="44" stroke="#18181b" stroke-width="2"/>
<text x="650" y="48" font-size="11" fill="#3f3f46">PDE (truth)</text>
<path d="M66.00 146.44L67.36 145.33L68.72 144.25L70.08 143.21L71.44 142.19L72.80 141.21L74.16 140.26L75.52 139.33L76.88 138.43L78.24 137.55L79.60 136.69L80.96 135.86L82.32 135.04L83.68 134.24L85.04 133.47L86.40 132.71L87.76 131.96L89.12 131.23L90.48 130.52L91.84 129.83L93.20 129.14L94.56 128.48L95.92 127.82L97.28 127.18L98.64 126.55L100.00 125.93L101.36 125.33L102.72 124.73L104.08 124.15L105.44 123.57L106.80 123.01L108.16 122.46L109.52 121.92L110.88 121.38L112.24 120.86L113.60 120.35L114.96 119.84L116.32 119.34L117.68 118.85L119.04 118.37L120.40 117.90L121.76 117.44L123.12 116.98L124.48 116.53L125.84 116.09L127.20 115.65L128.56 115.23L129.92 114.80L131.28 114.39L132.64 113.98L134.00 113.58L135.36 113.19L136.72 112.80L138.08 112.42L139.44 112.04L140.80 111.67L142.16 111.30L143.52 110.95L144.88 110.59L146.24 110.25L147.60 109.90L148.96 109.57L150.32 109.23L151.68 108.91L153.04 108.59L154.40 108.27L155.76 107.96L157.12 107.65L158.48 107.35L159.84 107.06L161.20 106.76L162.56 106.48L163.92 106.19L165.28 105.92L166.64 105.64L168.00 105.37L169.36 105.11L170.72 104.85L172.08 104.59L173.44 104.34L174.80 104.09L176.16 103.85L177.52 103.61L178.88 103.37L180.24 103.14L181.60 102.91L182.96 102.69L184.32 102.47L185.68 102.25L187.04 102.04L188.40 101.83L189.76 101.62L191.12 101.42L192.48 101.22L193.84 101.03L195.20 100.84L196.56 100.65L197.92 100.47L199.28 100.29L200.64 100.11L202.00 99.94L203.36 99.77L204.72 99.60L206.08 99.44L207.44 99.28L208.80 99.12L210.16 98.97L211.52 98.82L212.88 98.67L214.24 98.52L215.60 98.38L216.96 98.25L218.32 98.11L219.68 97.98L221.04 97.85L222.40 97.72L223.76 97.60L225.12 97.48L226.48 97.37L227.84 97.25L229.20 97.14L230.56 97.03L231.92 96.93L233.28 96.83L234.64 96.73L236.00 96.63L237.36 96.54L238.72 96.45L240.08 96.36L241.44 96.27L242.80 96.19L244.16 96.11L245.52 96.03L246.88 95.96L248.24 95.89L249.60 95.82L250.96 95.75L252.32 95.69L253.68 95.63L255.04 95.57L256.40 95.51L257.76 95.46L259.12 95.41L260.48 95.36L261.84 95.32L263.20 95.27L264.56 95.23L265.92 95.20L267.28 95.16L268.64 95.13L270.00 95.10L271.36 95.07L272.72 95.05L274.08 95.02L275.44 95.00L276.80 94.99L278.16 94.97L279.52 94.96L280.88 94.95L282.24 94.94L283.60 94.94L284.96 94.93L286.32 94.93L287.68 94.94L289.04 94.94L290.40 94.95L291.76 94.96L293.12 94.97L294.48 94.98L295.84 95.00L297.20 95.02L298.56 95.04L299.92 95.06L301.28 95.09L302.64 95.12L304.00 95.15L305.36 95.18L306.72 95.22L308.08 95.25L309.44 95.29L310.80 95.34L312.16 95.38L313.52 95.43L314.88 95.48L316.24 95.53L317.60 95.58L318.96 95.64L320.32 95.70L321.68 95.76L323.04 95.82L324.40 95.89L325.76 95.96L327.12 96.03L328.48 96.10L329.84 96.18L331.20 96.25L332.56 96.33L333.92 96.41L335.28 96.50L336.64 96.59L338.00 96.67L339.36 96.77L340.72 96.86L342.08 96.95L343.44 97.05L344.80 97.15L346.16 97.26L347.52 97.36L348.88 97.47L350.24 97.58L351.60 97.69L352.96 97.80L354.32 97.92L355.68 98.04L357.04 98.16L358.40 98.28L359.76 98.41L361.12 98.54L362.48 98.67L363.84 98.80L365.20 98.94L366.56 99.07L367.92 99.21L369.28 99.36L370.64 99.50L372.00 99.65L373.36 99.80L374.72 99.95L376.08 100.10L377.44 100.26L378.80 100.42L380.16 100.58L381.52 100.74L382.88 100.91L384.24 101.08L385.60 101.25L386.96 101.42L388.32 101.60L389.68 101.78L391.04 101.96L392.40 102.14L393.76 102.32L395.12 102.51L396.48 102.70L397.84 102.90L399.20 103.09L400.56 103.29L401.92 103.49L403.28 103.69L404.64 103.90L406.00 104.10L407.36 104.32L408.72 104.53L410.08 104.74L411.44 104.96L412.80 105.18L414.16 105.41L415.52 105.63L416.88 105.86L418.24 106.09L419.60 106.32L420.96 106.56L422.32 106.80L423.68 107.04L425.04 107.29L426.40 107.53L427.76 107.78L429.12 108.04L430.48 108.29L431.84 108.55L433.20 108.81L434.56 109.07L435.92 109.34L437.28 109.61L438.64 109.88L440.00 110.16L441.36 110.44L442.72 110.72L444.08 111.00L445.44 111.29L446.80 111.58L448.16 111.87L449.52 112.17L450.88 112.46L452.24 112.77L453.60 113.07L454.96 113.38L456.32 113.69L457.68 114.00L459.04 114.32L460.40 114.64L461.76 114.97L463.12 115.29L464.48 115.62L465.84 115.96L467.20 116.29L468.56 116.63L469.92 116.98L471.28 117.33L472.64 117.68L474.00 118.03L475.36 118.39L476.72 118.75L478.08 119.11L479.44 119.48L480.80 119.86L482.16 120.23L483.52 120.61L484.88 120.99L486.24 121.38L487.60 121.77L488.96 122.17L490.32 122.57L491.68 122.97L493.04 123.38L494.40 123.79L495.76 124.21L497.12 124.63L498.48 125.05L499.84 125.48L501.20 125.91L502.56 126.35L503.92 126.79L505.28 127.24L506.64 127.69L508.00 128.14L509.36 128.60L510.72 129.07L512.08 129.54L513.44 130.02L514.80 130.50L516.16 130.98L517.52 131.47L518.88 131.97L520.24 132.47L521.60 132.98L522.96 133.49L524.32 134.01L525.68 134.54L527.04 135.07L528.40 135.61L529.76 136.15L531.12 136.70L532.48 137.26L533.84 137.82L535.20 138.39L536.56 138.97L537.92 139.55L539.28 140.14L540.64 140.74L542.00 141.35L543.36 141.96L544.72 142.58L546.08 143.21L547.44 143.85L548.80 144.50L550.16 145.16L551.52 145.82L552.88 146.50L554.24 147.18L555.60 147.88L556.96 148.58L558.32 149.30L559.68 150.02L561.04 150.76L562.40 151.51L563.76 152.28L565.12 153.05L566.48 153.84L567.84 154.64L569.20 155.46L570.56 156.29L571.92 157.14L573.28 158.00L574.64 158.89L576.00 159.79L577.36 160.70L578.72 161.64L580.08 162.60L581.44 163.58L582.80 164.59L584.16 165.62L585.52 166.68L586.88 167.76L588.24 168.88L589.60 170.03L590.96 171.21L592.32 172.44L593.68 173.71L595.04 175.02L596.40 176.38L597.76 177.81L599.12 179.29L600.48 180.85L601.84 182.49L603.20 184.23L604.56 186.08L605.92 188.07L607.28 190.22L608.64 192.58L610.00 195.22" fill="none" stroke="#a1a1aa" stroke-width="1.5" stroke-dasharray="5 4"/>
<line x1="622" y1="61" x2="644" y2="61" stroke="#a1a1aa" stroke-width="1.5" stroke-dasharray="5 4"/>
<text x="650" y="65" font-size="11" fill="#3f3f46">BBF0</text>
<path d="M66.00 148.15L67.36 147.05L68.72 145.99L70.08 144.97L71.44 143.97L72.80 143.01L74.16 142.07L75.52 141.16L76.88 140.27L78.24 139.41L79.60 138.56L80.96 137.74L82.32 136.94L83.68 136.16L85.04 135.39L86.40 134.64L87.76 133.91L89.12 133.20L90.48 132.50L91.84 131.81L93.20 131.14L94.56 130.48L95.92 129.84L97.28 129.20L98.64 128.58L100.00 127.98L101.36 127.38L102.72 126.79L104.08 126.22L105.44 125.66L106.80 125.10L108.16 124.56L109.52 124.02L110.88 123.50L112.24 122.98L113.60 122.48L114.96 121.98L116.32 121.49L117.68 121.01L119.04 120.53L120.40 120.07L121.76 119.61L123.12 119.16L124.48 118.71L125.84 118.28L127.20 117.85L128.56 117.43L129.92 117.01L131.28 116.60L132.64 116.20L134.00 115.81L135.36 115.42L136.72 115.03L138.08 114.66L139.44 114.28L140.80 113.92L142.16 113.56L143.52 113.21L144.88 112.86L146.24 112.51L147.60 112.18L148.96 111.84L150.32 111.52L151.68 111.19L153.04 110.88L154.40 110.56L155.76 110.26L157.12 109.95L158.48 109.66L159.84 109.36L161.20 109.07L162.56 108.79L163.92 108.51L165.28 108.24L166.64 107.97L168.00 107.70L169.36 107.44L170.72 107.18L172.08 106.93L173.44 106.68L174.80 106.43L176.16 106.19L177.52 105.95L178.88 105.72L180.24 105.49L181.60 105.26L182.96 105.04L184.32 104.82L185.68 104.61L187.04 104.40L188.40 104.19L189.76 103.99L191.12 103.79L192.48 103.59L193.84 103.40L195.20 103.21L196.56 103.02L197.92 102.84L199.28 102.66L200.64 102.49L202.00 102.31L203.36 102.14L204.72 101.98L206.08 101.82L207.44 101.66L208.80 101.50L210.16 101.35L211.52 101.20L212.88 101.05L214.24 100.91L215.60 100.77L216.96 100.63L218.32 100.50L219.68 100.36L221.04 100.24L222.40 100.11L223.76 99.99L225.12 99.87L226.48 99.75L227.84 99.64L229.20 99.53L230.56 99.42L231.92 99.32L233.28 99.21L234.64 99.11L236.00 99.02L237.36 98.92L238.72 98.83L240.08 98.74L241.44 98.66L242.80 98.58L244.16 98.49L245.52 98.42L246.88 98.34L248.24 98.27L249.60 98.20L250.96 98.13L252.32 98.07L253.68 98.01L255.04 97.95L256.40 97.89L257.76 97.84L259.12 97.79L260.48 97.74L261.84 97.69L263.20 97.65L264.56 97.61L265.92 97.57L267.28 97.53L268.64 97.50L270.00 97.47L271.36 97.44L272.72 97.41L274.08 97.39L275.44 97.37L276.80 97.35L278.16 97.33L279.52 97.32L280.88 97.31L282.24 97.30L283.60 97.29L284.96 97.29L286.32 97.28L287.68 97.28L289.04 97.29L290.40 97.29L291.76 97.30L293.12 97.31L294.48 97.32L295.84 97.34L297.20 97.35L298.56 97.37L299.92 97.39L301.28 97.42L302.64 97.44L304.00 97.47L305.36 97.50L306.72 97.54L308.08 97.57L309.44 97.61L310.80 97.65L312.16 97.69L313.52 97.74L314.88 97.78L316.24 97.83L317.60 97.88L318.96 97.94L320.32 97.99L321.68 98.05L323.04 98.11L324.40 98.18L325.76 98.24L327.12 98.31L328.48 98.38L329.84 98.45L331.20 98.52L332.56 98.60L333.92 98.68L335.28 98.76L336.64 98.84L338.00 98.93L339.36 99.02L340.72 99.11L342.08 99.20L343.44 99.30L344.80 99.39L346.16 99.49L347.52 99.59L348.88 99.70L350.24 99.80L351.60 99.91L352.96 100.02L354.32 100.14L355.68 100.25L357.04 100.37L358.40 100.49L359.76 100.61L361.12 100.74L362.48 100.86L363.84 100.99L365.20 101.12L366.56 101.26L367.92 101.39L369.28 101.53L370.64 101.67L372.00 101.82L373.36 101.96L374.72 102.11L376.08 102.26L377.44 102.41L378.80 102.57L380.16 102.72L381.52 102.88L382.88 103.04L384.24 103.21L385.60 103.38L386.96 103.54L388.32 103.72L389.68 103.89L391.04 104.07L392.40 104.24L393.76 104.43L395.12 104.61L396.48 104.79L397.84 104.98L399.20 105.17L400.56 105.37L401.92 105.56L403.28 105.76L404.64 105.96L406.00 106.16L407.36 106.37L408.72 106.58L410.08 106.79L411.44 107.00L412.80 107.22L414.16 107.44L415.52 107.66L416.88 107.88L418.24 108.11L419.60 108.34L420.96 108.57L422.32 108.80L423.68 109.04L425.04 109.28L426.40 109.52L427.76 109.76L429.12 110.01L430.48 110.26L431.84 110.51L433.20 110.77L434.56 111.03L435.92 111.29L437.28 111.55L438.64 111.82L440.00 112.09L441.36 112.36L442.72 112.64L444.08 112.91L445.44 113.19L446.80 113.48L448.16 113.77L449.52 114.06L450.88 114.35L452.24 114.64L453.60 114.94L454.96 115.24L456.32 115.55L457.68 115.86L459.04 116.17L460.40 116.48L461.76 116.80L463.12 117.12L464.48 117.45L465.84 117.77L467.20 118.10L468.56 118.44L469.92 118.78L471.28 119.12L472.64 119.46L474.00 119.81L475.36 120.16L476.72 120.51L478.08 120.87L479.44 121.23L480.80 121.60L482.16 121.97L483.52 122.34L484.88 122.72L486.24 123.10L487.60 123.48L488.96 123.87L490.32 124.26L491.68 124.66L493.04 125.06L494.40 125.46L495.76 125.87L497.12 126.28L498.48 126.70L499.84 127.12L501.20 127.55L502.56 127.98L503.92 128.41L505.28 128.85L506.64 129.29L508.00 129.74L509.36 130.20L510.72 130.65L512.08 131.12L513.44 131.58L514.80 132.06L516.16 132.53L517.52 133.02L518.88 133.50L520.24 134.00L521.60 134.50L522.96 135.00L524.32 135.51L525.68 136.03L527.04 136.55L528.40 137.08L529.76 137.62L531.12 138.16L532.48 138.70L533.84 139.26L535.20 139.82L536.56 140.39L537.92 140.96L539.28 141.54L540.64 142.13L542.00 142.73L543.36 143.33L544.72 143.94L546.08 144.57L547.44 145.19L548.80 145.83L550.16 146.48L551.52 147.13L552.88 147.80L554.24 148.47L555.60 149.16L556.96 149.85L558.32 150.56L559.68 151.27L561.04 152.00L562.40 152.74L563.76 153.49L565.12 154.25L566.48 155.03L567.84 155.82L569.20 156.63L570.56 157.45L571.92 158.28L573.28 159.13L574.64 160.00L576.00 160.89L577.36 161.79L578.72 162.72L580.08 163.66L581.44 164.63L582.80 165.62L584.16 166.64L585.52 167.68L586.88 168.75L588.24 169.85L589.60 170.98L590.96 172.15L592.32 173.36L593.68 174.61L595.04 175.91L596.40 177.25L597.76 178.65L599.12 180.12L600.48 181.66L601.84 183.27L603.20 184.99L604.56 186.81L605.92 188.77L607.28 190.90L608.64 193.23L610.00 195.83" fill="none" stroke="#2563eb" stroke-width="1.5"/>
<line x1="622" y1="78" x2="644" y2="78" stroke="#2563eb" stroke-width="1.5"/>
<text x="650" y="82" font-size="11" fill="#3f3f46">PHL1</text>
<path d="M66.00 148.12L67.36 147.03L68.72 145.97L70.08 144.94L71.44 143.95L72.80 142.98L74.16 142.04L75.52 141.13L76.88 140.24L78.24 139.38L79.60 138.53L80.96 137.71L82.32 136.91L83.68 136.13L85.04 135.36L86.40 134.61L87.76 133.88L89.12 133.16L90.48 132.46L91.84 131.78L93.20 131.11L94.56 130.45L95.92 129.80L97.28 129.17L98.64 128.55L100.00 127.94L101.36 127.35L102.72 126.76L104.08 126.19L105.44 125.62L106.80 125.07L108.16 124.52L109.52 123.99L110.88 123.47L112.24 122.95L113.60 122.44L114.96 121.94L116.32 121.45L117.68 120.97L119.04 120.50L120.40 120.03L121.76 119.57L123.12 119.12L124.48 118.68L125.84 118.24L127.20 117.82L128.56 117.39L129.92 116.98L131.28 116.57L132.64 116.17L134.00 115.77L135.36 115.38L136.72 115.00L138.08 114.62L139.44 114.25L140.80 113.88L142.16 113.53L143.52 113.17L144.88 112.82L146.24 112.48L147.60 112.14L148.96 111.81L150.32 111.48L151.68 111.16L153.04 110.84L154.40 110.53L155.76 110.22L157.12 109.92L158.48 109.62L159.84 109.33L161.20 109.04L162.56 108.76L163.92 108.48L165.28 108.20L166.64 107.93L168.00 107.66L169.36 107.40L170.72 107.14L172.08 106.89L173.44 106.64L174.80 106.40L176.16 106.15L177.52 105.92L178.88 105.68L180.24 105.45L181.60 105.23L182.96 105.01L184.32 104.79L185.68 104.57L187.04 104.36L188.40 104.16L189.76 103.95L191.12 103.75L192.48 103.56L193.84 103.36L195.20 103.17L196.56 102.99L197.92 102.81L199.28 102.63L200.64 102.45L202.00 102.28L203.36 102.11L204.72 101.94L206.08 101.78L207.44 101.62L208.80 101.47L210.16 101.31L211.52 101.16L212.88 101.02L214.24 100.87L215.60 100.73L216.96 100.60L218.32 100.46L219.68 100.33L221.04 100.20L222.40 100.08L223.76 99.95L225.12 99.84L226.48 99.72L227.84 99.61L229.20 99.49L230.56 99.39L231.92 99.28L233.28 99.18L234.64 99.08L236.00 98.98L237.36 98.89L238.72 98.80L240.08 98.71L241.44 98.63L242.80 98.54L244.16 98.46L245.52 98.38L246.88 98.31L248.24 98.24L249.60 98.17L250.96 98.10L252.32 98.04L253.68 97.98L255.04 97.92L256.40 97.86L257.76 97.81L259.12 97.75L260.48 97.71L261.84 97.66L263.20 97.62L264.56 97.58L265.92 97.54L267.28 97.50L268.64 97.47L270.00 97.44L271.36 97.41L272.72 97.38L274.08 97.36L275.44 97.34L276.80 97.32L278.16 97.30L279.52 97.29L280.88 97.27L282.24 97.27L283.60 97.26L284.96 97.25L286.32 97.25L287.68 97.25L289.04 97.26L290.40 97.26L291.76 97.27L293.12 97.28L294.48 97.29L295.84 97.31L297.20 97.32L298.56 97.34L299.92 97.36L301.28 97.39L302.64 97.41L304.00 97.44L305.36 97.47L306.72 97.51L308.08 97.54L309.44 97.58L310.80 97.62L312.16 97.66L313.52 97.71L314.88 97.75L316.24 97.80L317.60 97.85L318.96 97.91L320.32 97.97L321.68 98.02L323.04 98.08L324.40 98.15L325.76 98.21L327.12 98.28L328.48 98.35L329.84 98.42L331.20 98.50L332.56 98.57L333.92 98.65L335.28 98.73L336.64 98.82L338.00 98.90L339.36 98.99L340.72 99.08L342.08 99.17L343.44 99.27L344.80 99.37L346.16 99.47L347.52 99.57L348.88 99.67L350.24 99.78L351.60 99.89L352.96 100.00L354.32 100.11L355.68 100.23L357.04 100.34L358.40 100.46L359.76 100.59L361.12 100.71L362.48 100.84L363.84 100.97L365.20 101.10L366.56 101.23L367.92 101.37L369.28 101.51L370.64 101.65L372.00 101.79L373.36 101.94L374.72 102.08L376.08 102.23L377.44 102.39L378.80 102.54L380.16 102.70L381.52 102.86L382.88 103.02L384.24 103.18L385.60 103.35L386.96 103.52L388.32 103.69L389.68 103.87L391.04 104.04L392.40 104.22L393.76 104.40L395.12 104.59L396.48 104.77L397.84 104.96L399.20 105.15L400.56 105.34L401.92 105.54L403.28 105.74L404.64 105.94L406.00 106.14L407.36 106.35L408.72 106.56L410.08 106.77L411.44 106.98L412.80 107.20L414.16 107.41L415.52 107.64L416.88 107.86L418.24 108.08L419.60 108.31L420.96 108.55L422.32 108.78L423.68 109.02L425.04 109.26L426.40 109.50L427.76 109.74L429.12 109.99L430.48 110.24L431.84 110.49L433.20 110.75L434.56 111.01L435.92 111.27L437.28 111.53L438.64 111.80L440.00 112.07L441.36 112.34L442.72 112.62L444.08 112.89L445.44 113.17L446.80 113.46L448.16 113.75L449.52 114.04L450.88 114.33L452.24 114.62L453.60 114.92L454.96 115.23L456.32 115.53L457.68 115.84L459.04 116.15L460.40 116.47L461.76 116.78L463.12 117.10L464.48 117.43L465.84 117.76L467.20 118.09L468.56 118.42L469.92 118.76L471.28 119.10L472.64 119.44L474.00 119.79L475.36 120.14L476.72 120.50L478.08 120.86L479.44 121.22L480.80 121.58L482.16 121.95L483.52 122.32L484.88 122.70L486.24 123.08L487.60 123.47L488.96 123.85L490.32 124.25L491.68 124.64L493.04 125.04L494.40 125.45L495.76 125.86L497.12 126.27L498.48 126.69L499.84 127.11L501.20 127.53L502.56 127.96L503.92 128.40L505.28 128.84L506.64 129.28L508.00 129.73L509.36 130.18L510.72 130.64L512.08 131.10L513.44 131.57L514.80 132.04L516.16 132.52L517.52 133.00L518.88 133.49L520.24 133.98L521.60 134.48L522.96 134.99L524.32 135.50L525.68 136.02L527.04 136.54L528.40 137.07L529.76 137.60L531.12 138.14L532.48 138.69L533.84 139.24L535.20 139.81L536.56 140.37L537.92 140.95L539.28 141.53L540.64 142.12L542.00 142.72L543.36 143.32L544.72 143.93L546.08 144.55L547.44 145.18L548.80 145.82L550.16 146.47L551.52 147.12L552.88 147.79L554.24 148.46L555.60 149.14L556.96 149.84L558.32 150.54L559.68 151.26L561.04 151.99L562.40 152.73L563.76 153.48L565.12 154.24L566.48 155.02L567.84 155.81L569.20 156.62L570.56 157.44L571.92 158.27L573.28 159.12L574.64 159.99L576.00 160.88L577.36 161.78L578.72 162.71L580.08 163.65L581.44 164.62L582.80 165.61L584.16 166.63L585.52 167.67L586.88 168.74L588.24 169.84L589.60 170.98L590.96 172.15L592.32 173.35L593.68 174.60L595.04 175.90L596.40 177.24L597.76 178.65L599.12 180.11L600.48 181.65L601.84 183.27L603.20 184.98L604.56 186.81L605.92 188.77L607.28 190.89L608.64 193.22L610.00 195.83" fill="none" stroke="#ea580c" stroke-width="1.5"/>
<line x1="622" y1="95" x2="644" y2="95" stroke="#ea580c" stroke-width="1.5"/>
<text x="650" y="99" font-size="11" fill="#3f3f46">GHLOW2</text>
<text x="338" y="292" text-anchor="middle" font-size="11" fill="#52525b">log-moneyness k</text>
<text transform="translate(18 144) rotate(-90)" text-anchor="middle" font-size="11" fill="#52525b">implied vol (ann %)</text>
<text x="380" y="320" text-anchor="middle" font-weight="600" font-size="14">Error vs PDE (basis points)</text>
<line x1="66" y1="554" x2="610" y2="554" stroke="#ececf0"/>
<text x="58" y="558" text-anchor="end" font-size="11" fill="#52525b">-10</text>
<line x1="66" y1="517.3333333333334" x2="610" y2="517.3333333333334" stroke="#a1a1aa"/>
<text x="58" y="521.3333333333334" text-anchor="end" font-size="11" fill="#52525b">0</text>
<line x1="66" y1="480.6666666666667" x2="610" y2="480.6666666666667" stroke="#ececf0"/>
<text x="58" y="484.6666666666667" text-anchor="end" font-size="11" fill="#52525b">10</text>
<line x1="66" y1="444" x2="610" y2="444" stroke="#ececf0"/>
<text x="58" y="448" text-anchor="end" font-size="11" fill="#52525b">20</text>
<line x1="66" y1="407.33333333333337" x2="610" y2="407.33333333333337" stroke="#ececf0"/>
<text x="58" y="411.33333333333337" text-anchor="end" font-size="11" fill="#52525b">30</text>
<line x1="66" y1="370.66666666666663" x2="610" y2="370.66666666666663" stroke="#ececf0"/>
<text x="58" y="374.66666666666663" text-anchor="end" font-size="11" fill="#52525b">40</text>
<line x1="66" y1="334" x2="610" y2="334" stroke="#ececf0"/>
<text x="58" y="338" text-anchor="end" font-size="11" fill="#52525b">50</text>
<line x1="87.91123611626551" y1="334" x2="87.91123611626551" y2="554" stroke="#ececf0"/>
<text x="87.91123611626551" y="570" text-anchor="middle" font-size="11" fill="#52525b">-0.1</text>
<line x1="358.92307692307696" y1="334" x2="358.92307692307696" y2="554" stroke="#ececf0"/>
<text x="358.92307692307696" y="570" text-anchor="middle" font-size="11" fill="#52525b">0.0</text>
<line x1="66" y1="517.3333333333334" x2="610" y2="517.3333333333334" stroke="#71717a"/>
<path d="M66.00 405.63L67.36 404.35L68.72 403.11L70.08 401.92L71.44 400.77L72.80 399.66L74.16 398.59L75.52 397.56L76.88 396.55L78.24 395.58L79.60 394.64L80.96 393.72L82.32 392.83L83.68 391.97L85.04 391.13L86.40 390.31L87.76 389.52L89.12 388.74L90.48 387.99L91.84 387.26L93.20 386.54L94.56 385.84L95.92 385.16L97.28 384.50L98.64 383.85L100.00 383.22L101.36 382.60L102.72 381.99L104.08 381.41L105.44 380.83L106.80 380.27L108.16 379.72L109.52 379.18L110.88 378.66L112.24 378.14L113.60 377.64L114.96 377.15L116.32 376.67L117.68 376.20L119.04 375.74L120.40 375.29L121.76 374.86L123.12 374.43L124.48 374.01L125.84 373.60L127.20 373.19L128.56 372.80L129.92 372.42L131.28 372.04L132.64 371.68L134.00 371.32L135.36 370.97L136.72 370.62L138.08 370.29L139.44 369.96L140.80 369.64L142.16 369.32L143.52 369.02L144.88 368.72L146.24 368.43L147.60 368.14L148.96 367.86L150.32 367.59L151.68 367.32L153.04 367.06L154.40 366.81L155.76 366.56L157.12 366.32L158.48 366.08L159.84 365.85L161.20 365.63L162.56 365.41L163.92 365.20L165.28 364.99L166.64 364.79L168.00 364.59L169.36 364.40L170.72 364.22L172.08 364.04L173.44 363.86L174.80 363.69L176.16 363.52L177.52 363.36L178.88 363.21L180.24 363.06L181.60 362.91L182.96 362.77L184.32 362.63L185.68 362.50L187.04 362.37L188.40 362.25L189.76 362.13L191.12 362.01L192.48 361.90L193.84 361.79L195.20 361.69L196.56 361.59L197.92 361.50L199.28 361.41L200.64 361.32L202.00 361.24L203.36 361.16L204.72 361.09L206.08 361.02L207.44 360.95L208.80 360.89L210.16 360.83L211.52 360.77L212.88 360.72L214.24 360.67L215.60 360.63L216.96 360.59L218.32 360.55L219.68 360.52L221.04 360.49L222.40 360.46L223.76 360.44L225.12 360.42L226.48 360.40L227.84 360.39L229.20 360.38L230.56 360.37L231.92 360.37L233.28 360.37L234.64 360.37L236.00 360.38L237.36 360.39L238.72 360.40L240.08 360.42L241.44 360.44L242.80 360.46L244.16 360.49L245.52 360.51L246.88 360.54L248.24 360.58L249.60 360.62L250.96 360.66L252.32 360.70L253.68 360.75L255.04 360.79L256.40 360.85L257.76 360.90L259.12 360.96L260.48 361.02L261.84 361.08L263.20 361.15L264.56 361.22L265.92 361.29L267.28 361.36L268.64 361.44L270.00 361.52L271.36 361.60L272.72 361.69L274.08 361.77L275.44 361.86L276.80 361.96L278.16 362.05L279.52 362.15L280.88 362.25L282.24 362.35L283.60 362.46L284.96 362.57L286.32 362.68L287.68 362.79L289.04 362.91L290.40 363.03L291.76 363.15L293.12 363.27L294.48 363.40L295.84 363.53L297.20 363.66L298.56 363.79L299.92 363.93L301.28 364.07L302.64 364.21L304.00 364.35L305.36 364.49L306.72 364.64L308.08 364.79L309.44 364.95L310.80 365.10L312.16 365.26L313.52 365.42L314.88 365.58L316.24 365.74L317.60 365.91L318.96 366.08L320.32 366.25L321.68 366.42L323.04 366.60L324.40 366.78L325.76 366.96L327.12 367.14L328.48 367.33L329.84 367.51L331.20 367.70L332.56 367.89L333.92 368.09L335.28 368.28L336.64 368.48L338.00 368.68L339.36 368.89L340.72 369.09L342.08 369.30L343.44 369.51L344.80 369.72L346.16 369.93L347.52 370.15L348.88 370.37L350.24 370.59L351.60 370.81L352.96 371.04L354.32 371.26L355.68 371.49L357.04 371.73L358.40 371.96L359.76 372.20L361.12 372.43L362.48 372.67L363.84 372.92L365.20 373.16L366.56 373.41L367.92 373.66L369.28 373.91L370.64 374.16L372.00 374.42L373.36 374.67L374.72 374.93L376.08 375.19L377.44 375.46L378.80 375.72L380.16 375.99L381.52 376.26L382.88 376.54L384.24 376.81L385.60 377.09L386.96 377.37L388.32 377.65L389.68 377.93L391.04 378.22L392.40 378.51L393.76 378.80L395.12 379.09L396.48 379.38L397.84 379.68L399.20 379.98L400.56 380.28L401.92 380.58L403.28 380.89L404.64 381.19L406.00 381.50L407.36 381.82L408.72 382.13L410.08 382.45L411.44 382.76L412.80 383.09L414.16 383.41L415.52 383.73L416.88 384.06L418.24 384.39L419.60 384.72L420.96 385.06L422.32 385.39L423.68 385.73L425.04 386.07L426.40 386.42L427.76 386.76L429.12 387.11L430.48 387.46L431.84 387.81L433.20 388.17L434.56 388.53L435.92 388.89L437.28 389.25L438.64 389.61L440.00 389.98L441.36 390.35L442.72 390.72L444.08 391.10L445.44 391.47L446.80 391.85L448.16 392.23L449.52 392.62L450.88 393.00L452.24 393.39L453.60 393.79L454.96 394.18L456.32 394.58L457.68 394.98L459.04 395.38L460.40 395.78L461.76 396.19L463.12 396.60L464.48 397.01L465.84 397.43L467.20 397.85L468.56 398.27L469.92 398.69L471.28 399.12L472.64 399.55L474.00 399.98L475.36 400.41L476.72 400.85L478.08 401.29L479.44 401.73L480.80 402.18L482.16 402.63L483.52 403.08L484.88 403.54L486.24 404.00L487.60 404.46L488.96 404.93L490.32 405.39L491.68 405.87L493.04 406.34L494.40 406.82L495.76 407.30L497.12 407.79L498.48 408.27L499.84 408.77L501.20 409.26L502.56 409.76L503.92 410.26L505.28 410.77L506.64 411.28L508.00 411.79L509.36 412.31L510.72 412.83L512.08 413.36L513.44 413.89L514.80 414.42L516.16 414.96L517.52 415.50L518.88 416.05L520.24 416.60L521.60 417.16L522.96 417.72L524.32 418.28L525.68 418.85L527.04 419.43L528.40 420.01L529.76 420.59L531.12 421.18L532.48 421.77L533.84 422.38L535.20 422.98L536.56 423.59L537.92 424.21L539.28 424.83L540.64 425.46L542.00 426.10L543.36 426.74L544.72 427.39L546.08 428.04L547.44 428.71L548.80 429.38L550.16 430.05L551.52 430.74L552.88 431.43L554.24 432.13L555.60 432.84L556.96 433.56L558.32 434.28L559.68 435.02L561.04 435.76L562.40 436.52L563.76 437.29L565.12 438.06L566.48 438.85L567.84 439.65L569.20 440.47L570.56 441.29L571.92 442.13L573.28 442.99L574.64 443.86L576.00 444.74L577.36 445.65L578.72 446.57L580.08 447.51L581.44 448.47L582.80 449.46L584.16 450.47L585.52 451.50L586.88 452.57L588.24 453.66L589.60 454.79L590.96 455.96L592.32 457.18L593.68 458.44L595.04 459.76L596.40 461.15L597.76 462.61L599.12 464.17" fill="none" stroke="#a1a1aa" stroke-width="1.5" stroke-dasharray="5 4"/>
<line x1="622" y1="344" x2="644" y2="344" stroke="#a1a1aa" stroke-width="1.5" stroke-dasharray="5 4"/>
<text x="650" y="348" font-size="11" fill="#3f3f46">BBF0 − PDE</text>
<path d="M66.00 519.43L67.36 519.42L68.72 519.42L70.08 519.41L71.44 519.41L72.80 519.41L74.16 519.42L75.52 519.42L76.88 519.42L78.24 519.43L79.60 519.43L80.96 519.44L82.32 519.44L83.68 519.45L85.04 519.46L86.40 519.46L87.76 519.47L89.12 519.47L90.48 519.48L91.84 519.49L93.20 519.49L94.56 519.50L95.92 519.51L97.28 519.51L98.64 519.52L100.00 519.52L101.36 519.53L102.72 519.53L104.08 519.54L105.44 519.54L106.80 519.55L108.16 519.55L109.52 519.56L110.88 519.56L112.24 519.57L113.60 519.57L114.96 519.58L116.32 519.58L117.68 519.59L119.04 519.59L120.40 519.59L121.76 519.60L123.12 519.60L124.48 519.60L125.84 519.61L127.20 519.61L128.56 519.61L129.92 519.62L131.28 519.62L132.64 519.62L134.00 519.62L135.36 519.63L136.72 519.63L138.08 519.63L139.44 519.63L140.80 519.63L142.16 519.63L143.52 519.64L144.88 519.64L146.24 519.64L147.60 519.64L148.96 519.64L150.32 519.64L151.68 519.64L153.04 519.64L154.40 519.64L155.76 519.64L157.12 519.64L158.48 519.64L159.84 519.64L161.20 519.64L162.56 519.64L163.92 519.64L165.28 519.64L166.64 519.64L168.00 519.64L169.36 519.64L170.72 519.64L172.08 519.64L173.44 519.64L174.80 519.64L176.16 519.64L177.52 519.64L178.88 519.64L180.24 519.64L181.60 519.63L182.96 519.63L184.32 519.63L185.68 519.63L187.04 519.63L188.40 519.63L189.76 519.62L191.12 519.62L192.48 519.62L193.84 519.62L195.20 519.62L196.56 519.61L197.92 519.61L199.28 519.61L200.64 519.61L202.00 519.60L203.36 519.60L204.72 519.60L206.08 519.60L207.44 519.59L208.80 519.59L210.16 519.59L211.52 519.58L212.88 519.58L214.24 519.58L215.60 519.57L216.96 519.57L218.32 519.57L219.68 519.57L221.04 519.56L222.40 519.56L223.76 519.55L225.12 519.55L226.48 519.55L227.84 519.54L229.20 519.54L230.56 519.54L231.92 519.53L233.28 519.53L234.64 519.52L236.00 519.52L237.36 519.52L238.72 519.51L240.08 519.51L241.44 519.50L242.80 519.50L244.16 519.50L245.52 519.49L246.88 519.49L248.24 519.48L249.60 519.48L250.96 519.47L252.32 519.47L253.68 519.47L255.04 519.46L256.40 519.46L257.76 519.45L259.12 519.45L260.48 519.44L261.84 519.44L263.20 519.43L264.56 519.43L265.92 519.42L267.28 519.42L268.64 519.41L270.00 519.41L271.36 519.40L272.72 519.40L274.08 519.39L275.44 519.39L276.80 519.38L278.16 519.38L279.52 519.37L280.88 519.37L282.24 519.36L283.60 519.36L284.96 519.35L286.32 519.35L287.68 519.34L289.04 519.34L290.40 519.33L291.76 519.32L293.12 519.32L294.48 519.31L295.84 519.31L297.20 519.30L298.56 519.30L299.92 519.29L301.28 519.29L302.64 519.28L304.00 519.27L305.36 519.27L306.72 519.26L308.08 519.26L309.44 519.25L310.80 519.25L312.16 519.24L313.52 519.23L314.88 519.23L316.24 519.22L317.60 519.22L318.96 519.21L320.32 519.20L321.68 519.20L323.04 519.19L324.40 519.19L325.76 519.18L327.12 519.18L328.48 519.17L329.84 519.16L331.20 519.16L332.56 519.15L333.92 519.15L335.28 519.14L336.64 519.13L338.00 519.13L339.36 519.12L340.72 519.11L342.08 519.11L343.44 519.10L344.80 519.10L346.16 519.09L347.52 519.08L348.88 519.08L350.24 519.07L351.60 519.07L352.96 519.06L354.32 519.05L355.68 519.05L357.04 519.04L358.40 519.03L359.76 519.03L361.12 519.02L362.48 519.02L363.84 519.01L365.20 519.00L366.56 519.00L367.92 518.99L369.28 518.98L370.64 518.98L372.00 518.97L373.36 518.97L374.72 518.96L376.08 518.95L377.44 518.95L378.80 518.94L380.16 518.93L381.52 518.93L382.88 518.92L384.24 518.92L385.60 518.91L386.96 518.90L388.32 518.90L389.68 518.89L391.04 518.88L392.40 518.88L393.76 518.87L395.12 518.87L396.48 518.86L397.84 518.85L399.20 518.85L400.56 518.84L401.92 518.83L403.28 518.83L404.64 518.82L406.00 518.81L407.36 518.81L408.72 518.80L410.08 518.80L411.44 518.79L412.80 518.78L414.16 518.78L415.52 518.77L416.88 518.76L418.24 518.76L419.60 518.75L420.96 518.75L422.32 518.74L423.68 518.73L425.04 518.73L426.40 518.72L427.76 518.71L429.12 518.71L430.48 518.70L431.84 518.70L433.20 518.69L434.56 518.68L435.92 518.68L437.28 518.67L438.64 518.66L440.00 518.66L441.36 518.65L442.72 518.65L444.08 518.64L445.44 518.63L446.80 518.63L448.16 518.62L449.52 518.62L450.88 518.61L452.24 518.60L453.60 518.60L454.96 518.59L456.32 518.58L457.68 518.58L459.04 518.57L460.40 518.57L461.76 518.56L463.12 518.55L464.48 518.55L465.84 518.54L467.20 518.54L468.56 518.53L469.92 518.52L471.28 518.52L472.64 518.51L474.00 518.51L475.36 518.50L476.72 518.49L478.08 518.49L479.44 518.48L480.80 518.48L482.16 518.47L483.52 518.47L484.88 518.46L486.24 518.45L487.60 518.45L488.96 518.44L490.32 518.44L491.68 518.43L493.04 518.42L494.40 518.42L495.76 518.41L497.12 518.41L498.48 518.40L499.84 518.40L501.20 518.39L502.56 518.39L503.92 518.38L505.28 518.37L506.64 518.37L508.00 518.36L509.36 518.36L510.72 518.35L512.08 518.35L513.44 518.34L514.80 518.34L516.16 518.33L517.52 518.33L518.88 518.32L520.24 518.32L521.60 518.31L522.96 518.31L524.32 518.30L525.68 518.30L527.04 518.29L528.40 518.29L529.76 518.28L531.12 518.28L532.48 518.27L533.84 518.27L535.20 518.26L536.56 518.26L537.92 518.25L539.28 518.25L540.64 518.25L542.00 518.24L543.36 518.24L544.72 518.23L546.08 518.23L547.44 518.23L548.80 518.22L550.16 518.22L551.52 518.22L552.88 518.21L554.24 518.21L555.60 518.21L556.96 518.21L558.32 518.21L559.68 518.21L561.04 518.20L562.40 518.20L563.76 518.20L565.12 518.21L566.48 518.21L567.84 518.21L569.20 518.21L570.56 518.21L571.92 518.22L573.28 518.22L574.64 518.23L576.00 518.24L577.36 518.25L578.72 518.26L580.08 518.28L581.44 518.29L582.80 518.31L584.16 518.33L585.52 518.36L586.88 518.39L588.24 518.43L589.60 518.48L590.96 518.53L592.32 518.60L593.68 518.68L595.04 518.77L596.40 518.89L597.76 519.04L599.12 519.23" fill="none" stroke="#2563eb" stroke-width="1.5"/>
<line x1="622" y1="361" x2="644" y2="361" stroke="#2563eb" stroke-width="1.5"/>
<text x="650" y="365" font-size="11" fill="#3f3f46">PHL1 − PDE</text>
<path d="M66.00 517.68L67.36 517.65L68.72 517.62L70.08 517.60L71.44 517.58L72.80 517.56L74.16 517.54L75.52 517.53L76.88 517.51L78.24 517.50L79.60 517.49L80.96 517.48L82.32 517.47L83.68 517.46L85.04 517.46L86.40 517.45L87.76 517.44L89.12 517.43L90.48 517.43L91.84 517.42L93.20 517.42L94.56 517.41L95.92 517.41L97.28 517.40L98.64 517.40L100.00 517.40L101.36 517.39L102.72 517.39L104.08 517.39L105.44 517.38L106.80 517.38L108.16 517.38L109.52 517.38L110.88 517.37L112.24 517.37L113.60 517.37L114.96 517.37L116.32 517.36L117.68 517.36L119.04 517.36L120.40 517.36L121.76 517.36L123.12 517.35L124.48 517.35L125.84 517.35L127.20 517.35L128.56 517.35L129.92 517.35L131.28 517.34L132.64 517.34L134.00 517.34L135.36 517.34L136.72 517.34L138.08 517.34L139.44 517.34L140.80 517.34L142.16 517.34L143.52 517.33L144.88 517.33L146.24 517.33L147.60 517.33L148.96 517.33L150.32 517.33L151.68 517.33L153.04 517.33L154.40 517.33L155.76 517.33L157.12 517.33L158.48 517.32L159.84 517.32L161.20 517.32L162.56 517.32L163.92 517.32L165.28 517.32L166.64 517.32L168.00 517.32L169.36 517.32L170.72 517.32L172.08 517.32L173.44 517.32L174.80 517.32L176.16 517.32L177.52 517.32L178.88 517.32L180.24 517.32L181.60 517.32L182.96 517.31L184.32 517.31L185.68 517.31L187.04 517.31L188.40 517.31L189.76 517.31L191.12 517.31L192.48 517.31L193.84 517.31L195.20 517.31L196.56 517.31L197.92 517.31L199.28 517.31L200.64 517.31L202.00 517.31L203.36 517.31L204.72 517.31L206.08 517.31L207.44 517.31L208.80 517.31L210.16 517.31L211.52 517.31L212.88 517.31L214.24 517.31L215.60 517.31L216.96 517.31L218.32 517.31L219.68 517.31L221.04 517.31L222.40 517.31L223.76 517.31L225.12 517.31L226.48 517.31L227.84 517.31L229.20 517.31L230.56 517.31L231.92 517.31L233.28 517.31L234.64 517.31L236.00 517.31L237.36 517.31L238.72 517.31L240.08 517.31L241.44 517.31L242.80 517.31L244.16 517.31L245.52 517.31L246.88 517.31L248.24 517.31L249.60 517.31L250.96 517.31L252.32 517.31L253.68 517.31L255.04 517.31L256.40 517.31L257.76 517.31L259.12 517.31L260.48 517.31L261.84 517.31L263.20 517.31L264.56 517.31L265.92 517.31L267.28 517.31L268.64 517.31L270.00 517.31L271.36 517.31L272.72 517.31L274.08 517.31L275.44 517.31L276.80 517.31L278.16 517.31L279.52 517.31L280.88 517.31L282.24 517.31L283.60 517.31L284.96 517.31L286.32 517.31L287.68 517.31L289.04 517.31L290.40 517.31L291.76 517.31L293.12 517.31L294.48 517.31L295.84 517.31L297.20 517.31L298.56 517.31L299.92 517.31L301.28 517.31L302.64 517.31L304.00 517.31L305.36 517.31L306.72 517.31L308.08 517.31L309.44 517.31L310.80 517.31L312.16 517.31L313.52 517.31L314.88 517.31L316.24 517.31L317.60 517.31L318.96 517.31L320.32 517.31L321.68 517.31L323.04 517.31L324.40 517.31L325.76 517.31L327.12 517.31L328.48 517.31L329.84 517.31L331.20 517.31L332.56 517.31L333.92 517.31L335.28 517.31L336.64 517.31L338.00 517.31L339.36 517.31L340.72 517.31L342.08 517.31L343.44 517.31L344.80 517.31L346.16 517.31L347.52 517.31L348.88 517.31L350.24 517.31L351.60 517.31L352.96 517.31L354.32 517.31L355.68 517.31L357.04 517.31L358.40 517.31L359.76 517.31L361.12 517.31L362.48 517.31L363.84 517.31L365.20 517.31L366.56 517.31L367.92 517.31L369.28 517.31L370.64 517.31L372.00 517.31L373.36 517.31L374.72 517.31L376.08 517.31L377.44 517.31L378.80 517.31L380.16 517.31L381.52 517.31L382.88 517.31L384.24 517.31L385.60 517.31L386.96 517.31L388.32 517.31L389.68 517.31L391.04 517.31L392.40 517.31L393.76 517.31L395.12 517.31L396.48 517.31L397.84 517.31L399.20 517.31L400.56 517.32L401.92 517.32L403.28 517.32L404.64 517.32L406.00 517.32L407.36 517.32L408.72 517.32L410.08 517.32L411.44 517.32L412.80 517.32L414.16 517.32L415.52 517.32L416.88 517.32L418.24 517.32L419.60 517.32L420.96 517.32L422.32 517.32L423.68 517.32L425.04 517.32L426.40 517.32L427.76 517.32L429.12 517.32L430.48 517.32L431.84 517.32L433.20 517.32L434.56 517.32L435.92 517.32L437.28 517.32L438.64 517.32L440.00 517.32L441.36 517.32L442.72 517.32L444.08 517.32L445.44 517.32L446.80 517.32L448.16 517.32L449.52 517.32L450.88 517.32L452.24 517.32L453.60 517.32L454.96 517.32L456.32 517.33L457.68 517.33L459.04 517.33L460.40 517.33L461.76 517.33L463.12 517.33L464.48 517.33L465.84 517.33L467.20 517.33L468.56 517.33L469.92 517.33L471.28 517.33L472.64 517.33L474.00 517.33L475.36 517.33L476.72 517.33L478.08 517.33L479.44 517.33L480.80 517.33L482.16 517.33L483.52 517.33L484.88 517.33L486.24 517.34L487.60 517.34L488.96 517.34L490.32 517.34L491.68 517.34L493.04 517.34L494.40 517.34L495.76 517.34L497.12 517.34L498.48 517.34L499.84 517.34L501.20 517.34L502.56 517.34L503.92 517.34L505.28 517.35L506.64 517.35L508.00 517.35L509.36 517.35L510.72 517.35L512.08 517.35L513.44 517.35L514.80 517.35L516.16 517.35L517.52 517.36L518.88 517.36L520.24 517.36L521.60 517.36L522.96 517.36L524.32 517.36L525.68 517.36L527.04 517.37L528.40 517.37L529.76 517.37L531.12 517.37L532.48 517.37L533.84 517.38L535.20 517.38L536.56 517.38L537.92 517.38L539.28 517.39L540.64 517.39L542.00 517.39L543.36 517.39L544.72 517.40L546.08 517.40L547.44 517.40L548.80 517.41L550.16 517.41L551.52 517.42L552.88 517.42L554.24 517.43L555.60 517.43L556.96 517.44L558.32 517.44L559.68 517.45L561.04 517.45L562.40 517.46L563.76 517.47L565.12 517.48L566.48 517.49L567.84 517.50L569.20 517.51L570.56 517.52L571.92 517.53L573.28 517.55L574.64 517.56L576.00 517.58L577.36 517.60L578.72 517.62L580.08 517.64L581.44 517.66L582.80 517.69L584.16 517.73L585.52 517.76L586.88 517.80L588.24 517.85L589.60 517.91L590.96 517.97L592.32 518.05L593.68 518.14L595.04 518.25L596.40 518.38L597.76 518.54L599.12 518.75" fill="none" stroke="#ea580c" stroke-width="1.5"/>
<line x1="622" y1="378" x2="644" y2="378" stroke="#ea580c" stroke-width="1.5"/>
<text x="650" y="382" font-size="11" fill="#3f3f46">GHLOW2 − PDE</text>
<text x="338" y="592" text-anchor="middle" font-size="11" fill="#52525b">log-moneyness k</text>
<text transform="translate(18 444) rotate(-90)" text-anchor="middle" font-size="11" fill="#52525b">error (bps)</text>
<text x="380" y="620" text-anchor="middle" font-weight="600" font-size="14">Error vs PDE — BBF0 excluded (PHL1 vs GHLOW2)</text>
<line x1="66" y1="854" x2="610" y2="854" stroke="#ececf0"/>
<text x="58" y="858" text-anchor="end" font-size="11" fill="#52525b">-0.8</text>
<line x1="66" y1="810" x2="610" y2="810" stroke="#ececf0"/>
<text x="58" y="814" text-anchor="end" font-size="11" fill="#52525b">-0.6</text>
<line x1="66" y1="766" x2="610" y2="766" stroke="#ececf0"/>
<text x="58" y="770" text-anchor="end" font-size="11" fill="#52525b">-0.4</text>
<line x1="66" y1="722" x2="610" y2="722" stroke="#ececf0"/>
<text x="58" y="726" text-anchor="end" font-size="11" fill="#52525b">-0.2</text>
<line x1="66" y1="678" x2="610" y2="678" stroke="#a1a1aa"/>
<text x="58" y="682" text-anchor="end" font-size="11" fill="#52525b">0.0</text>
<line x1="66" y1="634" x2="610" y2="634" stroke="#ececf0"/>
<text x="58" y="638" text-anchor="end" font-size="11" fill="#52525b">0.2</text>
<line x1="87.91123611626551" y1="634" x2="87.91123611626551" y2="854" stroke="#ececf0"/>
<text x="87.91123611626551" y="870" text-anchor="middle" font-size="11" fill="#52525b">-0.1</text>
<line x1="358.92307692307696" y1="634" x2="358.92307692307696" y2="854" stroke="#ececf0"/>
<text x="358.92307692307696" y="870" text-anchor="middle" font-size="11" fill="#52525b">0.0</text>
<line x1="66" y1="678" x2="610" y2="678" stroke="#71717a"/>
<path d="M66.00 803.73L67.36 803.24L68.72 802.94L70.08 802.78L71.44 802.75L72.80 802.80L74.16 802.93L75.52 803.12L76.88 803.36L78.24 803.63L79.60 803.93L80.96 804.26L82.32 804.60L83.68 804.95L85.04 805.32L86.40 805.69L87.76 806.07L89.12 806.44L90.48 806.82L91.84 807.20L93.20 807.57L94.56 807.94L95.92 808.31L97.28 808.67L98.64 809.02L100.00 809.37L101.36 809.71L102.72 810.04L104.08 810.37L105.44 810.69L106.80 811.00L108.16 811.30L109.52 811.59L110.88 811.87L112.24 812.15L113.60 812.42L114.96 812.68L116.32 812.93L117.68 813.17L119.04 813.40L120.40 813.62L121.76 813.84L123.12 814.05L124.48 814.24L125.84 814.43L127.20 814.62L128.56 814.79L129.92 814.95L131.28 815.11L132.64 815.26L134.00 815.40L135.36 815.54L136.72 815.66L138.08 815.78L139.44 815.89L140.80 815.99L142.16 816.09L143.52 816.18L144.88 816.26L146.24 816.33L147.60 816.40L148.96 816.46L150.32 816.51L151.68 816.56L153.04 816.59L154.40 816.63L155.76 816.65L157.12 816.67L158.48 816.69L159.84 816.69L161.20 816.70L162.56 816.69L163.92 816.68L165.28 816.66L166.64 816.64L168.00 816.61L169.36 816.58L170.72 816.54L172.08 816.49L173.44 816.44L174.80 816.38L176.16 816.32L177.52 816.25L178.88 816.18L180.24 816.10L181.60 816.02L182.96 815.93L184.32 815.84L185.68 815.74L187.04 815.64L188.40 815.53L189.76 815.42L191.12 815.31L192.48 815.19L193.84 815.06L195.20 814.93L196.56 814.80L197.92 814.66L199.28 814.52L200.64 814.37L202.00 814.22L203.36 814.06L204.72 813.90L206.08 813.74L207.44 813.57L208.80 813.40L210.16 813.23L211.52 813.05L212.88 812.87L214.24 812.68L215.60 812.49L216.96 812.30L218.32 812.10L219.68 811.90L221.04 811.70L222.40 811.50L223.76 811.29L225.12 811.07L226.48 810.86L227.84 810.64L229.20 810.41L230.56 810.19L231.92 809.96L233.28 809.73L234.64 809.49L236.00 809.25L237.36 809.01L238.72 808.77L240.08 808.52L241.44 808.28L242.80 808.02L244.16 807.77L245.52 807.51L246.88 807.25L248.24 806.99L249.60 806.73L250.96 806.46L252.32 806.19L253.68 805.92L255.04 805.64L256.40 805.36L257.76 805.09L259.12 804.80L260.48 804.52L261.84 804.23L263.20 803.95L264.56 803.66L265.92 803.36L267.28 803.07L268.64 802.77L270.00 802.47L271.36 802.17L272.72 801.87L274.08 801.57L275.44 801.26L276.80 800.95L278.16 800.64L279.52 800.33L280.88 800.02L282.24 799.70L283.60 799.39L284.96 799.07L286.32 798.75L287.68 798.43L289.04 798.10L290.40 797.78L291.76 797.45L293.12 797.12L294.48 796.79L295.84 796.46L297.20 796.13L298.56 795.80L299.92 795.46L301.28 795.12L302.64 794.79L304.00 794.45L305.36 794.11L306.72 793.76L308.08 793.42L309.44 793.08L310.80 792.73L312.16 792.39L313.52 792.04L314.88 791.69L316.24 791.34L317.60 790.99L318.96 790.64L320.32 790.28L321.68 789.93L323.04 789.58L324.40 789.22L325.76 788.86L327.12 788.51L328.48 788.15L329.84 787.79L331.20 787.43L332.56 787.07L333.92 786.71L335.28 786.34L336.64 785.98L338.00 785.62L339.36 785.25L340.72 784.89L342.08 784.52L343.44 784.15L344.80 783.79L346.16 783.42L347.52 783.05L348.88 782.68L350.24 782.31L351.60 781.94L352.96 781.57L354.32 781.20L355.68 780.83L357.04 780.46L358.40 780.08L359.76 779.71L361.12 779.34L362.48 778.96L363.84 778.59L365.20 778.21L366.56 777.84L367.92 777.46L369.28 777.09L370.64 776.71L372.00 776.34L373.36 775.96L374.72 775.58L376.08 775.21L377.44 774.83L378.80 774.45L380.16 774.08L381.52 773.70L382.88 773.32L384.24 772.94L385.60 772.56L386.96 772.19L388.32 771.81L389.68 771.43L391.04 771.05L392.40 770.67L393.76 770.29L395.12 769.92L396.48 769.54L397.84 769.16L399.20 768.78L400.56 768.40L401.92 768.03L403.28 767.65L404.64 767.27L406.00 766.89L407.36 766.51L408.72 766.14L410.08 765.76L411.44 765.38L412.80 765.00L414.16 764.63L415.52 764.25L416.88 763.87L418.24 763.50L419.60 763.12L420.96 762.74L422.32 762.37L423.68 761.99L425.04 761.62L426.40 761.24L427.76 760.87L429.12 760.49L430.48 760.12L431.84 759.75L433.20 759.37L434.56 759.00L435.92 758.63L437.28 758.26L438.64 757.88L440.00 757.51L441.36 757.14L442.72 756.77L444.08 756.40L445.44 756.03L446.80 755.66L448.16 755.29L449.52 754.93L450.88 754.56L452.24 754.19L453.60 753.82L454.96 753.46L456.32 753.09L457.68 752.73L459.04 752.36L460.40 752.00L461.76 751.64L463.12 751.27L464.48 750.91L465.84 750.55L467.20 750.19L468.56 749.83L469.92 749.47L471.28 749.11L472.64 748.76L474.00 748.40L475.36 748.04L476.72 747.69L478.08 747.33L479.44 746.98L480.80 746.63L482.16 746.28L483.52 745.93L484.88 745.58L486.24 745.23L487.60 744.88L488.96 744.53L490.32 744.19L491.68 743.84L493.04 743.50L494.40 743.16L495.76 742.81L497.12 742.47L498.48 742.13L499.84 741.80L501.20 741.46L502.56 741.13L503.92 740.79L505.28 740.46L506.64 740.13L508.00 739.80L509.36 739.48L510.72 739.15L512.08 738.83L513.44 738.51L514.80 738.19L516.16 737.87L517.52 737.56L518.88 737.24L520.24 736.93L521.60 736.63L522.96 736.32L524.32 736.02L525.68 735.72L527.04 735.43L528.40 735.14L529.76 734.85L531.12 734.57L532.48 734.29L533.84 734.01L535.20 733.74L536.56 733.48L537.92 733.22L539.28 732.96L540.64 732.72L542.00 732.48L543.36 732.24L544.72 732.02L546.08 731.80L547.44 731.60L548.80 731.40L550.16 731.22L551.52 731.04L552.88 730.88L554.24 730.74L555.60 730.61L556.96 730.50L558.32 730.40L559.68 730.33L561.04 730.28L562.40 730.26L563.76 730.27L565.12 730.31L566.48 730.38L567.84 730.50L569.20 730.66L570.56 730.87L571.92 731.14L573.28 731.47L574.64 731.88L576.00 732.38L577.36 732.97L578.72 733.68L580.08 734.51L581.44 735.50L582.80 736.67L584.16 738.05L585.52 739.69L586.88 741.62L588.24 743.91L589.60 746.64L590.96 749.91L592.32 753.85L593.68 758.63L595.04 764.46L596.40 771.67L597.76 780.67L599.12 792.06" fill="none" stroke="#2563eb" stroke-width="1.5"/>
<line x1="622" y1="644" x2="644" y2="644" stroke="#2563eb" stroke-width="1.5"/>
<text x="650" y="648" font-size="11" fill="#3f3f46">PHL1 − PDE</text>
<path d="M66.00 698.66L67.36 696.82L68.72 695.22L70.08 693.82L71.44 692.58L72.80 691.48L74.16 690.50L75.52 689.62L76.88 688.82L78.24 688.10L79.60 687.44L80.96 686.84L82.32 686.28L83.68 685.77L85.04 685.30L86.40 684.87L87.76 684.46L89.12 684.09L90.48 683.74L91.84 683.41L93.20 683.10L94.56 682.81L95.92 682.54L97.28 682.28L98.64 682.04L100.00 681.81L101.36 681.59L102.72 681.39L104.08 681.19L105.44 681.01L106.80 680.83L108.16 680.66L109.52 680.50L110.88 680.35L112.24 680.20L113.60 680.06L114.96 679.93L116.32 679.80L117.68 679.68L119.04 679.56L120.40 679.45L121.76 679.34L123.12 679.23L124.48 679.13L125.84 679.04L127.20 678.94L128.56 678.85L129.92 678.77L131.28 678.68L132.64 678.60L134.00 678.52L135.36 678.45L136.72 678.38L138.08 678.31L139.44 678.24L140.80 678.17L142.16 678.11L143.52 678.05L144.88 677.99L146.24 677.93L147.60 677.87L148.96 677.82L150.32 677.77L151.68 677.72L153.04 677.67L154.40 677.62L155.76 677.57L157.12 677.53L158.48 677.49L159.84 677.44L161.20 677.40L162.56 677.36L163.92 677.32L165.28 677.29L166.64 677.25L168.00 677.22L169.36 677.18L170.72 677.15L172.08 677.12L173.44 677.09L174.80 677.06L176.16 677.03L177.52 677.00L178.88 676.97L180.24 676.94L181.60 676.92L182.96 676.89L184.32 676.87L185.68 676.85L187.04 676.82L188.40 676.80L189.76 676.78L191.12 676.76L192.48 676.74L193.84 676.72L195.20 676.70L196.56 676.68L197.92 676.66L199.28 676.65L200.64 676.63L202.00 676.61L203.36 676.60L204.72 676.58L206.08 676.57L207.44 676.56L208.80 676.54L210.16 676.53L211.52 676.52L212.88 676.50L214.24 676.49L215.60 676.48L216.96 676.47L218.32 676.46L219.68 676.45L221.04 676.44L222.40 676.43L223.76 676.42L225.12 676.42L226.48 676.41L227.84 676.40L229.20 676.39L230.56 676.39L231.92 676.38L233.28 676.37L234.64 676.37L236.00 676.36L237.36 676.36L238.72 676.35L240.08 676.35L241.44 676.34L242.80 676.34L244.16 676.33L245.52 676.33L246.88 676.33L248.24 676.32L249.60 676.32L250.96 676.32L252.32 676.32L253.68 676.32L255.04 676.31L256.40 676.31L257.76 676.31L259.12 676.31L260.48 676.31L261.84 676.31L263.20 676.31L264.56 676.31L265.92 676.31L267.28 676.31L268.64 676.31L270.00 676.31L271.36 676.31L272.72 676.31L274.08 676.31L275.44 676.31L276.80 676.31L278.16 676.32L279.52 676.32L280.88 676.32L282.24 676.32L283.60 676.32L284.96 676.33L286.32 676.33L287.68 676.33L289.04 676.33L290.40 676.34L291.76 676.34L293.12 676.34L294.48 676.35L295.84 676.35L297.20 676.35L298.56 676.36L299.92 676.36L301.28 676.37L302.64 676.37L304.00 676.37L305.36 676.38L306.72 676.38L308.08 676.39L309.44 676.39L310.80 676.40L312.16 676.40L313.52 676.41L314.88 676.41L316.24 676.42L317.60 676.42L318.96 676.43L320.32 676.43L321.68 676.44L323.04 676.44L324.40 676.45L325.76 676.46L327.12 676.46L328.48 676.47L329.84 676.47L331.20 676.48L332.56 676.49L333.92 676.49L335.28 676.50L336.64 676.51L338.00 676.51L339.36 676.52L340.72 676.53L342.08 676.53L343.44 676.54L344.80 676.55L346.16 676.55L347.52 676.56L348.88 676.57L350.24 676.58L351.60 676.58L352.96 676.59L354.32 676.60L355.68 676.61L357.04 676.61L358.40 676.62L359.76 676.63L361.12 676.64L362.48 676.64L363.84 676.65L365.20 676.66L366.56 676.67L367.92 676.68L369.28 676.69L370.64 676.69L372.00 676.70L373.36 676.71L374.72 676.72L376.08 676.73L377.44 676.74L378.80 676.75L380.16 676.76L381.52 676.77L382.88 676.77L384.24 676.78L385.60 676.79L386.96 676.80L388.32 676.81L389.68 676.82L391.04 676.83L392.40 676.84L393.76 676.85L395.12 676.86L396.48 676.87L397.84 676.88L399.20 676.89L400.56 676.90L401.92 676.92L403.28 676.93L404.64 676.94L406.00 676.95L407.36 676.96L408.72 676.97L410.08 676.98L411.44 677.00L412.80 677.01L414.16 677.02L415.52 677.03L416.88 677.04L418.24 677.06L419.60 677.07L420.96 677.08L422.32 677.10L423.68 677.11L425.04 677.12L426.40 677.14L427.76 677.15L429.12 677.16L430.48 677.18L431.84 677.19L433.20 677.21L434.56 677.22L435.92 677.24L437.28 677.26L438.64 677.27L440.00 677.29L441.36 677.30L442.72 677.32L444.08 677.34L445.44 677.36L446.80 677.37L448.16 677.39L449.52 677.41L450.88 677.43L452.24 677.45L453.60 677.47L454.96 677.49L456.32 677.51L457.68 677.53L459.04 677.55L460.40 677.57L461.76 677.60L463.12 677.62L464.48 677.64L465.84 677.67L467.20 677.69L468.56 677.72L469.92 677.74L471.28 677.77L472.64 677.80L474.00 677.82L475.36 677.85L476.72 677.88L478.08 677.91L479.44 677.94L480.80 677.98L482.16 678.01L483.52 678.04L484.88 678.08L486.24 678.11L487.60 678.15L488.96 678.19L490.32 678.22L491.68 678.26L493.04 678.31L494.40 678.35L495.76 678.39L497.12 678.44L498.48 678.48L499.84 678.53L501.20 678.58L502.56 678.63L503.92 678.69L505.28 678.74L506.64 678.80L508.00 678.86L509.36 678.92L510.72 678.98L512.08 679.05L513.44 679.12L514.80 679.19L516.16 679.26L517.52 679.34L518.88 679.41L520.24 679.50L521.60 679.58L522.96 679.67L524.32 679.77L525.68 679.86L527.04 679.97L528.40 680.07L529.76 680.18L531.12 680.30L532.48 680.42L533.84 680.55L535.20 680.68L536.56 680.82L537.92 680.97L539.28 681.12L540.64 681.29L542.00 681.46L543.36 681.64L544.72 681.83L546.08 682.03L547.44 682.24L548.80 682.47L550.16 682.71L551.52 682.96L552.88 683.23L554.24 683.52L555.60 683.82L556.96 684.15L558.32 684.50L559.68 684.87L561.04 685.27L562.40 685.70L563.76 686.17L565.12 686.67L566.48 687.21L567.84 687.79L569.20 688.43L570.56 689.12L571.92 689.88L573.28 690.71L574.64 691.62L576.00 692.62L577.36 693.73L578.72 694.96L580.08 696.33L581.44 697.86L582.80 699.59L584.16 701.53L585.52 703.74L586.88 706.26L588.24 709.15L589.60 712.50L590.96 716.40L592.32 720.99L593.68 726.44L595.04 732.97L596.40 740.89L597.76 750.63L599.12 762.80" fill="none" stroke="#ea580c" stroke-width="1.5"/>
<line x1="622" y1="661" x2="644" y2="661" stroke="#ea580c" stroke-width="1.5"/>
<text x="650" y="665" font-size="11" fill="#3f3f46">GHLOW2 − PDE</text>
<text x="338" y="892" text-anchor="middle" font-size="11" fill="#52525b">log-moneyness k</text>
<text transform="translate(18 744) rotate(-90)" text-anchor="middle" font-size="11" fill="#52525b">error (bps)</text>
</svg>
