<svg xmlns="http://www.w3.org/2000/svg" width="760" height="600" viewBox="0 0 760 600" font-family="DejaVu Sans, sans-serif"><rect width="760" height="600" fill="#ffffff"/>
<text x="380" y="20" text-anchor="middle" font-weight="600" font-size="14">Unhappy case — fake ATM knot at k=0</text>
<line x1="66" y1="254" x2="610" y2="254" stroke="#ececf0"/>
<text x="58" y="258" text-anchor="end" font-size="11" fill="#52525b">25</text>
<line x1="66" y1="199" x2="610" y2="199" stroke="#ececf0"/>
<text x="58" y="203" text-anchor="end" font-size="11" fill="#52525b">30</text>
<line x1="66" y1="144" x2="610" y2="144" stroke="#ececf0"/>
<text x="58" y="148" text-anchor="end" font-size="11" fill="#52525b">35</text>
<line x1="66" y1="89" x2="610" y2="89" stroke="#ececf0"/>
<text x="58" y="93" text-anchor="end" font-size="11" fill="#52525b">40</text>
<line x1="66" y1="34" x2="610" y2="34" stroke="#ececf0"/>
<text x="58" y="38" text-anchor="end" font-size="11" fill="#52525b">45</text>
<line x1="145.52283220045922" y1="34" x2="145.52283220045922" y2="254" stroke="#ececf0"/>
<text x="145.52283220045922" y="270" text-anchor="middle" font-size="11" fill="#52525b">-0.05</text>
<line x1="358.92307692307696" y1="34" x2="358.92307692307696" y2="254" stroke="#ececf0"/>
<text x="358.92307692307696" y="270" text-anchor="middle" font-size="11" fill="#52525b">0.00</text>
<line x1="572.3233216456947" y1="34" x2="572.3233216456947" y2="254" stroke="#ececf0"/>
<text x="572.3233216456947" y="270" text-anchor="middle" font-size="11" fill="#52525b">0.05</text>
<line x1="358.92307692307696" y1="34" x2="358.92307692307696" y2="254" stroke="#ef4444" stroke-dasharray="3 3"/>
<path d="M66.00 70.92L67.36 71.77L68.72 72.62L70.08 73.47L71.44 74.31L72.80 75.16L74.16 76.00L75.52 76.83L76.88 77.67L78.24 78.50L79.60 79.33L80.96 80.16L82.32 80.99L83.68 81.81L85.04 82.63L86.40 83.44L87.76 84.26L89.12 85.07L90.48 85.88L91.84 86.69L93.20 87.49L94.56 88.29L95.92 89.09L97.28 89.89L98.64 90.68L100.00 91.47L101.36 92.26L102.72 93.04L104.08 93.82L105.44 94.60L106.80 95.38L108.16 96.15L109.52 96.93L110.88 97.69L112.24 98.46L113.60 99.22L114.96 99.98L116.32 100.74L117.68 101.49L119.04 102.24L120.40 102.99L121.76 103.73L123.12 104.48L124.48 105.22L125.84 105.95L127.20 106.68L128.56 107.41L129.92 108.14L131.28 108.87L132.64 109.59L134.00 110.30L135.36 111.02L136.72 111.73L138.08 112.44L139.44 113.15L140.80 113.85L142.16 114.55L143.52 115.25L144.88 115.94L146.24 116.63L147.60 117.32L148.96 118.00L150.32 118.68L151.68 119.36L153.04 120.03L154.40 120.71L155.76 121.37L157.12 122.04L158.48 122.70L159.84 123.36L161.20 124.02L162.56 124.67L163.92 125.32L165.28 125.96L166.64 126.60L168.00 127.24L169.36 127.88L170.72 128.51L172.08 129.14L173.44 129.77L174.80 130.39L176.16 131.01L177.52 131.63L178.88 132.24L180.24 132.85L181.60 133.46L182.96 134.06L184.32 134.66L185.68 135.26L187.04 135.85L188.40 136.44L189.76 137.02L191.12 137.61L192.48 138.19L193.84 138.76L195.20 139.34L196.56 139.91L197.92 140.47L199.28 141.03L200.64 141.59L202.00 142.15L203.36 142.70L204.72 143.25L206.08 143.80L207.44 144.34L208.80 144.88L210.16 145.41L211.52 145.95L212.88 146.48L214.24 147.00L215.60 147.52L216.96 148.04L218.32 148.56L219.68 149.07L221.04 149.58L222.40 150.08L223.76 150.58L225.12 151.08L226.48 151.57L227.84 152.06L229.20 152.55L230.56 153.04L231.92 153.52L233.28 153.99L234.64 154.47L236.00 154.94L237.36 155.41L238.72 155.87L240.08 156.33L241.44 156.79L242.80 157.24L244.16 157.69L245.52 158.14L246.88 158.58L248.24 159.02L249.60 159.46L250.96 159.89L252.32 160.32L253.68 160.75L255.04 161.17L256.40 161.59L257.76 162.00L259.12 162.42L260.48 162.83L261.84 163.23L263.20 163.64L264.56 164.04L265.92 164.43L267.28 164.82L268.64 165.21L270.00 165.60L271.36 165.98L272.72 166.36L274.08 166.74L275.44 167.11L276.80 167.48L278.16 167.85L279.52 168.21L280.88 168.57L282.24 168.93L283.60 169.28L284.96 169.63L286.32 169.98L287.68 170.32L289.04 170.66L290.40 171.00L291.76 171.34L293.12 171.67L294.48 171.99L295.84 172.32L297.20 172.64L298.56 172.96L299.92 173.27L301.28 173.59L302.64 173.90L304.00 174.20L305.36 174.51L306.72 174.81L308.08 175.10L309.44 175.40L310.80 175.69L312.16 175.98L313.52 176.26L314.88 176.54L316.24 176.82L317.60 177.10L318.96 177.37L320.32 177.64L321.68 177.91L323.04 178.17L324.40 178.43L325.76 178.69L327.12 178.95L328.48 179.20L329.84 179.45L331.20 179.70L332.56 179.94L333.92 180.18L335.28 180.42L336.64 180.66L338.00 180.89L339.36 181.12L340.72 181.35L342.08 181.57L343.44 181.79L344.80 182.01L346.16 182.23L347.52 182.44L348.88 182.65L350.24 182.86L351.60 183.06L352.96 183.27L354.32 183.47L355.68 183.66L357.04 183.86L358.40 184.05L359.76 184.24L361.12 184.42L362.48 184.61L363.84 184.79L365.20 184.97L366.56 185.14L367.92 185.31L369.28 185.48L370.64 185.65L372.00 185.82L373.36 185.98L374.72 186.14L376.08 186.29L377.44 186.45L378.80 186.60L380.16 186.75L381.52 186.89L382.88 187.04L384.24 187.18L385.60 187.31L386.96 187.45L388.32 187.58L389.68 187.71L391.04 187.83L392.40 187.96L393.76 188.08L395.12 188.20L396.48 188.31L397.84 188.42L399.20 188.53L400.56 188.64L401.92 188.74L403.28 188.84L404.64 188.94L406.00 189.04L407.36 189.13L408.72 189.22L410.08 189.30L411.44 189.39L412.80 189.47L414.16 189.55L415.52 189.62L416.88 189.69L418.24 189.76L419.60 189.83L420.96 189.89L422.32 189.95L423.68 190.01L425.04 190.06L426.40 190.11L427.76 190.16L429.12 190.20L430.48 190.25L431.84 190.28L433.20 190.32L434.56 190.35L435.92 190.38L437.28 190.41L438.64 190.43L440.00 190.45L441.36 190.47L442.72 190.48L444.08 190.49L445.44 190.50L446.80 190.50L448.16 190.51L449.52 190.50L450.88 190.50L452.24 190.49L453.60 190.48L454.96 190.46L456.32 190.45L457.68 190.42L459.04 190.40L460.40 190.37L461.76 190.34L463.12 190.31L464.48 190.27L465.84 190.23L467.20 190.18L468.56 190.14L469.92 190.09L471.28 190.03L472.64 189.98L474.00 189.92L475.36 189.85L476.72 189.78L478.08 189.71L479.44 189.64L480.80 189.56L482.16 189.48L483.52 189.40L484.88 189.31L486.24 189.22L487.60 189.13L488.96 189.03L490.32 188.93L491.68 188.83L493.04 188.72L494.40 188.61L495.76 188.50L497.12 188.38L498.48 188.26L499.84 188.14L501.20 188.01L502.56 187.88L503.92 187.74L505.28 187.61L506.64 187.47L508.00 187.32L509.36 187.17L510.72 187.02L512.08 186.87L513.44 186.71L514.80 186.55L516.16 186.39L517.52 186.22L518.88 186.05L520.24 185.87L521.60 185.69L522.96 185.51L524.32 185.33L525.68 185.14L527.04 184.95L528.40 184.75L529.76 184.56L531.12 184.35L532.48 184.15L533.84 183.94L535.20 183.73L536.56 183.52L537.92 183.30L539.28 183.08L540.64 182.85L542.00 182.62L543.36 182.39L544.72 182.16L546.08 181.92L547.44 181.68L548.80 181.43L550.16 181.18L551.52 180.93L552.88 180.68L554.24 180.42L555.60 180.16L556.96 179.89L558.32 179.63L559.68 179.35L561.04 179.08L562.40 178.80L563.76 178.52L565.12 178.24L566.48 177.95L567.84 177.66L569.20 177.37L570.56 177.07L571.92 176.77L573.28 176.47L574.64 176.16L576.00 175.85L577.36 175.54L578.72 175.22L580.08 174.90L581.44 174.58L582.80 174.25L584.16 173.92L585.52 173.59L586.88 173.26L588.24 172.92L589.60 172.58L590.96 172.23L592.32 171.89L593.68 171.54L595.04 171.18L596.40 170.83L597.76 170.47L599.12 170.10L600.48 169.74L601.84 169.37L603.20 169.00L604.56 168.62L605.92 168.25L607.28 167.86L608.64 167.48L610.00 167.09" fill="none" stroke="#18181b" stroke-width="2"/>
<line x1="622" y1="44" x2="644" y2="44" stroke="#18181b" stroke-width="2"/>
<text x="650" y="48" font-size="11" fill="#3f3f46">PDE (truth)</text>
<path d="M66.00 78.25L67.36 79.07L68.72 79.88L70.08 80.70L71.44 81.51L72.80 82.32L74.16 83.13L75.52 83.93L76.88 84.73L78.24 85.53L79.60 86.33L80.96 87.13L82.32 87.92L83.68 88.71L85.04 89.50L86.40 90.28L87.76 91.07L89.12 91.85L90.48 92.62L91.84 93.40L93.20 94.17L94.56 94.94L95.92 95.71L97.28 96.47L98.64 97.23L100.00 97.99L101.36 98.75L102.72 99.50L104.08 100.25L105.44 101.00L106.80 101.75L108.16 102.49L109.52 103.23L110.88 103.97L112.24 104.70L113.60 105.43L114.96 106.16L116.32 106.89L117.68 107.61L119.04 108.33L120.40 109.05L121.76 109.77L123.12 110.48L124.48 111.19L125.84 111.89L127.20 112.60L128.56 113.30L129.92 114.00L131.28 114.69L132.64 115.38L134.00 116.07L135.36 116.76L136.72 117.44L138.08 118.12L139.44 118.80L140.80 119.47L142.16 120.14L143.52 120.81L144.88 121.48L146.24 122.14L147.60 122.80L148.96 123.46L150.32 124.11L151.68 124.76L153.04 125.41L154.40 126.05L155.76 126.69L157.12 127.33L158.48 127.96L159.84 128.60L161.20 129.22L162.56 129.85L163.92 130.47L165.28 131.09L166.64 131.71L168.00 132.32L169.36 132.93L170.72 133.54L172.08 134.14L173.44 134.74L174.80 135.34L176.16 135.93L177.52 136.52L178.88 137.11L180.24 137.69L181.60 138.27L182.96 138.85L184.32 139.43L185.68 140.00L187.04 140.57L188.40 141.13L189.76 141.69L191.12 142.25L192.48 142.81L193.84 143.36L195.20 143.91L196.56 144.45L197.92 144.99L199.28 145.53L200.64 146.07L202.00 146.60L203.36 147.13L204.72 147.65L206.08 148.17L207.44 148.69L208.80 149.21L210.16 149.72L211.52 150.23L212.88 150.74L214.24 151.24L215.60 151.74L216.96 152.23L218.32 152.72L219.68 153.21L221.04 153.70L222.40 154.18L223.76 154.66L225.12 155.14L226.48 155.61L227.84 156.08L229.20 156.54L230.56 157.00L231.92 157.46L233.28 157.92L234.64 158.37L236.00 158.82L237.36 159.27L238.72 159.71L240.08 160.15L241.44 160.58L242.80 161.02L244.16 161.44L245.52 161.87L246.88 162.29L248.24 162.71L249.60 163.13L250.96 163.54L252.32 163.95L253.68 164.36L255.04 164.76L256.40 165.16L257.76 165.55L259.12 165.95L260.48 166.34L261.84 166.72L263.20 167.11L264.56 167.49L265.92 167.86L267.28 168.24L268.64 168.61L270.00 168.98L271.36 169.34L272.72 169.70L274.08 170.06L275.44 170.41L276.80 170.76L278.16 171.11L279.52 171.46L280.88 171.80L282.24 172.14L283.60 172.47L284.96 172.81L286.32 173.13L287.68 173.46L289.04 173.78L290.40 174.10L291.76 174.42L293.12 174.74L294.48 175.05L295.84 175.35L297.20 175.66L298.56 175.96L299.92 176.26L301.28 176.56L302.64 176.85L304.00 177.14L305.36 177.43L306.72 177.71L308.08 177.99L309.44 178.27L310.80 178.55L312.16 178.82L313.52 179.09L314.88 179.36L316.24 179.62L317.60 179.88L318.96 180.14L320.32 180.40L321.68 180.65L323.04 180.90L324.40 181.15L325.76 181.39L327.12 181.64L328.48 181.88L329.84 182.11L331.20 182.35L332.56 182.58L333.92 182.81L335.28 183.04L336.64 183.26L338.00 183.48L339.36 183.70L340.72 183.92L342.08 184.13L343.44 184.34L344.80 184.55L346.16 184.76L347.52 184.96L348.88 185.17L350.24 185.36L351.60 185.56L352.96 185.76L354.32 185.95L355.68 186.14L357.04 186.33L358.40 186.51L359.76 186.70L361.12 186.88L362.48 187.06L363.84 187.23L365.20 187.41L366.56 187.58L367.92 187.75L369.28 187.92L370.64 188.08L372.00 188.25L373.36 188.41L374.72 188.56L376.08 188.72L377.44 188.87L378.80 189.02L380.16 189.17L381.52 189.32L382.88 189.46L384.24 189.60L385.60 189.74L386.96 189.88L388.32 190.01L389.68 190.14L391.04 190.27L392.40 190.39L393.76 190.52L395.12 190.64L396.48 190.75L397.84 190.87L399.20 190.98L400.56 191.09L401.92 191.20L403.28 191.30L404.64 191.40L406.00 191.50L407.36 191.60L408.72 191.69L410.08 191.78L411.44 191.87L412.80 191.96L414.16 192.04L415.52 192.12L416.88 192.19L418.24 192.27L419.60 192.34L420.96 192.41L422.32 192.47L423.68 192.53L425.04 192.59L426.40 192.65L427.76 192.70L429.12 192.75L430.48 192.80L431.84 192.84L433.20 192.88L434.56 192.92L435.92 192.96L437.28 192.99L438.64 193.02L440.00 193.05L441.36 193.07L442.72 193.09L444.08 193.11L445.44 193.12L446.80 193.13L448.16 193.14L449.52 193.14L450.88 193.15L452.24 193.14L453.60 193.14L454.96 193.13L456.32 193.12L457.68 193.11L459.04 193.09L460.40 193.07L461.76 193.04L463.12 193.02L464.48 192.99L465.84 192.95L467.20 192.92L468.56 192.88L469.92 192.83L471.28 192.79L472.64 192.74L474.00 192.69L475.36 192.63L476.72 192.57L478.08 192.51L479.44 192.44L480.80 192.37L482.16 192.30L483.52 192.23L484.88 192.15L486.24 192.06L487.60 191.98L488.96 191.89L490.32 191.80L491.68 191.70L493.04 191.60L494.40 191.50L495.76 191.40L497.12 191.29L498.48 191.18L499.84 191.06L501.20 190.94L502.56 190.82L503.92 190.69L505.28 190.57L506.64 190.43L508.00 190.30L509.36 190.16L510.72 190.02L512.08 189.87L513.44 189.72L514.80 189.57L516.16 189.42L517.52 189.26L518.88 189.10L520.24 188.93L521.60 188.76L522.96 188.59L524.32 188.41L525.68 188.24L527.04 188.05L528.40 187.87L529.76 187.68L531.12 187.49L532.48 187.29L533.84 187.09L535.20 186.89L536.56 186.69L537.92 186.48L539.28 186.27L540.64 186.05L542.00 185.83L543.36 185.61L544.72 185.39L546.08 185.16L547.44 184.93L548.80 184.69L550.16 184.46L551.52 184.21L552.88 183.97L554.24 183.72L555.60 183.47L556.96 183.22L558.32 182.96L559.68 182.70L561.04 182.43L562.40 182.17L563.76 181.90L565.12 181.62L566.48 181.35L567.84 181.07L569.20 180.78L570.56 180.50L571.92 180.21L573.28 179.92L574.64 179.62L576.00 179.32L577.36 179.02L578.72 178.71L580.08 178.41L581.44 178.09L582.80 177.78L584.16 177.46L585.52 177.14L586.88 176.82L588.24 176.49L589.60 176.16L590.96 175.83L592.32 175.49L593.68 175.15L595.04 174.81L596.40 174.47L597.76 174.12L599.12 173.77L600.48 173.41L601.84 173.06L603.20 172.70L604.56 172.34L605.92 171.97L607.28 171.60L608.64 171.23L610.00 170.86" fill="none" stroke="#a1a1aa" stroke-width="1.5" stroke-dasharray="5 4"/>
<line x1="622" y1="61" x2="644" y2="61" stroke="#a1a1aa" stroke-width="1.5" stroke-dasharray="5 4"/>
<text x="650" y="65" font-size="11" fill="#3f3f46">BBF0</text>
<path d="M66.00 71.14L67.36 71.99L68.72 72.84L70.08 73.69L71.44 74.53L72.80 75.37L74.16 76.21L75.52 77.05L76.88 77.88L78.24 78.71L79.60 79.54L80.96 80.37L82.32 81.19L83.68 82.02L85.04 82.83L86.40 83.65L87.76 84.46L89.12 85.27L90.48 86.08L91.84 86.89L93.20 87.69L94.56 88.49L95.92 89.29L97.28 90.08L98.64 90.87L100.00 91.66L101.36 92.45L102.72 93.23L104.08 94.01L105.44 94.79L106.80 95.57L108.16 96.34L109.52 97.11L110.88 97.87L112.24 98.64L113.60 99.40L114.96 100.16L116.32 100.91L117.68 101.67L119.04 102.41L120.40 103.16L121.76 103.90L123.12 104.65L124.48 105.38L125.84 106.12L127.20 106.85L128.56 107.58L129.92 108.30L131.28 109.03L132.64 109.75L134.00 110.46L135.36 111.18L136.72 111.89L138.08 112.60L139.44 113.30L140.80 114.00L142.16 114.70L143.52 115.40L144.88 116.09L146.24 116.78L147.60 117.46L148.96 118.15L150.32 118.83L151.68 119.50L153.04 120.18L154.40 120.85L155.76 121.51L157.12 122.18L158.48 122.84L159.84 123.50L161.20 124.15L162.56 124.80L163.92 125.45L165.28 126.10L166.64 126.74L168.00 127.38L169.36 128.01L170.72 128.64L172.08 129.27L173.44 129.90L174.80 130.52L176.16 131.14L177.52 131.75L178.88 132.36L180.24 132.97L181.60 133.58L182.96 134.18L184.32 134.78L185.68 135.38L187.04 135.97L188.40 136.56L189.76 137.14L191.12 137.72L192.48 138.30L193.84 138.88L195.20 139.45L196.56 140.02L197.92 140.59L199.28 141.15L200.64 141.71L202.00 142.26L203.36 142.81L204.72 143.36L206.08 143.91L207.44 144.45L208.80 144.99L210.16 145.52L211.52 146.05L212.88 146.58L214.24 147.11L215.60 147.63L216.96 148.15L218.32 148.66L219.68 149.17L221.04 149.68L222.40 150.18L223.76 150.68L225.12 151.18L226.48 151.68L227.84 152.17L229.20 152.65L230.56 153.14L231.92 153.62L233.28 154.10L234.64 154.57L236.00 155.04L237.36 155.51L238.72 155.97L240.08 156.43L241.44 156.89L242.80 157.34L244.16 157.79L245.52 158.24L246.88 158.68L248.24 159.12L249.60 159.56L250.96 159.99L252.32 160.42L253.68 160.85L255.04 161.27L256.40 161.69L257.76 162.11L259.12 162.52L260.48 162.93L261.84 163.34L263.20 163.74L264.56 164.14L265.92 164.54L267.28 164.93L268.64 165.32L270.00 165.71L271.36 166.09L272.72 166.47L274.08 166.85L275.44 167.22L276.80 167.59L278.16 167.96L279.52 168.32L280.88 168.68L282.24 169.04L283.60 169.40L284.96 169.75L286.32 170.09L287.68 170.44L289.04 170.78L290.40 171.12L291.76 171.46L293.12 171.79L294.48 172.12L295.84 172.45L297.20 172.77L298.56 173.09L299.92 173.41L301.28 173.72L302.64 174.03L304.00 174.34L305.36 174.65L306.72 174.95L308.08 175.25L309.44 175.54L310.80 175.84L312.16 176.13L313.52 176.42L314.88 176.70L316.24 176.98L317.60 177.26L318.96 177.54L320.32 177.81L321.68 178.08L323.04 178.35L324.40 178.62L325.76 178.88L327.12 179.14L328.48 179.39L329.84 179.65L331.20 179.90L332.56 180.15L333.92 180.40L335.28 180.64L336.64 180.88L338.00 181.12L339.36 181.36L340.72 181.59L342.08 181.82L343.44 182.05L344.80 182.27L346.16 182.50L347.52 182.72L348.88 182.94L350.24 183.15L351.60 183.37L352.96 183.58L354.32 183.79L355.68 183.99L357.04 184.20L358.40 184.40L359.76 184.59L361.12 184.76L362.48 184.93L363.84 185.10L365.20 185.27L366.56 185.44L367.92 185.60L369.28 185.76L370.64 185.92L372.00 186.07L373.36 186.23L374.72 186.38L376.08 186.53L377.44 186.67L378.80 186.82L380.16 186.96L381.52 187.10L382.88 187.23L384.24 187.37L385.60 187.50L386.96 187.63L388.32 187.76L389.68 187.88L391.04 188.00L392.40 188.12L393.76 188.23L395.12 188.35L396.48 188.46L397.84 188.57L399.20 188.67L400.56 188.77L401.92 188.87L403.28 188.97L404.64 189.07L406.00 189.16L407.36 189.25L408.72 189.33L410.08 189.42L411.44 189.50L412.80 189.57L414.16 189.65L415.52 189.72L416.88 189.79L418.24 189.86L419.60 189.92L420.96 189.98L422.32 190.04L423.68 190.09L425.04 190.15L426.40 190.19L427.76 190.24L429.12 190.28L430.48 190.32L431.84 190.36L433.20 190.39L434.56 190.42L435.92 190.45L437.28 190.48L438.64 190.50L440.00 190.52L441.36 190.53L442.72 190.55L444.08 190.56L445.44 190.56L446.80 190.56L448.16 190.56L449.52 190.56L450.88 190.56L452.24 190.55L453.60 190.53L454.96 190.52L456.32 190.50L457.68 190.48L459.04 190.45L460.40 190.42L461.76 190.39L463.12 190.36L464.48 190.32L465.84 190.28L467.20 190.23L468.56 190.19L469.92 190.13L471.28 190.08L472.64 190.02L474.00 189.96L475.36 189.90L476.72 189.83L478.08 189.76L479.44 189.69L480.80 189.61L482.16 189.53L483.52 189.44L484.88 189.36L486.24 189.27L487.60 189.17L488.96 189.07L490.32 188.97L491.68 188.87L493.04 188.76L494.40 188.65L495.76 188.54L497.12 188.42L498.48 188.30L499.84 188.18L501.20 188.05L502.56 187.92L503.92 187.78L505.28 187.65L506.64 187.51L508.00 187.36L509.36 187.21L510.72 187.06L512.08 186.91L513.44 186.75L514.80 186.59L516.16 186.42L517.52 186.26L518.88 186.09L520.24 185.91L521.60 185.73L522.96 185.55L524.32 185.37L525.68 185.18L527.04 184.99L528.40 184.79L529.76 184.60L531.12 184.39L532.48 184.19L533.84 183.98L535.20 183.77L536.56 183.56L537.92 183.34L539.28 183.12L540.64 182.89L542.00 182.66L543.36 182.43L544.72 182.20L546.08 181.96L547.44 181.72L548.80 181.47L550.16 181.22L551.52 180.97L552.88 180.72L554.24 180.46L555.60 180.20L556.96 179.94L558.32 179.67L559.68 179.40L561.04 179.12L562.40 178.84L563.76 178.56L565.12 178.28L566.48 177.99L567.84 177.70L569.20 177.41L570.56 177.11L571.92 176.81L573.28 176.51L574.64 176.20L576.00 175.89L577.36 175.58L578.72 175.26L580.08 174.95L581.44 174.62L582.80 174.30L584.16 173.97L585.52 173.64L586.88 173.30L588.24 172.96L589.60 172.62L590.96 172.28L592.32 171.93L593.68 171.58L595.04 171.23L596.40 170.87L597.76 170.51L599.12 170.15L600.48 169.79L601.84 169.42L603.20 169.05L604.56 168.67L605.92 168.29L607.28 167.91L608.64 167.53L610.00 167.15" fill="none" stroke="#2563eb" stroke-width="1.5"/>
<line x1="622" y1="78" x2="644" y2="78" stroke="#2563eb" stroke-width="1.5"/>
<text x="650" y="82" font-size="11" fill="#3f3f46">PHL1</text>
<path d="M66.00 71.14L67.36 71.99L68.72 72.84L70.08 73.68L71.44 74.53L72.80 75.37L74.16 76.21L75.52 77.05L76.88 77.88L78.24 78.71L79.60 79.54L80.96 80.37L82.32 81.19L83.68 82.01L85.04 82.83L86.40 83.65L87.76 84.46L89.12 85.27L90.48 86.08L91.84 86.88L93.20 87.69L94.56 88.49L95.92 89.28L97.28 90.08L98.64 90.87L100.00 91.66L101.36 92.45L102.72 93.23L104.08 94.01L105.44 94.79L106.80 95.56L108.16 96.34L109.52 97.11L110.88 97.87L112.24 98.64L113.60 99.40L114.96 100.15L116.32 100.91L117.68 101.66L119.04 102.41L120.40 103.16L121.76 103.90L123.12 104.64L124.48 105.38L125.84 106.11L127.20 106.85L128.56 107.57L129.92 108.30L131.28 109.02L132.64 109.74L134.00 110.46L135.36 111.17L136.72 111.88L138.08 112.59L139.44 113.30L140.80 114.00L142.16 114.70L143.52 115.39L144.88 116.08L146.24 116.77L147.60 117.46L148.96 118.14L150.32 118.82L151.68 119.50L153.04 120.17L154.40 120.84L155.76 121.51L157.12 122.17L158.48 122.83L159.84 123.49L161.20 124.15L162.56 124.80L163.92 125.44L165.28 126.09L166.64 126.73L168.00 127.37L169.36 128.00L170.72 128.63L172.08 129.26L173.44 129.89L174.80 130.51L176.16 131.13L177.52 131.74L178.88 132.36L180.24 132.96L181.60 133.57L182.96 134.17L184.32 134.77L185.68 135.37L187.04 135.96L188.40 136.55L189.76 137.13L191.12 137.71L192.48 138.29L193.84 138.87L195.20 139.44L196.56 140.01L197.92 140.57L199.28 141.14L200.64 141.69L202.00 142.25L203.36 142.80L204.72 143.35L206.08 143.89L207.44 144.44L208.80 144.97L210.16 145.51L211.52 146.04L212.88 146.57L214.24 147.09L215.60 147.61L216.96 148.13L218.32 148.64L219.68 149.15L221.04 149.66L222.40 150.17L223.76 150.67L225.12 151.16L226.48 151.66L227.84 152.15L229.20 152.63L230.56 153.12L231.92 153.60L233.28 154.07L234.64 154.55L236.00 155.02L237.36 155.48L238.72 155.95L240.08 156.41L241.44 156.86L242.80 157.31L244.16 157.76L245.52 158.21L246.88 158.65L248.24 159.09L249.60 159.53L250.96 159.96L252.32 160.39L253.68 160.81L255.04 161.24L256.40 161.66L257.76 162.07L259.12 162.48L260.48 162.89L261.84 163.30L263.20 163.70L264.56 164.10L265.92 164.49L267.28 164.89L268.64 165.28L270.00 165.66L271.36 166.04L272.72 166.42L274.08 166.80L275.44 167.17L276.80 167.54L278.16 167.91L279.52 168.27L280.88 168.63L282.24 168.98L283.60 169.34L284.96 169.69L286.32 170.03L287.68 170.38L289.04 170.72L290.40 171.05L291.76 171.39L293.12 171.72L294.48 172.04L295.84 172.37L297.20 172.69L298.56 173.01L299.92 173.32L301.28 173.63L302.64 173.94L304.00 174.25L305.36 174.55L306.72 174.85L308.08 175.15L309.44 175.44L310.80 175.73L312.16 176.02L313.52 176.30L314.88 176.58L316.24 176.86L317.60 177.14L318.96 177.41L320.32 177.68L321.68 177.95L323.04 178.21L324.40 178.47L325.76 178.73L327.12 178.98L328.48 179.24L329.84 179.49L331.20 179.73L332.56 179.97L333.92 180.22L335.28 180.45L336.64 180.69L338.00 180.92L339.36 181.15L340.72 181.38L342.08 181.60L343.44 181.82L344.80 182.04L346.16 182.25L347.52 182.47L348.88 182.68L350.24 182.88L351.60 183.09L352.96 183.29L354.32 183.49L355.68 183.69L357.04 183.88L358.40 184.07L359.76 184.26L361.12 184.44L362.48 184.63L363.84 184.81L365.20 184.99L366.56 185.16L367.92 185.33L369.28 185.50L370.64 185.67L372.00 185.83L373.36 185.99L374.72 186.15L376.08 186.31L377.44 186.46L378.80 186.61L380.16 186.76L381.52 186.91L382.88 187.05L384.24 187.19L385.60 187.33L386.96 187.46L388.32 187.59L389.68 187.72L391.04 187.85L392.40 187.97L393.76 188.09L395.12 188.21L396.48 188.32L397.84 188.44L399.20 188.55L400.56 188.65L401.92 188.76L403.28 188.86L404.64 188.95L406.00 189.05L407.36 189.14L408.72 189.23L410.08 189.32L411.44 189.40L412.80 189.48L414.16 189.56L415.52 189.63L416.88 189.71L418.24 189.77L419.60 189.84L420.96 189.90L422.32 189.96L423.68 190.02L425.04 190.07L426.40 190.12L427.76 190.17L429.12 190.22L430.48 190.26L431.84 190.30L433.20 190.33L434.56 190.37L435.92 190.40L437.28 190.42L438.64 190.45L440.00 190.47L441.36 190.48L442.72 190.50L444.08 190.51L445.44 190.51L446.80 190.52L448.16 190.52L449.52 190.52L450.88 190.51L452.24 190.51L453.60 190.49L454.96 190.48L456.32 190.46L457.68 190.44L459.04 190.42L460.40 190.39L461.76 190.36L463.12 190.32L464.48 190.29L465.84 190.25L467.20 190.20L468.56 190.16L469.92 190.11L471.28 190.05L472.64 190.00L474.00 189.93L475.36 189.87L476.72 189.80L478.08 189.73L479.44 189.66L480.80 189.58L482.16 189.50L483.52 189.42L484.88 189.33L486.24 189.24L487.60 189.15L488.96 189.05L490.32 188.95L491.68 188.85L493.04 188.74L494.40 188.63L495.76 188.52L497.12 188.40L498.48 188.28L499.84 188.16L501.20 188.03L502.56 187.90L503.92 187.77L505.28 187.63L506.64 187.49L508.00 187.35L509.36 187.20L510.72 187.05L512.08 186.89L513.44 186.74L514.80 186.58L516.16 186.41L517.52 186.24L518.88 186.07L520.24 185.90L521.60 185.72L522.96 185.54L524.32 185.36L525.68 185.17L527.04 184.98L528.40 184.78L529.76 184.59L531.12 184.38L532.48 184.18L533.84 183.97L535.20 183.76L536.56 183.55L537.92 183.33L539.28 183.11L540.64 182.88L542.00 182.65L543.36 182.42L544.72 182.19L546.08 181.95L547.44 181.71L548.80 181.47L550.16 181.22L551.52 180.97L552.88 180.71L554.24 180.45L555.60 180.19L556.96 179.93L558.32 179.66L559.68 179.39L561.04 179.12L562.40 178.84L563.76 178.56L565.12 178.27L566.48 177.99L567.84 177.70L569.20 177.40L570.56 177.11L571.92 176.81L573.28 176.50L574.64 176.20L576.00 175.89L577.36 175.58L578.72 175.26L580.08 174.94L581.44 174.62L582.80 174.29L584.16 173.96L585.52 173.63L586.88 173.30L588.24 172.96L589.60 172.62L590.96 172.28L592.32 171.93L593.68 171.58L595.04 171.23L596.40 170.87L597.76 170.51L599.12 170.15L600.48 169.78L601.84 169.41L603.20 169.04L604.56 168.67L605.92 168.29L607.28 167.91L608.64 167.53L610.00 167.14" fill="none" stroke="#dc2626" stroke-width="1.8"/>
<line x1="622" y1="95" x2="644" y2="95" stroke="#dc2626" stroke-width="1.8"/>
<text x="650" y="99" font-size="11" fill="#3f3f46">PHL1c</text>
<path d="M66.00 70.92L67.36 71.78L68.72 72.63L70.08 73.48L71.44 74.32L72.80 75.17L74.16 76.01L75.52 76.85L76.88 77.68L78.24 78.51L79.60 79.35L80.96 80.17L82.32 81.00L83.68 81.82L85.04 82.64L86.40 83.46L87.76 84.27L89.12 85.09L90.48 85.90L91.84 86.70L93.20 87.51L94.56 88.31L95.92 89.11L97.28 89.90L98.64 90.70L100.00 91.49L101.36 92.28L102.72 93.06L104.08 93.84L105.44 94.62L106.80 95.40L108.16 96.17L109.52 96.94L110.88 97.71L112.24 98.48L113.60 99.24L114.96 100.00L116.32 100.76L117.68 101.51L119.04 102.26L120.40 103.01L121.76 103.75L123.12 104.50L124.48 105.23L125.84 105.97L127.20 106.70L128.56 107.43L129.92 108.16L131.28 108.89L132.64 109.61L134.00 110.32L135.36 111.04L136.72 111.75L138.08 112.46L139.44 113.17L140.80 113.87L142.16 114.57L143.52 115.27L144.88 115.96L146.24 116.65L147.60 117.34L148.96 118.02L150.32 118.70L151.68 119.38L153.04 120.05L154.40 120.73L155.76 121.39L157.12 122.06L158.48 122.72L159.84 123.38L161.20 124.04L162.56 124.69L163.92 125.34L165.28 125.98L166.64 126.63L168.00 127.27L169.36 127.90L170.72 128.53L172.08 129.16L173.44 129.79L174.80 130.41L176.16 131.03L177.52 131.65L178.88 132.26L180.24 132.87L181.60 133.48L182.96 134.08L184.32 134.68L185.68 135.28L187.04 135.87L188.40 136.46L189.76 137.05L191.12 137.63L192.48 138.21L193.84 138.79L195.20 139.36L196.56 139.93L197.92 140.50L199.28 141.06L200.64 141.62L202.00 142.17L203.36 142.73L204.72 143.28L206.08 143.82L207.44 144.37L208.80 144.90L210.16 145.44L211.52 145.97L212.88 146.50L214.24 147.03L215.60 147.55L216.96 148.07L218.32 148.58L219.68 149.10L221.04 149.60L222.40 150.11L223.76 150.61L225.12 151.11L226.48 151.60L227.84 152.10L229.20 152.58L230.56 153.07L231.92 153.55L233.28 154.03L234.64 154.50L236.00 154.97L237.36 155.44L238.72 155.90L240.08 156.37L241.44 156.82L242.80 157.28L244.16 157.73L245.52 158.17L246.88 158.62L248.24 159.06L249.60 159.50L250.96 159.93L252.32 160.36L253.68 160.79L255.04 161.21L256.40 161.63L257.76 162.05L259.12 162.46L260.48 162.87L261.84 163.28L263.20 163.68L264.56 164.08L265.92 164.48L267.28 164.88L268.64 165.27L270.00 165.65L271.36 166.04L272.72 166.42L274.08 166.80L275.44 167.17L276.80 167.54L278.16 167.91L279.52 168.27L280.88 168.64L282.24 168.99L283.60 169.35L284.96 169.70L286.32 170.05L287.68 170.40L289.04 170.74L290.40 171.08L291.76 171.41L293.12 171.75L294.48 172.08L295.84 172.40L297.20 172.73L298.56 173.05L299.92 173.37L301.28 173.68L302.64 173.99L304.00 174.30L305.36 174.61L306.72 174.91L308.08 175.21L309.44 175.51L310.80 175.80L312.16 176.09L313.52 176.38L314.88 176.66L316.24 176.95L317.60 177.23L318.96 177.50L320.32 177.78L321.68 178.05L323.04 178.32L324.40 178.58L325.76 178.85L327.12 179.11L328.48 179.36L329.84 179.62L331.20 179.87L332.56 180.12L333.92 180.37L335.28 180.61L336.64 180.85L338.00 181.09L339.36 181.33L340.72 181.56L342.08 181.79L343.44 182.02L344.80 182.25L346.16 182.47L347.52 182.69L348.88 182.91L350.24 183.13L351.60 183.34L352.96 183.55L354.32 183.76L355.68 183.97L357.04 184.18L358.40 184.38L359.76 184.58L361.12 184.76L362.48 184.93L363.84 185.10L365.20 185.26L366.56 185.43L367.92 185.59L369.28 185.75L370.64 185.91L372.00 186.07L373.36 186.22L374.72 186.37L376.08 186.52L377.44 186.67L378.80 186.81L380.16 186.95L381.52 187.09L382.88 187.23L384.24 187.36L385.60 187.49L386.96 187.62L388.32 187.75L389.68 187.87L391.04 187.99L392.40 188.11L393.76 188.23L395.12 188.34L396.48 188.45L397.84 188.56L399.20 188.66L400.56 188.76L401.92 188.86L403.28 188.96L404.64 189.06L406.00 189.15L407.36 189.24L408.72 189.32L410.08 189.41L411.44 189.49L412.80 189.56L414.16 189.64L415.52 189.71L416.88 189.78L418.24 189.84L419.60 189.91L420.96 189.97L422.32 190.03L423.68 190.08L425.04 190.13L426.40 190.18L427.76 190.23L429.12 190.27L430.48 190.31L431.84 190.35L433.20 190.38L434.56 190.41L435.92 190.44L437.28 190.46L438.64 190.48L440.00 190.50L441.36 190.52L442.72 190.53L444.08 190.54L445.44 190.55L446.80 190.55L448.16 190.55L449.52 190.55L450.88 190.54L452.24 190.53L453.60 190.52L454.96 190.50L456.32 190.48L457.68 190.46L459.04 190.43L460.40 190.41L461.76 190.37L463.12 190.34L464.48 190.30L465.84 190.26L467.20 190.21L468.56 190.17L469.92 190.12L471.28 190.06L472.64 190.00L474.00 189.94L475.36 189.88L476.72 189.81L478.08 189.74L479.44 189.67L480.80 189.59L482.16 189.51L483.52 189.42L484.88 189.34L486.24 189.24L487.60 189.15L488.96 189.05L490.32 188.95L491.68 188.85L493.04 188.74L494.40 188.63L495.76 188.52L497.12 188.40L498.48 188.28L499.84 188.15L501.20 188.02L502.56 187.89L503.92 187.76L505.28 187.62L506.64 187.48L508.00 187.34L509.36 187.19L510.72 187.04L512.08 186.88L513.44 186.73L514.80 186.56L516.16 186.40L517.52 186.23L518.88 186.06L520.24 185.89L521.60 185.71L522.96 185.53L524.32 185.34L525.68 185.15L527.04 184.96L528.40 184.77L529.76 184.57L531.12 184.37L532.48 184.16L533.84 183.95L535.20 183.74L536.56 183.53L537.92 183.31L539.28 183.09L540.64 182.86L542.00 182.63L543.36 182.40L544.72 182.17L546.08 181.93L547.44 181.69L548.80 181.44L550.16 181.19L551.52 180.94L552.88 180.69L554.24 180.43L555.60 180.17L556.96 179.90L558.32 179.63L559.68 179.36L561.04 179.09L562.40 178.81L563.76 178.53L565.12 178.25L566.48 177.96L567.84 177.67L569.20 177.37L570.56 177.08L571.92 176.78L573.28 176.47L574.64 176.17L576.00 175.86L577.36 175.54L578.72 175.23L580.08 174.91L581.44 174.59L582.80 174.26L584.16 173.93L585.52 173.60L586.88 173.26L588.24 172.93L589.60 172.58L590.96 172.24L592.32 171.89L593.68 171.54L595.04 171.19L596.40 170.83L597.76 170.47L599.12 170.11L600.48 169.74L601.84 169.38L603.20 169.00L604.56 168.63L605.92 168.25L607.28 167.87L608.64 167.49L610.00 167.10" fill="none" stroke="#0d9488" stroke-width="1.5"/>
<line x1="622" y1="112" x2="644" y2="112" stroke="#0d9488" stroke-width="1.5"/>
<text x="650" y="116" font-size="11" fill="#3f3f46">GHLOW2</text>
<path d="M66.00 70.92L67.36 71.77L68.72 72.63L70.08 73.47L71.44 74.32L72.80 75.16L74.16 76.00L75.52 76.84L76.88 77.68L78.24 78.51L79.60 79.34L80.96 80.17L82.32 81.00L83.68 81.82L85.04 82.64L86.40 83.46L87.76 84.27L89.12 85.08L90.48 85.89L91.84 86.70L93.20 87.51L94.56 88.31L95.92 89.11L97.28 89.90L98.64 90.70L100.00 91.49L101.36 92.27L102.72 93.06L104.08 93.84L105.44 94.62L106.80 95.40L108.16 96.17L109.52 96.94L110.88 97.71L112.24 98.47L113.60 99.24L114.96 100.00L116.32 100.75L117.68 101.51L119.04 102.26L120.40 103.01L121.76 103.75L123.12 104.49L124.48 105.23L125.84 105.97L127.20 106.70L128.56 107.43L129.92 108.16L131.28 108.88L132.64 109.60L134.00 110.32L135.36 111.04L136.72 111.75L138.08 112.46L139.44 113.16L140.80 113.86L142.16 114.56L143.52 115.26L144.88 115.95L146.24 116.64L147.60 117.33L148.96 118.02L150.32 118.70L151.68 119.37L153.04 120.05L154.40 120.72L155.76 121.39L157.12 122.05L158.48 122.72L159.84 123.37L161.20 124.03L162.56 124.68L163.92 125.33L165.28 125.98L166.64 126.62L168.00 127.26L169.36 127.89L170.72 128.53L172.08 129.16L173.44 129.78L174.80 130.40L176.16 131.02L177.52 131.64L178.88 132.25L180.24 132.86L181.60 133.47L182.96 134.07L184.32 134.67L185.68 135.27L187.04 135.86L188.40 136.45L189.76 137.04L191.12 137.62L192.48 138.20L193.84 138.78L195.20 139.35L196.56 139.92L197.92 140.48L199.28 141.05L200.64 141.61L202.00 142.16L203.36 142.71L204.72 143.26L206.08 143.81L207.44 144.35L208.80 144.89L210.16 145.43L211.52 145.96L212.88 146.49L214.24 147.01L215.60 147.53L216.96 148.05L218.32 148.57L219.68 149.08L221.04 149.59L222.40 150.09L223.76 150.59L225.12 151.09L226.48 151.58L227.84 152.08L229.20 152.56L230.56 153.05L231.92 153.53L233.28 154.01L234.64 154.48L236.00 154.95L237.36 155.42L238.72 155.88L240.08 156.34L241.44 156.80L242.80 157.25L244.16 157.70L245.52 158.15L246.88 158.59L248.24 159.03L249.60 159.47L250.96 159.90L252.32 160.33L253.68 160.76L255.04 161.18L256.40 161.60L257.76 162.01L259.12 162.43L260.48 162.84L261.84 163.24L263.20 163.65L264.56 164.04L265.92 164.44L267.28 164.83L268.64 165.22L270.00 165.61L271.36 165.99L272.72 166.37L274.08 166.75L275.44 167.12L276.80 167.49L278.16 167.86L279.52 168.22L280.88 168.58L282.24 168.94L283.60 169.29L284.96 169.64L286.32 169.99L287.68 170.33L289.04 170.67L290.40 171.01L291.76 171.34L293.12 171.67L294.48 172.00L295.84 172.33L297.20 172.65L298.56 172.97L299.92 173.28L301.28 173.59L302.64 173.90L304.00 174.21L305.36 174.51L306.72 174.81L308.08 175.11L309.44 175.40L310.80 175.69L312.16 175.98L313.52 176.27L314.88 176.55L316.24 176.83L317.60 177.10L318.96 177.38L320.32 177.65L321.68 177.91L323.04 178.18L324.40 178.44L325.76 178.70L327.12 178.95L328.48 179.20L329.84 179.45L331.20 179.70L332.56 179.94L333.92 180.19L335.28 180.42L336.64 180.66L338.00 180.89L339.36 181.12L340.72 181.35L342.08 181.57L343.44 181.79L344.80 182.01L346.16 182.23L347.52 182.44L348.88 182.65L350.24 182.86L351.60 183.06L352.96 183.27L354.32 183.46L355.68 183.66L357.04 183.86L358.40 184.05L359.76 184.23L361.12 184.42L362.48 184.60L363.84 184.78L365.20 184.96L366.56 185.14L367.92 185.31L369.28 185.48L370.64 185.65L372.00 185.81L373.36 185.97L374.72 186.13L376.08 186.29L377.44 186.44L378.80 186.59L380.16 186.74L381.52 186.89L382.88 187.03L384.24 187.17L385.60 187.31L386.96 187.44L388.32 187.57L389.68 187.70L391.04 187.83L392.40 187.95L393.76 188.07L395.12 188.19L396.48 188.31L397.84 188.42L399.20 188.53L400.56 188.64L401.92 188.74L403.28 188.84L404.64 188.94L406.00 189.03L407.36 189.13L408.72 189.22L410.08 189.30L411.44 189.39L412.80 189.47L414.16 189.55L415.52 189.62L416.88 189.69L418.24 189.76L419.60 189.83L420.96 189.89L422.32 189.95L423.68 190.01L425.04 190.06L426.40 190.11L427.76 190.16L429.12 190.21L430.48 190.25L431.84 190.29L433.20 190.32L434.56 190.36L435.92 190.38L437.28 190.41L438.64 190.43L440.00 190.46L441.36 190.47L442.72 190.49L444.08 190.50L445.44 190.51L446.80 190.51L448.16 190.51L449.52 190.51L450.88 190.50L452.24 190.50L453.60 190.49L454.96 190.47L456.32 190.45L457.68 190.43L459.04 190.41L460.40 190.38L461.76 190.35L463.12 190.32L464.48 190.28L465.84 190.24L467.20 190.20L468.56 190.15L469.92 190.10L471.28 190.04L472.64 189.99L474.00 189.93L475.36 189.86L476.72 189.80L478.08 189.73L479.44 189.65L480.80 189.58L482.16 189.50L483.52 189.41L484.88 189.33L486.24 189.24L487.60 189.14L488.96 189.05L490.32 188.95L491.68 188.84L493.04 188.74L494.40 188.63L495.76 188.51L497.12 188.40L498.48 188.28L499.84 188.15L501.20 188.03L502.56 187.90L503.92 187.76L505.28 187.63L506.64 187.49L508.00 187.34L509.36 187.19L510.72 187.04L512.08 186.89L513.44 186.73L514.80 186.57L516.16 186.41L517.52 186.24L518.88 186.07L520.24 185.90L521.60 185.72L522.96 185.54L524.32 185.35L525.68 185.16L527.04 184.97L528.40 184.78L529.76 184.58L531.12 184.38L532.48 184.18L533.84 183.97L535.20 183.76L536.56 183.54L537.92 183.32L539.28 183.10L540.64 182.88L542.00 182.65L543.36 182.42L544.72 182.18L546.08 181.95L547.44 181.71L548.80 181.46L550.16 181.21L551.52 180.96L552.88 180.71L554.24 180.45L555.60 180.19L556.96 179.92L558.32 179.66L559.68 179.39L561.04 179.11L562.40 178.83L563.76 178.55L565.12 178.27L566.48 177.98L567.84 177.69L569.20 177.40L570.56 177.10L571.92 176.80L573.28 176.50L574.64 176.19L576.00 175.88L577.36 175.57L578.72 175.25L580.08 174.94L581.44 174.61L582.80 174.29L584.16 173.96L585.52 173.63L586.88 173.29L588.24 172.96L589.60 172.61L590.96 172.27L592.32 171.92L593.68 171.57L595.04 171.22L596.40 170.86L597.76 170.51L599.12 170.14L600.48 169.78L601.84 169.41L603.20 169.04L604.56 168.66L605.92 168.29L607.28 167.91L608.64 167.52L610.00 167.14" fill="none" stroke="#ea580c" stroke-width="1.8"/>
<line x1="622" y1="129" x2="644" y2="129" stroke="#ea580c" stroke-width="1.8"/>
<text x="650" y="133" font-size="11" fill="#3f3f46">GHLOW2c</text>
<text x="338" y="292" text-anchor="middle" font-size="11" fill="#52525b">log-moneyness k</text>
<text transform="translate(18 144) rotate(-90)" text-anchor="middle" font-size="11" fill="#52525b">implied vol (ann %)</text>
<text x="380" y="320" text-anchor="middle" font-weight="600" font-size="14">Error vs PDE (basis points)</text>
<line x1="66" y1="554" x2="610" y2="554" stroke="#ececf0"/>
<text x="58" y="558" text-anchor="end" font-size="11" fill="#52525b">-80</text>
<line x1="66" y1="510" x2="610" y2="510" stroke="#ececf0"/>
<text x="58" y="514" text-anchor="end" font-size="11" fill="#52525b">-60</text>
<line x1="66" y1="466" x2="610" y2="466" stroke="#ececf0"/>
<text x="58" y="470" text-anchor="end" font-size="11" fill="#52525b">-40</text>
<line x1="66" y1="422" x2="610" y2="422" stroke="#ececf0"/>
<text x="58" y="426" text-anchor="end" font-size="11" fill="#52525b">-20</text>
<line x1="66" y1="378" x2="610" y2="378" stroke="#a1a1aa"/>
<text x="58" y="382" text-anchor="end" font-size="11" fill="#52525b">0</text>
<line x1="66" y1="334" x2="610" y2="334" stroke="#ececf0"/>
<text x="58" y="338" text-anchor="end" font-size="11" fill="#52525b">20</text>
<line x1="145.52283220045922" y1="334" x2="145.52283220045922" y2="554" stroke="#ececf0"/>
<text x="145.52283220045922" y="570" text-anchor="middle" font-size="11" fill="#52525b">-0.05</text>
<line x1="358.92307692307696" y1="334" x2="358.92307692307696" y2="554" stroke="#ececf0"/>
<text x="358.92307692307696" y="570" text-anchor="middle" font-size="11" fill="#52525b">0.00</text>
<line x1="572.3233216456947" y1="334" x2="572.3233216456947" y2="554" stroke="#ececf0"/>
<text x="572.3233216456947" y="570" text-anchor="middle" font-size="11" fill="#52525b">0.05</text>
<line x1="66" y1="378" x2="610" y2="378" stroke="#71717a"/>
<line x1="358.92307692307696" y1="334" x2="358.92307692307696" y2="554" stroke="#ef4444" stroke-dasharray="3 3"/>
<path d="M66.00 524.54L67.36 523.88L68.72 523.22L70.08 522.56L71.44 521.91L72.80 521.25L74.16 520.60L75.52 519.94L76.88 519.29L78.24 518.64L79.60 517.99L80.96 517.34L82.32 516.70L83.68 516.05L85.04 515.40L86.40 514.76L87.76 514.12L89.12 513.48L90.48 512.84L91.84 512.20L93.20 511.57L94.56 510.93L95.92 510.30L97.28 509.67L98.64 509.04L100.00 508.42L101.36 507.79L102.72 507.17L104.08 506.54L105.44 505.92L106.80 505.31L108.16 504.69L109.52 504.07L110.88 503.46L112.24 502.85L113.60 502.24L114.96 501.64L116.32 501.03L117.68 500.43L119.04 499.83L120.40 499.23L121.76 498.63L123.12 498.03L124.48 497.44L125.84 496.85L127.20 496.26L128.56 495.67L129.92 495.09L131.28 494.50L132.64 493.92L134.00 493.34L135.36 492.77L136.72 492.19L138.08 491.62L139.44 491.05L140.80 490.48L142.16 489.91L143.52 489.35L144.88 488.78L146.24 488.22L147.60 487.66L148.96 487.11L150.32 486.55L151.68 486.00L153.04 485.45L154.40 484.90L155.76 484.35L157.12 483.81L158.48 483.27L159.84 482.73L161.20 482.19L162.56 481.65L163.92 481.12L165.28 480.58L166.64 480.05L168.00 479.52L169.36 479.00L170.72 478.47L172.08 477.95L173.44 477.43L174.80 476.91L176.16 476.40L177.52 475.88L178.88 475.37L180.24 474.86L181.60 474.35L182.96 473.84L184.32 473.34L185.68 472.84L187.04 472.34L188.40 471.84L189.76 471.34L191.12 470.85L192.48 470.36L193.84 469.87L195.20 469.38L196.56 468.89L197.92 468.41L199.28 467.92L200.64 467.44L202.00 466.96L203.36 466.49L204.72 466.01L206.08 465.54L207.44 465.07L208.80 464.60L210.16 464.13L211.52 463.67L212.88 463.21L214.24 462.74L215.60 462.29L216.96 461.83L218.32 461.37L219.68 460.92L221.04 460.47L222.40 460.02L223.76 459.57L225.12 459.13L226.48 458.68L227.84 458.24L229.20 457.80L230.56 457.36L231.92 456.93L233.28 456.49L234.64 456.06L236.00 455.63L237.36 455.20L238.72 454.78L240.08 454.35L241.44 453.93L242.80 453.51L244.16 453.09L245.52 452.67L246.88 452.26L248.24 451.85L249.60 451.44L250.96 451.03L252.32 450.62L253.68 450.21L255.04 449.81L256.40 449.41L257.76 449.01L259.12 448.61L260.48 448.22L261.84 447.83L263.20 447.44L264.56 447.05L265.92 446.66L267.28 446.28L268.64 445.89L270.00 445.51L271.36 445.13L272.72 444.76L274.08 444.38L275.44 444.01L276.80 443.64L278.16 443.27L279.52 442.91L280.88 442.55L282.24 442.19L283.60 441.83L284.96 441.47L286.32 441.12L287.68 440.76L289.04 440.42L290.40 440.07L291.76 439.72L293.12 439.38L294.48 439.04L295.84 438.71L297.20 438.37L298.56 438.04L299.92 437.71L301.28 437.38L302.64 437.06L304.00 436.74L305.36 436.42L306.72 436.11L308.08 435.80L309.44 435.49L310.80 435.18L312.16 434.88L313.52 434.58L314.88 434.29L316.24 433.99L317.60 433.70L318.96 433.42L320.32 433.14L321.68 432.86L323.04 432.59L324.40 432.32L325.76 432.05L327.12 431.79L328.48 431.53L329.84 431.28L331.20 431.03L332.56 430.79L333.92 430.55L335.28 430.31L336.64 430.08L338.00 429.86L339.36 429.64L340.72 429.43L342.08 429.23L343.44 429.02L344.80 428.83L346.16 428.64L347.52 428.46L348.88 428.29L350.24 428.12L351.60 427.96L352.96 427.81L354.32 427.67L355.68 427.53L357.04 427.41L358.40 427.29L359.76 427.18L361.12 427.09L362.48 427.00L363.84 426.91L365.20 426.84L366.56 426.78L367.92 426.72L369.28 426.67L370.64 426.63L372.00 426.59L373.36 426.56L374.72 426.54L376.08 426.52L377.44 426.51L378.80 426.51L380.16 426.51L381.52 426.51L382.88 426.52L384.24 426.54L385.60 426.56L386.96 426.58L388.32 426.61L389.68 426.64L391.04 426.68L392.40 426.72L393.76 426.77L395.12 426.82L396.48 426.87L397.84 426.92L399.20 426.98L400.56 427.05L401.92 427.11L403.28 427.18L404.64 427.25L406.00 427.33L407.36 427.40L408.72 427.48L410.08 427.57L411.44 427.65L412.80 427.74L414.16 427.83L415.52 427.92L416.88 428.01L418.24 428.11L419.60 428.21L420.96 428.31L422.32 428.41L423.68 428.52L425.04 428.62L426.40 428.73L427.76 428.84L429.12 428.95L430.48 429.06L431.84 429.18L433.20 429.30L434.56 429.41L435.92 429.53L437.28 429.66L438.64 429.78L440.00 429.90L441.36 430.03L442.72 430.16L444.08 430.28L445.44 430.41L446.80 430.54L448.16 430.68L449.52 430.81L450.88 430.94L452.24 431.08L453.60 431.22L454.96 431.36L456.32 431.50L457.68 431.64L459.04 431.78L460.40 431.92L461.76 432.07L463.12 432.21L464.48 432.36L465.84 432.50L467.20 432.65L468.56 432.80L469.92 432.95L471.28 433.10L472.64 433.26L474.00 433.41L475.36 433.56L476.72 433.72L478.08 433.87L479.44 434.03L480.80 434.19L482.16 434.35L483.52 434.51L484.88 434.67L486.24 434.83L487.60 434.99L488.96 435.16L490.32 435.32L491.68 435.49L493.04 435.66L494.40 435.82L495.76 435.99L497.12 436.16L498.48 436.33L499.84 436.50L501.20 436.67L502.56 436.85L503.92 437.02L505.28 437.19L506.64 437.37L508.00 437.54L509.36 437.72L510.72 437.90L512.08 438.08L513.44 438.26L514.80 438.44L516.16 438.62L517.52 438.80L518.88 438.98L520.24 439.17L521.60 439.35L522.96 439.54L524.32 439.73L525.68 439.91L527.04 440.10L528.40 440.29L529.76 440.48L531.12 440.67L532.48 440.86L533.84 441.05L535.20 441.25L536.56 441.44L537.92 441.64L539.28 441.83L540.64 442.03L542.00 442.23L543.36 442.43L544.72 442.62L546.08 442.82L547.44 443.03L548.80 443.23L550.16 443.43L551.52 443.63L552.88 443.84L554.24 444.04L555.60 444.25L556.96 444.46L558.32 444.67L559.68 444.87L561.04 445.08L562.40 445.29L563.76 445.51L565.12 445.72L566.48 445.93L567.84 446.14L569.20 446.36L570.56 446.58L571.92 446.79L573.28 447.01L574.64 447.23L576.00 447.45L577.36 447.67L578.72 447.89L580.08 448.11L581.44 448.33L582.80 448.56L584.16 448.78L585.52 449.01L586.88 449.23L588.24 449.46L589.60 449.69L590.96 449.92L592.32 450.15L593.68 450.38L595.04 450.61L596.40 450.84L597.76 451.07L599.12 451.31L600.48 451.54L601.84 451.78L603.20 452.02L604.56 452.25L605.92 452.49L607.28 452.73L608.64 452.97L610.00 453.21" fill="none" stroke="#a1a1aa" stroke-width="1.5" stroke-dasharray="5 4"/>
<line x1="622" y1="344" x2="644" y2="344" stroke="#a1a1aa" stroke-width="1.5" stroke-dasharray="5 4"/>
<text x="650" y="348" font-size="11" fill="#3f3f46">BBF0 − PDE</text>
<path d="M66.00 382.39L67.36 382.38L68.72 382.36L70.08 382.35L71.44 382.33L72.80 382.31L74.16 382.29L75.52 382.28L76.88 382.26L78.24 382.24L79.60 382.21L80.96 382.19L82.32 382.17L83.68 382.15L85.04 382.12L86.40 382.10L87.76 382.08L89.12 382.05L90.48 382.03L91.84 382.00L93.20 381.98L94.56 381.95L95.92 381.92L97.28 381.90L98.64 381.87L100.00 381.85L101.36 381.82L102.72 381.79L104.08 381.76L105.44 381.74L106.80 381.71L108.16 381.68L109.52 381.66L110.88 381.63L112.24 381.60L113.60 381.58L114.96 381.55L116.32 381.52L117.68 381.50L119.04 381.47L120.40 381.44L121.76 381.42L123.12 381.39L124.48 381.36L125.84 381.34L127.20 381.31L128.56 381.29L129.92 381.26L131.28 381.23L132.64 381.21L134.00 381.18L135.36 381.16L136.72 381.13L138.08 381.11L139.44 381.09L140.80 381.06L142.16 381.04L143.52 381.01L144.88 380.99L146.24 380.97L147.60 380.94L148.96 380.92L150.32 380.90L151.68 380.88L153.04 380.85L154.40 380.83L155.76 380.81L157.12 380.79L158.48 380.77L159.84 380.75L161.20 380.73L162.56 380.71L163.92 380.69L165.28 380.67L166.64 380.65L168.00 380.63L169.36 380.61L170.72 380.59L172.08 380.57L173.44 380.55L174.80 380.53L176.16 380.51L177.52 380.50L178.88 380.48L180.24 380.46L181.60 380.44L182.96 380.43L184.32 380.41L185.68 380.40L187.04 380.38L188.40 380.36L189.76 380.35L191.12 380.33L192.48 380.32L193.84 380.31L195.20 380.29L196.56 380.28L197.92 380.26L199.28 380.25L200.64 380.24L202.00 380.23L203.36 380.21L204.72 380.20L206.08 380.19L207.44 380.18L208.80 380.17L210.16 380.16L211.52 380.15L212.88 380.14L214.24 380.13L215.60 380.12L216.96 380.11L218.32 380.10L219.68 380.09L221.04 380.08L222.40 380.08L223.76 380.07L225.12 380.06L226.48 380.06L227.84 380.05L229.20 380.04L230.56 380.04L231.92 380.03L233.28 380.03L234.64 380.03L236.00 380.02L237.36 380.02L238.72 380.02L240.08 380.02L241.44 380.01L242.80 380.01L244.16 380.01L245.52 380.01L246.88 380.01L248.24 380.01L249.60 380.02L250.96 380.02L252.32 380.02L253.68 380.02L255.04 380.03L256.40 380.03L257.76 380.04L259.12 380.04L260.48 380.05L261.84 380.06L263.20 380.06L264.56 380.07L265.92 380.08L267.28 380.09L268.64 380.10L270.00 380.11L271.36 380.13L272.72 380.14L274.08 380.15L275.44 380.17L276.80 380.18L278.16 380.20L279.52 380.22L280.88 380.24L282.24 380.26L283.60 380.28L284.96 380.30L286.32 380.32L287.68 380.35L289.04 380.37L290.40 380.40L291.76 380.43L293.12 380.46L294.48 380.49L295.84 380.52L297.20 380.55L298.56 380.59L299.92 380.63L301.28 380.67L302.64 380.71L304.00 380.75L305.36 380.79L306.72 380.84L308.08 380.89L309.44 380.94L310.80 380.99L312.16 381.04L313.52 381.10L314.88 381.16L316.24 381.22L317.60 381.28L318.96 381.35L320.32 381.42L321.68 381.49L323.04 381.56L324.40 381.64L325.76 381.72L327.12 381.81L328.48 381.89L329.84 381.99L331.20 382.08L332.56 382.18L333.92 382.28L335.28 382.39L336.64 382.50L338.00 382.62L339.36 382.74L340.72 382.86L342.08 382.99L343.44 383.13L344.80 383.27L346.16 383.42L347.52 383.57L348.88 383.73L350.24 383.89L351.60 384.07L352.96 384.24L354.32 384.43L355.68 384.63L357.04 384.83L358.40 385.04L359.76 384.97L361.12 384.74L362.48 384.51L363.84 384.30L365.20 384.09L366.56 383.89L367.92 383.69L369.28 383.51L370.64 383.33L372.00 383.16L373.36 382.99L374.72 382.83L376.08 382.68L377.44 382.53L378.80 382.38L380.16 382.25L381.52 382.11L382.88 381.99L384.24 381.86L385.60 381.75L386.96 381.63L388.32 381.52L389.68 381.42L391.04 381.31L392.40 381.22L393.76 381.12L395.12 381.03L396.48 380.94L397.84 380.86L399.20 380.78L400.56 380.70L401.92 380.62L403.28 380.55L404.64 380.48L406.00 380.41L407.36 380.35L408.72 380.29L410.08 380.23L411.44 380.17L412.80 380.11L414.16 380.06L415.52 380.00L416.88 379.95L418.24 379.91L419.60 379.86L420.96 379.81L422.32 379.77L423.68 379.73L425.04 379.69L426.40 379.65L427.76 379.61L429.12 379.58L430.48 379.54L431.84 379.51L433.20 379.48L434.56 379.45L435.92 379.42L437.28 379.39L438.64 379.36L440.00 379.33L441.36 379.31L442.72 379.28L444.08 379.26L445.44 379.24L446.80 379.22L448.16 379.20L449.52 379.18L450.88 379.16L452.24 379.14L453.60 379.12L454.96 379.10L456.32 379.09L457.68 379.07L459.04 379.05L460.40 379.04L461.76 379.03L463.12 379.01L464.48 379.00L465.84 378.99L467.20 378.97L468.56 378.96L469.92 378.95L471.28 378.94L472.64 378.93L474.00 378.92L475.36 378.91L476.72 378.90L478.08 378.90L479.44 378.89L480.80 378.88L482.16 378.87L483.52 378.87L484.88 378.86L486.24 378.85L487.60 378.85L488.96 378.84L490.32 378.84L491.68 378.83L493.04 378.83L494.40 378.82L495.76 378.82L497.12 378.82L498.48 378.81L499.84 378.81L501.20 378.81L502.56 378.80L503.92 378.80L505.28 378.80L506.64 378.80L508.00 378.79L509.36 378.79L510.72 378.79L512.08 378.79L513.44 378.79L514.80 378.79L516.16 378.79L517.52 378.79L518.88 378.79L520.24 378.79L521.60 378.79L522.96 378.79L524.32 378.79L525.68 378.79L527.04 378.79L528.40 378.79L529.76 378.79L531.12 378.79L532.48 378.79L533.84 378.79L535.20 378.79L536.56 378.79L537.92 378.80L539.28 378.80L540.64 378.80L542.00 378.80L543.36 378.80L544.72 378.81L546.08 378.81L547.44 378.81L548.80 378.81L550.16 378.82L551.52 378.82L552.88 378.82L554.24 378.82L555.60 378.83L556.96 378.83L558.32 378.83L559.68 378.84L561.04 378.84L562.40 378.84L563.76 378.85L565.12 378.85L566.48 378.85L567.84 378.86L569.20 378.86L570.56 378.86L571.92 378.87L573.28 378.87L574.64 378.88L576.00 378.88L577.36 378.89L578.72 378.89L580.08 378.89L581.44 378.90L582.80 378.90L584.16 378.91L585.52 378.91L586.88 378.92L588.24 378.92L589.60 378.93L590.96 378.93L592.32 378.94L593.68 378.94L595.04 378.95L596.40 378.95L597.76 378.96L599.12 378.96L600.48 378.97L601.84 378.97L603.20 378.98L604.56 378.99L605.92 378.99L607.28 379.00L608.64 379.00L610.00 379.01" fill="none" stroke="#2563eb" stroke-width="1.5"/>
<line x1="622" y1="361" x2="644" y2="361" stroke="#2563eb" stroke-width="1.5"/>
<text x="650" y="365" font-size="11" fill="#3f3f46">PHL1 − PDE</text>
<path d="M66.00 382.35L67.36 382.34L68.72 382.33L70.08 382.31L71.44 382.29L72.80 382.28L74.16 382.26L75.52 382.24L76.88 382.22L78.24 382.20L79.60 382.17L80.96 382.15L82.32 382.13L83.68 382.10L85.04 382.08L86.40 382.06L87.76 382.03L89.12 382.01L90.48 381.98L91.84 381.95L93.20 381.93L94.56 381.90L95.92 381.87L97.28 381.85L98.64 381.82L100.00 381.79L101.36 381.76L102.72 381.74L104.08 381.71L105.44 381.68L106.80 381.65L108.16 381.62L109.52 381.60L110.88 381.57L112.24 381.54L113.60 381.51L114.96 381.48L116.32 381.46L117.68 381.43L119.04 381.40L120.40 381.37L121.76 381.34L123.12 381.32L124.48 381.29L125.84 381.26L127.20 381.23L128.56 381.21L129.92 381.18L131.28 381.15L132.64 381.12L134.00 381.10L135.36 381.07L136.72 381.05L138.08 381.02L139.44 380.99L140.80 380.97L142.16 380.94L143.52 380.91L144.88 380.89L146.24 380.86L147.60 380.84L148.96 380.81L150.32 380.79L151.68 380.76L153.04 380.74L154.40 380.72L155.76 380.69L157.12 380.67L158.48 380.64L159.84 380.62L161.20 380.60L162.56 380.57L163.92 380.55L165.28 380.53L166.64 380.50L168.00 380.48L169.36 380.46L170.72 380.44L172.08 380.41L173.44 380.39L174.80 380.37L176.16 380.35L177.52 380.33L178.88 380.31L180.24 380.29L181.60 380.27L182.96 380.24L184.32 380.22L185.68 380.20L187.04 380.18L188.40 380.16L189.76 380.14L191.12 380.12L192.48 380.11L193.84 380.09L195.20 380.07L196.56 380.05L197.92 380.03L199.28 380.01L200.64 379.99L202.00 379.97L203.36 379.96L204.72 379.94L206.08 379.92L207.44 379.90L208.80 379.88L210.16 379.87L211.52 379.85L212.88 379.83L214.24 379.82L215.60 379.80L216.96 379.78L218.32 379.77L219.68 379.75L221.04 379.73L222.40 379.72L223.76 379.70L225.12 379.68L226.48 379.67L227.84 379.65L229.20 379.64L230.56 379.62L231.92 379.61L233.28 379.59L234.64 379.58L236.00 379.56L237.36 379.55L238.72 379.53L240.08 379.52L241.44 379.50L242.80 379.49L244.16 379.47L245.52 379.46L246.88 379.45L248.24 379.43L249.60 379.42L250.96 379.41L252.32 379.39L253.68 379.38L255.04 379.36L256.40 379.35L257.76 379.34L259.12 379.32L260.48 379.31L261.84 379.30L263.20 379.29L264.56 379.27L265.92 379.26L267.28 379.25L268.64 379.24L270.00 379.22L271.36 379.21L272.72 379.20L274.08 379.19L275.44 379.17L276.80 379.16L278.16 379.15L279.52 379.14L280.88 379.12L282.24 379.11L283.60 379.10L284.96 379.09L286.32 379.08L287.68 379.07L289.04 379.05L290.40 379.04L291.76 379.03L293.12 379.02L294.48 379.01L295.84 378.99L297.20 378.98L298.56 378.97L299.92 378.96L301.28 378.95L302.64 378.94L304.00 378.93L305.36 378.91L306.72 378.90L308.08 378.89L309.44 378.88L310.80 378.87L312.16 378.86L313.52 378.84L314.88 378.83L316.24 378.82L317.60 378.81L318.96 378.80L320.32 378.79L321.68 378.77L323.04 378.76L324.40 378.75L325.76 378.74L327.12 378.73L328.48 378.72L329.84 378.70L331.20 378.69L332.56 378.68L333.92 378.67L335.28 378.66L336.64 378.64L338.00 378.63L339.36 378.62L340.72 378.61L342.08 378.59L343.44 378.58L344.80 378.57L346.16 378.56L347.52 378.54L348.88 378.53L350.24 378.52L351.60 378.50L352.96 378.49L354.32 378.48L355.68 378.47L357.04 378.45L358.40 378.44L359.76 378.43L361.12 378.41L362.48 378.40L363.84 378.39L365.20 378.38L366.56 378.37L367.92 378.36L369.28 378.35L370.64 378.34L372.00 378.33L373.36 378.32L374.72 378.32L376.08 378.31L377.44 378.30L378.80 378.30L380.16 378.29L381.52 378.29L382.88 378.28L384.24 378.28L385.60 378.27L386.96 378.27L388.32 378.26L389.68 378.26L391.04 378.26L392.40 378.26L393.76 378.25L395.12 378.25L396.48 378.25L397.84 378.25L399.20 378.25L400.56 378.24L401.92 378.24L403.28 378.24L404.64 378.24L406.00 378.24L407.36 378.24L408.72 378.24L410.08 378.24L411.44 378.24L412.80 378.25L414.16 378.25L415.52 378.25L416.88 378.25L418.24 378.25L419.60 378.25L420.96 378.25L422.32 378.26L423.68 378.26L425.04 378.26L426.40 378.26L427.76 378.26L429.12 378.27L430.48 378.27L431.84 378.27L433.20 378.27L434.56 378.28L435.92 378.28L437.28 378.28L438.64 378.29L440.00 378.29L441.36 378.29L442.72 378.30L444.08 378.30L445.44 378.30L446.80 378.31L448.16 378.31L449.52 378.31L450.88 378.32L452.24 378.32L453.60 378.33L454.96 378.33L456.32 378.33L457.68 378.34L459.04 378.34L460.40 378.35L461.76 378.35L463.12 378.35L464.48 378.36L465.84 378.36L467.20 378.37L468.56 378.37L469.92 378.37L471.28 378.38L472.64 378.38L474.00 378.39L475.36 378.39L476.72 378.40L478.08 378.40L479.44 378.41L480.80 378.41L482.16 378.41L483.52 378.42L484.88 378.42L486.24 378.43L487.60 378.43L488.96 378.44L490.32 378.44L491.68 378.45L493.04 378.45L494.40 378.46L495.76 378.46L497.12 378.47L498.48 378.47L499.84 378.48L501.20 378.48L502.56 378.49L503.92 378.49L505.28 378.50L506.64 378.50L508.00 378.51L509.36 378.51L510.72 378.52L512.08 378.52L513.44 378.53L514.80 378.53L516.16 378.54L517.52 378.54L518.88 378.55L520.24 378.55L521.60 378.56L522.96 378.56L524.32 378.57L525.68 378.57L527.04 378.58L528.40 378.58L529.76 378.59L531.12 378.59L532.48 378.60L533.84 378.61L535.20 378.61L536.56 378.62L537.92 378.62L539.28 378.63L540.64 378.63L542.00 378.64L543.36 378.64L544.72 378.65L546.08 378.65L547.44 378.66L548.80 378.67L550.16 378.67L551.52 378.68L552.88 378.68L554.24 378.69L555.60 378.69L556.96 378.70L558.32 378.71L559.68 378.71L561.04 378.72L562.40 378.72L563.76 378.73L565.12 378.74L566.48 378.74L567.84 378.75L569.20 378.75L570.56 378.76L571.92 378.77L573.28 378.77L574.64 378.78L576.00 378.78L577.36 378.79L578.72 378.80L580.08 378.80L581.44 378.81L582.80 378.82L584.16 378.82L585.52 378.83L586.88 378.83L588.24 378.84L589.60 378.85L590.96 378.85L592.32 378.86L593.68 378.87L595.04 378.87L596.40 378.88L597.76 378.89L599.12 378.89L600.48 378.90L601.84 378.91L603.20 378.91L604.56 378.92L605.92 378.93L607.28 378.93L608.64 378.94L610.00 378.95" fill="none" stroke="#dc2626" stroke-width="1.8"/>
<line x1="622" y1="378" x2="644" y2="378" stroke="#dc2626" stroke-width="1.8"/>
<text x="650" y="382" font-size="11" fill="#3f3f46">PHL1c − PDE</text>
<path d="M66.00 378.07L67.36 378.09L68.72 378.11L70.08 378.13L71.44 378.15L72.80 378.17L74.16 378.19L75.52 378.20L76.88 378.22L78.24 378.23L79.60 378.25L80.96 378.26L82.32 378.27L83.68 378.28L85.04 378.29L86.40 378.30L87.76 378.31L89.12 378.32L90.48 378.32L91.84 378.33L93.20 378.34L94.56 378.34L95.92 378.35L97.28 378.35L98.64 378.36L100.00 378.36L101.36 378.36L102.72 378.37L104.08 378.37L105.44 378.37L106.80 378.38L108.16 378.38L109.52 378.38L110.88 378.38L112.24 378.39L113.60 378.39L114.96 378.39L116.32 378.39L117.68 378.39L119.04 378.39L120.40 378.39L121.76 378.39L123.12 378.39L124.48 378.39L125.84 378.40L127.20 378.40L128.56 378.40L129.92 378.40L131.28 378.40L132.64 378.40L134.00 378.40L135.36 378.40L136.72 378.40L138.08 378.40L139.44 378.40L140.80 378.40L142.16 378.40L143.52 378.40L144.88 378.40L146.24 378.40L147.60 378.40L148.96 378.40L150.32 378.40L151.68 378.40L153.04 378.40L154.40 378.41L155.76 378.41L157.12 378.41L158.48 378.41L159.84 378.41L161.20 378.41L162.56 378.41L163.92 378.41L165.28 378.41L166.64 378.42L168.00 378.42L169.36 378.42L170.72 378.42L172.08 378.42L173.44 378.42L174.80 378.43L176.16 378.43L177.52 378.43L178.88 378.43L180.24 378.43L181.60 378.44L182.96 378.44L184.32 378.44L185.68 378.45L187.04 378.45L188.40 378.45L189.76 378.45L191.12 378.46L192.48 378.46L193.84 378.47L195.20 378.47L196.56 378.47L197.92 378.48L199.28 378.48L200.64 378.49L202.00 378.49L203.36 378.50L204.72 378.50L206.08 378.51L207.44 378.51L208.80 378.52L210.16 378.52L211.52 378.53L212.88 378.53L214.24 378.54L215.60 378.55L216.96 378.55L218.32 378.56L219.68 378.57L221.04 378.57L222.40 378.58L223.76 378.59L225.12 378.60L226.48 378.61L227.84 378.62L229.20 378.62L230.56 378.63L231.92 378.64L233.28 378.65L234.64 378.66L236.00 378.67L237.36 378.69L238.72 378.70L240.08 378.71L241.44 378.72L242.80 378.73L244.16 378.74L245.52 378.76L246.88 378.77L248.24 378.78L249.60 378.80L250.96 378.81L252.32 378.83L253.68 378.84L255.04 378.86L256.40 378.88L257.76 378.90L259.12 378.91L260.48 378.93L261.84 378.95L263.20 378.97L264.56 378.99L265.92 379.01L267.28 379.03L268.64 379.05L270.00 379.08L271.36 379.10L272.72 379.12L274.08 379.15L275.44 379.18L276.80 379.20L278.16 379.23L279.52 379.26L280.88 379.29L282.24 379.32L283.60 379.35L284.96 379.38L286.32 379.41L287.68 379.45L289.04 379.48L290.40 379.52L291.76 379.56L293.12 379.60L294.48 379.64L295.84 379.68L297.20 379.72L298.56 379.77L299.92 379.82L301.28 379.86L302.64 379.91L304.00 379.96L305.36 380.02L306.72 380.07L308.08 380.13L309.44 380.19L310.80 380.25L312.16 380.31L313.52 380.37L314.88 380.44L316.24 380.51L317.60 380.58L318.96 380.66L320.32 380.73L321.68 380.81L323.04 380.90L324.40 380.98L325.76 381.07L327.12 381.16L328.48 381.26L329.84 381.36L331.20 381.46L332.56 381.57L333.92 381.68L335.28 381.79L336.64 381.91L338.00 382.03L339.36 382.16L340.72 382.29L342.08 382.43L343.44 382.57L344.80 382.72L346.16 382.87L347.52 383.03L348.88 383.20L350.24 383.37L351.60 383.55L352.96 383.74L354.32 383.93L355.68 384.19L357.04 384.37L358.40 384.56L359.76 384.88L361.12 384.66L362.48 384.46L363.84 384.18L365.20 383.97L366.56 383.76L367.92 383.57L369.28 383.38L370.64 383.20L372.00 383.02L373.36 382.85L374.72 382.69L376.08 382.53L377.44 382.38L378.80 382.23L380.16 382.09L381.52 381.96L382.88 381.83L384.24 381.70L385.60 381.58L386.96 381.46L388.32 381.35L389.68 381.24L391.04 381.14L392.40 381.04L393.76 380.94L395.12 380.84L396.48 380.75L397.84 380.67L399.20 380.58L400.56 380.50L401.92 380.42L403.28 380.34L404.64 380.27L406.00 380.20L407.36 380.13L408.72 380.07L410.08 380.00L411.44 379.94L412.80 379.88L414.16 379.82L415.52 379.77L416.88 379.72L418.24 379.66L419.60 379.61L420.96 379.57L422.32 379.52L423.68 379.47L425.04 379.43L426.40 379.39L427.76 379.35L429.12 379.31L430.48 379.27L431.84 379.23L433.20 379.20L434.56 379.16L435.92 379.13L437.28 379.10L438.64 379.07L440.00 379.04L441.36 379.01L442.72 378.98L444.08 378.95L445.44 378.93L446.80 378.90L448.16 378.88L449.52 378.85L450.88 378.83L452.24 378.81L453.60 378.79L454.96 378.77L456.32 378.75L457.68 378.73L459.04 378.71L460.40 378.69L461.76 378.67L463.12 378.65L464.48 378.64L465.84 378.62L467.20 378.61L468.56 378.59L469.92 378.58L471.28 378.56L472.64 378.55L474.00 378.53L475.36 378.52L476.72 378.51L478.08 378.50L479.44 378.49L480.80 378.47L482.16 378.46L483.52 378.45L484.88 378.44L486.24 378.43L487.60 378.42L488.96 378.41L490.32 378.40L491.68 378.39L493.04 378.39L494.40 378.38L495.76 378.37L497.12 378.36L498.48 378.35L499.84 378.35L501.20 378.34L502.56 378.33L503.92 378.33L505.28 378.32L506.64 378.31L508.00 378.31L509.36 378.30L510.72 378.29L512.08 378.29L513.44 378.28L514.80 378.28L516.16 378.27L517.52 378.27L518.88 378.26L520.24 378.26L521.60 378.25L522.96 378.25L524.32 378.25L525.68 378.24L527.04 378.24L528.40 378.23L529.76 378.23L531.12 378.23L532.48 378.22L533.84 378.22L535.20 378.22L536.56 378.21L537.92 378.21L539.28 378.21L540.64 378.20L542.00 378.20L543.36 378.20L544.72 378.19L546.08 378.19L547.44 378.19L548.80 378.19L550.16 378.19L551.52 378.18L552.88 378.18L554.24 378.18L555.60 378.18L556.96 378.17L558.32 378.17L559.68 378.17L561.04 378.17L562.40 378.17L563.76 378.17L565.12 378.16L566.48 378.16L567.84 378.16L569.20 378.16L570.56 378.16L571.92 378.16L573.28 378.15L574.64 378.15L576.00 378.15L577.36 378.15L578.72 378.15L580.08 378.15L581.44 378.15L582.80 378.15L584.16 378.15L585.52 378.14L586.88 378.14L588.24 378.14L589.60 378.14L590.96 378.14L592.32 378.14L593.68 378.14L595.04 378.14L596.40 378.14L597.76 378.14L599.12 378.14L600.48 378.14L601.84 378.14L603.20 378.13L604.56 378.13L605.92 378.13L607.28 378.13L608.64 378.13L610.00 378.13" fill="none" stroke="#0d9488" stroke-width="1.5"/>
<line x1="622" y1="395" x2="644" y2="395" stroke="#0d9488" stroke-width="1.5"/>
<text x="650" y="399" font-size="11" fill="#3f3f46">GHLOW2 − PDE</text>
<path d="M66.00 378.03L67.36 378.06L68.72 378.08L70.08 378.10L71.44 378.12L72.80 378.13L74.16 378.15L75.52 378.17L76.88 378.18L78.24 378.19L79.60 378.21L80.96 378.22L82.32 378.23L83.68 378.24L85.04 378.25L86.40 378.26L87.76 378.26L89.12 378.27L90.48 378.28L91.84 378.28L93.20 378.29L94.56 378.29L95.92 378.30L97.28 378.30L98.64 378.30L100.00 378.31L101.36 378.31L102.72 378.31L104.08 378.31L105.44 378.32L106.80 378.32L108.16 378.32L109.52 378.32L110.88 378.32L112.24 378.32L113.60 378.32L114.96 378.32L116.32 378.32L117.68 378.32L119.04 378.32L120.40 378.32L121.76 378.32L123.12 378.32L124.48 378.32L125.84 378.32L127.20 378.32L128.56 378.32L129.92 378.32L131.28 378.31L132.64 378.31L134.00 378.31L135.36 378.31L136.72 378.31L138.08 378.31L139.44 378.31L140.80 378.30L142.16 378.30L143.52 378.30L144.88 378.30L146.24 378.30L147.60 378.30L148.96 378.30L150.32 378.29L151.68 378.29L153.04 378.29L154.40 378.29L155.76 378.29L157.12 378.29L158.48 378.28L159.84 378.28L161.20 378.28L162.56 378.28L163.92 378.28L165.28 378.28L166.64 378.27L168.00 378.27L169.36 378.27L170.72 378.27L172.08 378.27L173.44 378.27L174.80 378.26L176.16 378.26L177.52 378.26L178.88 378.26L180.24 378.26L181.60 378.26L182.96 378.26L184.32 378.25L185.68 378.25L187.04 378.25L188.40 378.25L189.76 378.25L191.12 378.25L192.48 378.25L193.84 378.25L195.20 378.24L196.56 378.24L197.92 378.24L199.28 378.24L200.64 378.24L202.00 378.24L203.36 378.24L204.72 378.24L206.08 378.23L207.44 378.23L208.80 378.23L210.16 378.23L211.52 378.23L212.88 378.23L214.24 378.23L215.60 378.23L216.96 378.23L218.32 378.23L219.68 378.22L221.04 378.22L222.40 378.22L223.76 378.22L225.12 378.22L226.48 378.22L227.84 378.22L229.20 378.22L230.56 378.22L231.92 378.22L233.28 378.21L234.64 378.21L236.00 378.21L237.36 378.21L238.72 378.21L240.08 378.21L241.44 378.21L242.80 378.21L244.16 378.21L245.52 378.21L246.88 378.20L248.24 378.20L249.60 378.20L250.96 378.20L252.32 378.20L253.68 378.20L255.04 378.20L256.40 378.20L257.76 378.20L259.12 378.20L260.48 378.19L261.84 378.19L263.20 378.19L264.56 378.19L265.92 378.19L267.28 378.19L268.64 378.19L270.00 378.19L271.36 378.18L272.72 378.18L274.08 378.18L275.44 378.18L276.80 378.18L278.16 378.18L279.52 378.18L280.88 378.17L282.24 378.17L283.60 378.17L284.96 378.17L286.32 378.17L287.68 378.17L289.04 378.16L290.40 378.16L291.76 378.16L293.12 378.16L294.48 378.16L295.84 378.15L297.20 378.15L298.56 378.15L299.92 378.15L301.28 378.15L302.64 378.14L304.00 378.14L305.36 378.14L306.72 378.14L308.08 378.13L309.44 378.13L310.80 378.13L312.16 378.12L313.52 378.12L314.88 378.12L316.24 378.11L317.60 378.11L318.96 378.11L320.32 378.10L321.68 378.10L323.04 378.10L324.40 378.09L325.76 378.09L327.12 378.08L328.48 378.08L329.84 378.08L331.20 378.07L332.56 378.07L333.92 378.06L335.28 378.06L336.64 378.05L338.00 378.05L339.36 378.04L340.72 378.04L342.08 378.03L343.44 378.03L344.80 378.02L346.16 378.01L347.52 378.01L348.88 378.00L350.24 378.00L351.60 377.99L352.96 377.98L354.32 377.98L355.68 378.03L357.04 378.00L358.40 377.97L359.76 377.93L361.12 377.90L362.48 377.87L363.84 377.93L365.20 377.93L366.56 377.92L367.92 377.92L369.28 377.91L370.64 377.91L372.00 377.91L373.36 377.91L374.72 377.90L376.08 377.90L377.44 377.90L378.80 377.90L380.16 377.90L381.52 377.90L382.88 377.90L384.24 377.90L385.60 377.90L386.96 377.90L388.32 377.90L389.68 377.91L391.04 377.91L392.40 377.91L393.76 377.91L395.12 377.92L396.48 377.92L397.84 377.92L399.20 377.92L400.56 377.93L401.92 377.93L403.28 377.94L404.64 377.94L406.00 377.94L407.36 377.95L408.72 377.95L410.08 377.96L411.44 377.96L412.80 377.97L414.16 377.97L415.52 377.98L416.88 377.98L418.24 377.99L419.60 377.99L420.96 378.00L422.32 378.01L423.68 378.01L425.04 378.02L426.40 378.02L427.76 378.03L429.12 378.03L430.48 378.04L431.84 378.05L433.20 378.05L434.56 378.06L435.92 378.07L437.28 378.07L438.64 378.08L440.00 378.08L441.36 378.09L442.72 378.10L444.08 378.10L445.44 378.11L446.80 378.12L448.16 378.12L449.52 378.13L450.88 378.14L452.24 378.14L453.60 378.15L454.96 378.16L456.32 378.16L457.68 378.17L459.04 378.18L460.40 378.18L461.76 378.19L463.12 378.20L464.48 378.20L465.84 378.21L467.20 378.22L468.56 378.22L469.92 378.23L471.28 378.24L472.64 378.24L474.00 378.25L475.36 378.25L476.72 378.26L478.08 378.27L479.44 378.27L480.80 378.28L482.16 378.29L483.52 378.29L484.88 378.30L486.24 378.31L487.60 378.31L488.96 378.32L490.32 378.33L491.68 378.33L493.04 378.34L494.40 378.34L495.76 378.35L497.12 378.36L498.48 378.36L499.84 378.37L501.20 378.38L502.56 378.38L503.92 378.39L505.28 378.39L506.64 378.40L508.00 378.41L509.36 378.41L510.72 378.42L512.08 378.43L513.44 378.43L514.80 378.44L516.16 378.44L517.52 378.45L518.88 378.46L520.24 378.46L521.60 378.47L522.96 378.47L524.32 378.48L525.68 378.49L527.04 378.49L528.40 378.50L529.76 378.50L531.12 378.51L532.48 378.51L533.84 378.52L535.20 378.53L536.56 378.53L537.92 378.54L539.28 378.54L540.64 378.55L542.00 378.56L543.36 378.56L544.72 378.57L546.08 378.57L547.44 378.58L548.80 378.58L550.16 378.59L551.52 378.59L552.88 378.60L554.24 378.61L555.60 378.61L556.96 378.62L558.32 378.62L559.68 378.63L561.04 378.63L562.40 378.64L563.76 378.64L565.12 378.65L566.48 378.66L567.84 378.66L569.20 378.67L570.56 378.67L571.92 378.68L573.28 378.68L574.64 378.69L576.00 378.69L577.36 378.70L578.72 378.70L580.08 378.71L581.44 378.72L582.80 378.72L584.16 378.73L585.52 378.73L586.88 378.74L588.24 378.74L589.60 378.75L590.96 378.75L592.32 378.76L593.68 378.76L595.04 378.77L596.40 378.77L597.76 378.78L599.12 378.79L600.48 378.79L601.84 378.80L603.20 378.80L604.56 378.81L605.92 378.81L607.28 378.82L608.64 378.82L610.00 378.83" fill="none" stroke="#ea580c" stroke-width="1.8"/>
<line x1="622" y1="412" x2="644" y2="412" stroke="#ea580c" stroke-width="1.8"/>
<text x="650" y="416" font-size="11" fill="#3f3f46">GHLOW2c − PDE</text>
<text x="338" y="592" text-anchor="middle" font-size="11" fill="#52525b">log-moneyness k</text>
<text transform="translate(18 444) rotate(-90)" text-anchor="middle" font-size="11" fill="#52525b">error (bps)</text>
</svg>
