<svg xmlns="http://www.w3.org/2000/svg" width="760" height="600" viewBox="0 0 760 600" font-family="DejaVu Sans, sans-serif"><rect width="760" height="600" fill="#ffffff"/>
<text x="380" y="20" text-anchor="middle" font-weight="600" font-size="14">Unhappy case — fake ATM knot at k=0</text>
<line x1="66" y1="254" x2="610" y2="254" stroke="#ececf0"/>
<text x="58" y="258" text-anchor="end" font-size="11" fill="#52525b">25</text>
<line x1="66" y1="210" x2="610" y2="210" stroke="#ececf0"/>
<text x="58" y="214" text-anchor="end" font-size="11" fill="#52525b">30</text>
<line x1="66" y1="166" x2="610" y2="166" stroke="#ececf0"/>
<text x="58" y="170" text-anchor="end" font-size="11" fill="#52525b">35</text>
<line x1="66" y1="122" x2="610" y2="122" stroke="#ececf0"/>
<text x="58" y="126" text-anchor="end" font-size="11" fill="#52525b">40</text>
<line x1="66" y1="78" x2="610" y2="78" stroke="#ececf0"/>
<text x="58" y="82" text-anchor="end" font-size="11" fill="#52525b">45</text>
<line x1="66" y1="34" x2="610" y2="34" stroke="#ececf0"/>
<text x="58" y="38" text-anchor="end" font-size="11" fill="#52525b">50</text>
<line x1="145.52283220045922" y1="34" x2="145.52283220045922" y2="254" stroke="#ececf0"/>
<text x="145.52283220045922" y="270" text-anchor="middle" font-size="11" fill="#52525b">-0.05</text>
<line x1="358.92307692307696" y1="34" x2="358.92307692307696" y2="254" stroke="#ececf0"/>
<text x="358.92307692307696" y="270" text-anchor="middle" font-size="11" fill="#52525b">0.00</text>
<line x1="572.3233216456947" y1="34" x2="572.3233216456947" y2="254" stroke="#ececf0"/>
<text x="572.3233216456947" y="270" text-anchor="middle" font-size="11" fill="#52525b">0.05</text>
<line x1="358.92307692307696" y1="34" x2="358.92307692307696" y2="254" stroke="#ef4444" stroke-dasharray="3 3"/>
<path d="M66.00 107.51L67.36 108.20L68.72 108.88L70.08 109.55L71.44 110.23L72.80 110.90L74.16 111.58L75.52 112.25L76.88 112.91L78.24 113.58L79.60 114.24L80.96 114.91L82.32 115.57L83.68 116.22L85.04 116.88L86.40 117.53L87.76 118.18L89.12 118.83L90.48 119.48L91.84 120.13L93.20 120.77L94.56 121.41L95.92 122.05L97.28 122.68L98.64 123.32L100.00 123.95L101.36 124.58L102.72 125.21L104.08 125.83L105.44 126.46L106.80 127.08L108.16 127.70L109.52 128.31L110.88 128.93L112.24 129.54L113.60 130.15L114.96 130.76L116.32 131.36L117.68 131.96L119.04 132.56L120.40 133.16L121.76 133.76L123.12 134.35L124.48 134.94L125.84 135.53L127.20 136.12L128.56 136.70L129.92 137.28L131.28 137.86L132.64 138.44L134.00 139.01L135.36 139.58L136.72 140.15L138.08 140.72L139.44 141.28L140.80 141.84L142.16 142.40L143.52 142.96L144.88 143.51L146.24 144.07L147.60 144.62L148.96 145.16L150.32 145.71L151.68 146.25L153.04 146.79L154.40 147.32L155.76 147.86L157.12 148.39L158.48 148.92L159.84 149.45L161.20 149.97L162.56 150.49L163.92 151.01L165.28 151.53L166.64 152.04L168.00 152.55L169.36 153.06L170.72 153.56L172.08 154.07L173.44 154.57L174.80 155.06L176.16 155.56L177.52 156.05L178.88 156.54L180.24 157.03L181.60 157.51L182.96 157.99L184.32 158.47L185.68 158.95L187.04 159.42L188.40 159.89L189.76 160.36L191.12 160.83L192.48 161.29L193.84 161.75L195.20 162.21L196.56 162.66L197.92 163.11L199.28 163.56L200.64 164.01L202.00 164.45L203.36 164.89L204.72 165.33L206.08 165.77L207.44 166.20L208.80 166.63L210.16 167.06L211.52 167.48L212.88 167.90L214.24 168.32L215.60 168.74L216.96 169.15L218.32 169.56L219.68 169.97L221.04 170.38L222.40 170.78L223.76 171.18L225.12 171.57L226.48 171.97L227.84 172.36L229.20 172.75L230.56 173.13L231.92 173.51L233.28 173.89L234.64 174.27L236.00 174.65L237.36 175.02L238.72 175.39L240.08 175.75L241.44 176.12L242.80 176.48L244.16 176.83L245.52 177.19L246.88 177.54L248.24 177.89L249.60 178.24L250.96 178.58L252.32 178.92L253.68 179.26L255.04 179.59L256.40 179.93L257.76 180.26L259.12 180.58L260.48 180.91L261.84 181.23L263.20 181.55L264.56 181.86L265.92 182.18L267.28 182.49L268.64 182.79L270.00 183.10L271.36 183.40L272.72 183.70L274.08 184.00L275.44 184.29L276.80 184.58L278.16 184.87L279.52 185.16L280.88 185.44L282.24 185.72L283.60 185.99L284.96 186.27L286.32 186.54L287.68 186.81L289.04 187.08L290.40 187.34L291.76 187.60L293.12 187.86L294.48 188.11L295.84 188.36L297.20 188.61L298.56 188.86L299.92 189.11L301.28 189.35L302.64 189.59L304.00 189.82L305.36 190.05L306.72 190.28L308.08 190.51L309.44 190.74L310.80 190.96L312.16 191.18L313.52 191.39L314.88 191.61L316.24 191.82L317.60 192.03L318.96 192.23L320.32 192.43L321.68 192.63L323.04 192.83L324.40 193.02L325.76 193.21L327.12 193.40L328.48 193.59L329.84 193.77L331.20 193.95L332.56 194.12L333.92 194.30L335.28 194.47L336.64 194.63L338.00 194.80L339.36 194.96L340.72 195.12L342.08 195.27L343.44 195.42L344.80 195.57L346.16 195.72L347.52 195.86L348.88 196.00L350.24 196.13L351.60 196.27L352.96 196.39L354.32 196.52L355.68 196.64L357.04 196.76L358.40 196.87L359.76 196.98L361.12 197.09L362.48 197.19L363.84 197.29L365.20 197.39L366.56 197.48L367.92 197.57L369.28 197.65L370.64 197.73L372.00 197.80L373.36 197.87L374.72 197.93L376.08 197.99L377.44 198.05L378.80 198.10L380.16 198.14L381.52 198.19L382.88 198.22L384.24 198.25L385.60 198.27L386.96 198.29L388.32 198.31L389.68 198.31L391.04 198.31L392.40 198.31L393.76 198.30L395.12 198.28L396.48 198.26L397.84 198.23L399.20 198.19L400.56 198.15L401.92 198.10L403.28 198.04L404.64 197.98L406.00 197.90L407.36 197.83L408.72 197.74L410.08 197.65L411.44 197.54L412.80 197.44L414.16 197.32L415.52 197.19L416.88 197.06L418.24 196.92L419.60 196.77L420.96 196.61L422.32 196.45L423.68 196.27L425.04 196.09L426.40 195.90L427.76 195.69L429.12 195.48L430.48 195.26L431.84 195.03L433.20 194.80L434.56 194.55L435.92 194.29L437.28 194.03L438.64 193.75L440.00 193.46L441.36 193.17L442.72 192.86L444.08 192.55L445.44 192.22L446.80 191.89L448.16 191.54L449.52 191.19L450.88 190.82L452.24 190.44L453.60 190.06L454.96 189.66L456.32 189.25L457.68 188.84L459.04 188.41L460.40 187.97L461.76 187.52L463.12 187.06L464.48 186.59L465.84 186.11L467.20 185.62L468.56 185.12L469.92 184.60L471.28 184.08L472.64 183.55L474.00 183.00L475.36 182.45L476.72 181.88L478.08 181.31L479.44 180.72L480.80 180.12L482.16 179.51L483.52 178.89L484.88 178.27L486.24 177.63L487.60 176.98L488.96 176.32L490.32 175.64L491.68 174.96L493.04 174.27L494.40 173.57L495.76 172.86L497.12 172.14L498.48 171.41L499.84 170.66L501.20 169.91L502.56 169.15L503.92 168.38L505.28 167.60L506.64 166.81L508.00 166.01L509.36 165.20L510.72 164.38L512.08 163.55L513.44 162.71L514.80 161.87L516.16 161.01L517.52 160.15L518.88 159.27L520.24 158.39L521.60 157.50L522.96 156.60L524.32 155.69L525.68 154.77L527.04 153.85L528.40 152.92L529.76 151.97L531.12 151.03L532.48 150.07L533.84 149.10L535.20 148.13L536.56 147.15L537.92 146.16L539.28 145.17L540.64 144.17L542.00 143.16L543.36 142.14L544.72 141.12L546.08 140.09L547.44 139.05L548.80 138.01L550.16 136.96L551.52 135.91L552.88 134.85L554.24 133.78L555.60 132.71L556.96 131.63L558.32 130.54L559.68 129.46L561.04 128.36L562.40 127.26L563.76 126.15L565.12 125.04L566.48 123.93L567.84 122.81L569.20 121.68L570.56 120.55L571.92 119.42L573.28 118.28L574.64 117.14L576.00 115.99L577.36 114.84L578.72 113.69L580.08 112.53L581.44 111.37L582.80 110.21L584.16 109.04L585.52 107.87L586.88 106.69L588.24 105.52L589.60 104.34L590.96 103.15L592.32 101.97L593.68 100.78L595.04 99.59L596.40 98.40L597.76 97.20L599.12 96.01L600.48 94.81L601.84 93.61L603.20 92.41L604.56 91.20L605.92 90.00L607.28 88.79L608.64 87.58L610.00 86.37" fill="none" stroke="#18181b" stroke-width="2"/>
<line x1="622" y1="44" x2="644" y2="44" stroke="#18181b" stroke-width="2"/>
<text x="650" y="48" font-size="11" fill="#3f3f46">PDE (truth)</text>
<path d="M66.00 113.40L67.36 114.05L68.72 114.71L70.08 115.36L71.44 116.01L72.80 116.66L74.16 117.30L75.52 117.95L76.88 118.59L78.24 119.23L79.60 119.87L80.96 120.50L82.32 121.14L83.68 121.77L85.04 122.40L86.40 123.03L87.76 123.65L89.12 124.28L90.48 124.90L91.84 125.52L93.20 126.14L94.56 126.75L95.92 127.36L97.28 127.98L98.64 128.59L100.00 129.19L101.36 129.80L102.72 130.40L104.08 131.00L105.44 131.60L106.80 132.20L108.16 132.79L109.52 133.38L110.88 133.97L112.24 134.56L113.60 135.15L114.96 135.73L116.32 136.31L117.68 136.89L119.04 137.47L120.40 138.04L121.76 138.61L123.12 139.18L124.48 139.75L125.84 140.31L127.20 140.88L128.56 141.44L129.92 142.00L131.28 142.55L132.64 143.11L134.00 143.66L135.36 144.21L136.72 144.75L138.08 145.30L139.44 145.84L140.80 146.38L142.16 146.92L143.52 147.45L144.88 147.98L146.24 148.51L147.60 149.04L148.96 149.56L150.32 150.09L151.68 150.61L153.04 151.13L154.40 151.64L155.76 152.15L157.12 152.66L158.48 153.17L159.84 153.68L161.20 154.18L162.56 154.68L163.92 155.18L165.28 155.67L166.64 156.17L168.00 156.66L169.36 157.14L170.72 157.63L172.08 158.11L173.44 158.59L174.80 159.07L176.16 159.54L177.52 160.02L178.88 160.49L180.24 160.95L181.60 161.42L182.96 161.88L184.32 162.34L185.68 162.80L187.04 163.25L188.40 163.70L189.76 164.15L191.12 164.60L192.48 165.04L193.84 165.49L195.20 165.92L196.56 166.36L197.92 166.79L199.28 167.22L200.64 167.65L202.00 168.08L203.36 168.50L204.72 168.92L206.08 169.34L207.44 169.75L208.80 170.17L210.16 170.58L211.52 170.98L212.88 171.39L214.24 171.79L215.60 172.19L216.96 172.59L218.32 172.98L219.68 173.37L221.04 173.76L222.40 174.14L223.76 174.53L225.12 174.91L226.48 175.29L227.84 175.66L229.20 176.03L230.56 176.40L231.92 176.77L233.28 177.14L234.64 177.50L236.00 177.86L237.36 178.21L238.72 178.57L240.08 178.92L241.44 179.27L242.80 179.61L244.16 179.96L245.52 180.30L246.88 180.63L248.24 180.97L249.60 181.30L250.96 181.63L252.32 181.96L253.68 182.29L255.04 182.61L256.40 182.93L257.76 183.24L259.12 183.56L260.48 183.87L261.84 184.18L263.20 184.49L264.56 184.79L265.92 185.09L267.28 185.39L268.64 185.69L270.00 185.98L271.36 186.27L272.72 186.56L274.08 186.85L275.44 187.13L276.80 187.41L278.16 187.69L279.52 187.97L280.88 188.24L282.24 188.51L283.60 188.78L284.96 189.04L286.32 189.31L287.68 189.57L289.04 189.83L290.40 190.08L291.76 190.34L293.12 190.59L294.48 190.84L295.84 191.08L297.20 191.33L298.56 191.57L299.92 191.81L301.28 192.05L302.64 192.28L304.00 192.51L305.36 192.74L306.72 192.97L308.08 193.19L309.44 193.42L310.80 193.64L312.16 193.86L313.52 194.07L314.88 194.29L316.24 194.50L317.60 194.71L318.96 194.91L320.32 195.12L321.68 195.32L323.04 195.52L324.40 195.72L325.76 195.92L327.12 196.11L328.48 196.30L329.84 196.49L331.20 196.68L332.56 196.86L333.92 197.05L335.28 197.23L336.64 197.41L338.00 197.59L339.36 197.76L340.72 197.93L342.08 198.11L343.44 198.27L344.80 198.44L346.16 198.61L347.52 198.77L348.88 198.93L350.24 199.09L351.60 199.25L352.96 199.41L354.32 199.56L355.68 199.71L357.04 199.86L358.40 200.01L359.76 200.16L361.12 200.30L362.48 200.45L363.84 200.59L365.20 200.72L366.56 200.86L367.92 200.99L369.28 201.12L370.64 201.25L372.00 201.38L373.36 201.50L374.72 201.62L376.08 201.73L377.44 201.84L378.80 201.95L380.16 202.06L381.52 202.16L382.88 202.25L384.24 202.34L385.60 202.43L386.96 202.51L388.32 202.59L389.68 202.66L391.04 202.73L392.40 202.79L393.76 202.85L395.12 202.90L396.48 202.95L397.84 202.99L399.20 203.03L400.56 203.05L401.92 203.08L403.28 203.09L404.64 203.10L406.00 203.11L407.36 203.11L408.72 203.10L410.08 203.08L411.44 203.06L412.80 203.03L414.16 202.99L415.52 202.94L416.88 202.89L418.24 202.83L419.60 202.76L420.96 202.69L422.32 202.61L423.68 202.51L425.04 202.41L426.40 202.31L427.76 202.19L429.12 202.07L430.48 201.93L431.84 201.79L433.20 201.64L434.56 201.48L435.92 201.31L437.28 201.14L438.64 200.95L440.00 200.76L441.36 200.55L442.72 200.34L444.08 200.12L445.44 199.88L446.80 199.64L448.16 199.39L449.52 199.13L450.88 198.86L452.24 198.58L453.60 198.29L454.96 197.99L456.32 197.68L457.68 197.36L459.04 197.03L460.40 196.70L461.76 196.35L463.12 195.99L464.48 195.62L465.84 195.24L467.20 194.85L468.56 194.45L469.92 194.05L471.28 193.63L472.64 193.20L474.00 192.76L475.36 192.31L476.72 191.85L478.08 191.39L479.44 190.91L480.80 190.42L482.16 189.92L483.52 189.41L484.88 188.90L486.24 188.37L487.60 187.83L488.96 187.28L490.32 186.72L491.68 186.16L493.04 185.58L494.40 184.99L495.76 184.40L497.12 183.79L498.48 183.18L499.84 182.55L501.20 181.92L502.56 181.28L503.92 180.62L505.28 179.96L506.64 179.29L508.00 178.61L509.36 177.92L510.72 177.22L512.08 176.52L513.44 175.80L514.80 175.07L516.16 174.34L517.52 173.60L518.88 172.85L520.24 172.09L521.60 171.32L522.96 170.54L524.32 169.76L525.68 168.96L527.04 168.16L528.40 167.35L529.76 166.53L531.12 165.71L532.48 164.87L533.84 164.03L535.20 163.18L536.56 162.32L537.92 161.46L539.28 160.59L540.64 159.71L542.00 158.82L543.36 157.93L544.72 157.02L546.08 156.11L547.44 155.20L548.80 154.27L550.16 153.34L551.52 152.41L552.88 151.46L554.24 150.51L555.60 149.56L556.96 148.59L558.32 147.62L559.68 146.64L561.04 145.66L562.40 144.67L563.76 143.67L565.12 142.67L566.48 141.66L567.84 140.65L569.20 139.63L570.56 138.60L571.92 137.57L573.28 136.53L574.64 135.49L576.00 134.44L577.36 133.39L578.72 132.33L580.08 131.26L581.44 130.19L582.80 129.12L584.16 128.03L585.52 126.95L586.88 125.86L588.24 124.76L589.60 123.66L590.96 122.55L592.32 121.44L593.68 120.33L595.04 119.20L596.40 118.08L597.76 116.95L599.12 115.81L600.48 114.68L601.84 113.53L603.20 112.38L604.56 111.23L605.92 110.07L607.28 108.91L608.64 107.75L610.00 106.58" fill="none" stroke="#a1a1aa" stroke-width="1.5" stroke-dasharray="5 4"/>
<line x1="622" y1="61" x2="644" y2="61" stroke="#a1a1aa" stroke-width="1.5" stroke-dasharray="5 4"/>
<text x="650" y="65" font-size="11" fill="#3f3f46">BBF0</text>
<path d="M66.00 107.71L67.36 108.39L68.72 109.07L70.08 109.75L71.44 110.42L72.80 111.10L74.16 111.77L75.52 112.44L76.88 113.11L78.24 113.77L79.60 114.43L80.96 115.10L82.32 115.76L83.68 116.41L85.04 117.07L86.40 117.72L87.76 118.37L89.12 119.02L90.48 119.67L91.84 120.31L93.20 120.95L94.56 121.59L95.92 122.23L97.28 122.87L98.64 123.50L100.00 124.13L101.36 124.76L102.72 125.39L104.08 126.01L105.44 126.63L106.80 127.25L108.16 127.87L109.52 128.49L110.88 129.10L112.24 129.71L113.60 130.32L114.96 130.93L116.32 131.53L117.68 132.13L119.04 132.73L120.40 133.33L121.76 133.92L123.12 134.52L124.48 135.11L125.84 135.69L127.20 136.28L128.56 136.86L129.92 137.44L131.28 138.02L132.64 138.60L134.00 139.17L135.36 139.74L136.72 140.31L138.08 140.88L139.44 141.44L140.80 142.00L142.16 142.56L143.52 143.12L144.88 143.67L146.24 144.22L147.60 144.77L148.96 145.32L150.32 145.86L151.68 146.40L153.04 146.94L154.40 147.48L155.76 148.01L157.12 148.54L158.48 149.07L159.84 149.60L161.20 150.12L162.56 150.64L163.92 151.16L165.28 151.68L166.64 152.19L168.00 152.70L169.36 153.21L170.72 153.71L172.08 154.22L173.44 154.72L174.80 155.21L176.16 155.71L177.52 156.20L178.88 156.69L180.24 157.18L181.60 157.66L182.96 158.14L184.32 158.62L185.68 159.10L187.04 159.57L188.40 160.05L189.76 160.51L191.12 160.98L192.48 161.44L193.84 161.90L195.20 162.36L196.56 162.82L197.92 163.27L199.28 163.72L200.64 164.16L202.00 164.61L203.36 165.05L204.72 165.49L206.08 165.93L207.44 166.36L208.80 166.79L210.16 167.22L211.52 167.64L212.88 168.07L214.24 168.49L215.60 168.90L216.96 169.32L218.32 169.73L219.68 170.14L221.04 170.54L222.40 170.95L223.76 171.35L225.12 171.75L226.48 172.14L227.84 172.53L229.20 172.92L230.56 173.31L231.92 173.70L233.28 174.08L234.64 174.46L236.00 174.83L237.36 175.21L238.72 175.58L240.08 175.94L241.44 176.31L242.80 176.67L244.16 177.03L245.52 177.39L246.88 177.74L248.24 178.10L249.60 178.45L250.96 178.79L252.32 179.14L253.68 179.48L255.04 179.82L256.40 180.15L257.76 180.48L259.12 180.82L260.48 181.14L261.84 181.47L263.20 181.79L264.56 182.11L265.92 182.43L267.28 182.74L268.64 183.05L270.00 183.36L271.36 183.67L272.72 183.98L274.08 184.28L275.44 184.58L276.80 184.87L278.16 185.17L279.52 185.46L280.88 185.75L282.24 186.03L283.60 186.32L284.96 186.60L286.32 186.88L287.68 187.15L289.04 187.43L290.40 187.70L291.76 187.97L293.12 188.23L294.48 188.49L295.84 188.76L297.20 189.01L298.56 189.27L299.92 189.53L301.28 189.78L302.64 190.03L304.00 190.27L305.36 190.52L306.72 190.76L308.08 191.00L309.44 191.24L310.80 191.47L312.16 191.70L313.52 191.93L314.88 192.16L316.24 192.39L317.60 192.61L318.96 192.83L320.32 193.05L321.68 193.27L323.04 193.48L324.40 193.69L325.76 193.90L327.12 194.11L328.48 194.32L329.84 194.52L331.20 194.72L332.56 194.92L333.92 195.12L335.28 195.31L336.64 195.50L338.00 195.70L339.36 195.88L340.72 196.07L342.08 196.26L343.44 196.44L344.80 196.62L346.16 196.80L347.52 196.98L348.88 197.15L350.24 197.32L351.60 197.49L352.96 197.66L354.32 197.83L355.68 198.00L357.04 198.16L358.40 198.32L359.76 198.42L361.12 198.48L362.48 198.54L363.84 198.59L365.20 198.64L366.56 198.69L367.92 198.74L369.28 198.79L370.64 198.83L372.00 198.87L373.36 198.90L374.72 198.94L376.08 198.97L377.44 198.99L378.80 199.01L380.16 199.03L381.52 199.05L382.88 199.06L384.24 199.07L385.60 199.07L386.96 199.06L388.32 199.06L389.68 199.05L391.04 199.03L392.40 199.01L393.76 198.98L395.12 198.95L396.48 198.91L397.84 198.86L399.20 198.81L400.56 198.76L401.92 198.69L403.28 198.63L404.64 198.55L406.00 198.47L407.36 198.38L408.72 198.29L410.08 198.19L411.44 198.08L412.80 197.96L414.16 197.84L415.52 197.71L416.88 197.57L418.24 197.42L419.60 197.27L420.96 197.11L422.32 196.94L423.68 196.76L425.04 196.57L426.40 196.38L427.76 196.17L429.12 195.96L430.48 195.74L431.84 195.51L433.20 195.27L434.56 195.02L435.92 194.77L437.28 194.50L438.64 194.23L440.00 193.94L441.36 193.65L442.72 193.34L444.08 193.03L445.44 192.71L446.80 192.38L448.16 192.03L449.52 191.68L450.88 191.32L452.24 190.95L453.60 190.56L454.96 190.17L456.32 189.77L457.68 189.36L459.04 188.93L460.40 188.50L461.76 188.06L463.12 187.60L464.48 187.14L465.84 186.67L467.20 186.18L468.56 185.69L469.92 185.18L471.28 184.66L472.64 184.14L474.00 183.60L475.36 183.05L476.72 182.49L478.08 181.93L479.44 181.35L480.80 180.76L482.16 180.16L483.52 179.55L484.88 178.93L486.24 178.30L487.60 177.66L488.96 177.01L490.32 176.34L491.68 175.67L493.04 174.99L494.40 174.30L495.76 173.59L497.12 172.88L498.48 172.16L499.84 171.43L501.20 170.68L502.56 169.93L503.92 169.17L505.28 168.40L506.64 167.61L508.00 166.82L509.36 166.02L510.72 165.21L512.08 164.39L513.44 163.56L514.80 162.72L516.16 161.87L517.52 161.01L518.88 160.15L520.24 159.27L521.60 158.38L522.96 157.49L524.32 156.58L525.68 155.67L527.04 154.75L528.40 153.82L529.76 152.88L531.12 151.93L532.48 150.98L533.84 150.01L535.20 149.04L536.56 148.06L537.92 147.07L539.28 146.07L540.64 145.07L542.00 144.05L543.36 143.03L544.72 142.00L546.08 140.97L547.44 139.92L548.80 138.87L550.16 137.81L551.52 136.74L552.88 135.67L554.24 134.58L555.60 133.49L556.96 132.40L558.32 131.29L559.68 130.18L561.04 129.06L562.40 127.94L563.76 126.81L565.12 125.67L566.48 124.52L567.84 123.37L569.20 122.21L570.56 121.05L571.92 119.88L573.28 118.70L574.64 117.52L576.00 116.33L577.36 115.13L578.72 113.93L580.08 112.72L581.44 111.51L582.80 110.29L584.16 109.06L585.52 107.83L586.88 106.59L588.24 105.35L589.60 104.10L590.96 102.85L592.32 101.59L593.68 100.32L595.04 99.06L596.40 97.78L597.76 96.50L599.12 95.22L600.48 93.92L601.84 92.63L603.20 91.33L604.56 90.02L605.92 88.71L607.28 87.40L608.64 86.08L610.00 84.76" fill="none" stroke="#2563eb" stroke-width="1.5"/>
<line x1="622" y1="78" x2="644" y2="78" stroke="#2563eb" stroke-width="1.5"/>
<text x="650" y="82" font-size="11" fill="#3f3f46">PHL1</text>
<path d="M66.00 107.70L67.36 108.38L68.72 109.06L70.08 109.74L71.44 110.42L72.80 111.09L74.16 111.76L75.52 112.43L76.88 113.10L78.24 113.76L79.60 114.43L80.96 115.09L82.32 115.75L83.68 116.40L85.04 117.06L86.40 117.71L87.76 118.36L89.12 119.01L90.48 119.66L91.84 120.30L93.20 120.94L94.56 121.58L95.92 122.22L97.28 122.85L98.64 123.49L100.00 124.12L101.36 124.75L102.72 125.37L104.08 126.00L105.44 126.62L106.80 127.24L108.16 127.86L109.52 128.47L110.88 129.09L112.24 129.70L113.60 130.31L114.96 130.91L116.32 131.52L117.68 132.12L119.04 132.72L120.40 133.31L121.76 133.91L123.12 134.50L124.48 135.09L125.84 135.68L127.20 136.26L128.56 136.85L129.92 137.43L131.28 138.00L132.64 138.58L134.00 139.15L135.36 139.72L136.72 140.29L138.08 140.86L139.44 141.42L140.80 141.98L142.16 142.54L143.52 143.10L144.88 143.65L146.24 144.20L147.60 144.75L148.96 145.29L150.32 145.84L151.68 146.38L153.04 146.92L154.40 147.45L155.76 147.99L157.12 148.52L158.48 149.04L159.84 149.57L161.20 150.09L162.56 150.61L163.92 151.13L165.28 151.65L166.64 152.16L168.00 152.67L169.36 153.18L170.72 153.68L172.08 154.18L173.44 154.68L174.80 155.18L176.16 155.67L177.52 156.17L178.88 156.65L180.24 157.14L181.60 157.62L182.96 158.11L184.32 158.58L185.68 159.06L187.04 159.53L188.40 160.00L189.76 160.47L191.12 160.93L192.48 161.40L193.84 161.86L195.20 162.31L196.56 162.77L197.92 163.22L199.28 163.67L200.64 164.11L202.00 164.56L203.36 165.00L204.72 165.43L206.08 165.87L207.44 166.30L208.80 166.73L210.16 167.16L211.52 167.58L212.88 168.00L214.24 168.42L215.60 168.83L216.96 169.25L218.32 169.66L219.68 170.06L221.04 170.47L222.40 170.87L223.76 171.27L225.12 171.66L226.48 172.06L227.84 172.45L229.20 172.84L230.56 173.22L231.92 173.60L233.28 173.98L234.64 174.36L236.00 174.73L237.36 175.10L238.72 175.47L240.08 175.84L241.44 176.20L242.80 176.56L244.16 176.92L245.52 177.27L246.88 177.62L248.24 177.97L249.60 178.32L250.96 178.66L252.32 179.00L253.68 179.34L255.04 179.67L256.40 180.01L257.76 180.33L259.12 180.66L260.48 180.99L261.84 181.31L263.20 181.62L264.56 181.94L265.92 182.25L267.28 182.56L268.64 182.87L270.00 183.17L271.36 183.47L272.72 183.77L274.08 184.07L275.44 184.36L276.80 184.65L278.16 184.94L279.52 185.23L280.88 185.51L282.24 185.79L283.60 186.06L284.96 186.34L286.32 186.61L287.68 186.88L289.04 187.14L290.40 187.40L291.76 187.66L293.12 187.92L294.48 188.18L295.84 188.43L297.20 188.68L298.56 188.92L299.92 189.17L301.28 189.41L302.64 189.65L304.00 189.88L305.36 190.11L306.72 190.34L308.08 190.57L309.44 190.79L310.80 191.01L312.16 191.23L313.52 191.45L314.88 191.66L316.24 191.87L317.60 192.08L318.96 192.28L320.32 192.48L321.68 192.68L323.04 192.88L324.40 193.07L325.76 193.26L327.12 193.45L328.48 193.63L329.84 193.81L331.20 193.99L332.56 194.17L333.92 194.34L335.28 194.51L336.64 194.68L338.00 194.84L339.36 195.00L340.72 195.16L342.08 195.31L343.44 195.46L344.80 195.61L346.16 195.75L347.52 195.90L348.88 196.03L350.24 196.17L351.60 196.30L352.96 196.43L354.32 196.55L355.68 196.67L357.04 196.79L358.40 196.90L359.76 197.01L361.12 197.12L362.48 197.22L363.84 197.32L365.20 197.42L366.56 197.51L367.92 197.59L369.28 197.68L370.64 197.76L372.00 197.83L373.36 197.90L374.72 197.97L376.08 198.03L377.44 198.08L378.80 198.14L380.16 198.18L381.52 198.23L382.88 198.26L384.24 198.29L385.60 198.32L386.96 198.34L388.32 198.36L389.68 198.37L391.04 198.37L392.40 198.37L393.76 198.36L395.12 198.35L396.48 198.33L397.84 198.30L399.20 198.27L400.56 198.23L401.92 198.18L403.28 198.13L404.64 198.07L406.00 198.00L407.36 197.93L408.72 197.85L410.08 197.76L411.44 197.66L412.80 197.56L414.16 197.45L415.52 197.33L416.88 197.20L418.24 197.07L419.60 196.92L420.96 196.77L422.32 196.61L423.68 196.44L425.04 196.26L426.40 196.08L427.76 195.88L429.12 195.68L430.48 195.47L431.84 195.24L433.20 195.01L434.56 194.77L435.92 194.52L437.28 194.26L438.64 193.99L440.00 193.72L441.36 193.43L442.72 193.13L444.08 192.82L445.44 192.51L446.80 192.18L448.16 191.84L449.52 191.50L450.88 191.14L452.24 190.77L453.60 190.39L454.96 190.01L456.32 189.61L457.68 189.20L459.04 188.78L460.40 188.35L461.76 187.91L463.12 187.46L464.48 187.00L465.84 186.53L467.20 186.05L468.56 185.56L469.92 185.06L471.28 184.54L472.64 184.02L474.00 183.49L475.36 182.94L476.72 182.39L478.08 181.82L479.44 181.24L480.80 180.66L482.16 180.06L483.52 179.45L484.88 178.83L486.24 178.21L487.60 177.57L488.96 176.92L490.32 176.26L491.68 175.59L493.04 174.91L494.40 174.22L495.76 173.52L497.12 172.81L498.48 172.09L499.84 171.35L501.20 170.61L502.56 169.86L503.92 169.10L505.28 168.33L506.64 167.55L508.00 166.76L509.36 165.96L510.72 165.15L512.08 164.33L513.44 163.50L514.80 162.66L516.16 161.82L517.52 160.96L518.88 160.09L520.24 159.22L521.60 158.33L522.96 157.44L524.32 156.54L525.68 155.63L527.04 154.71L528.40 153.78L529.76 152.84L531.12 151.89L532.48 150.94L533.84 149.97L535.20 149.00L536.56 148.02L537.92 147.03L539.28 146.04L540.64 145.03L542.00 144.02L543.36 143.00L544.72 141.97L546.08 140.93L547.44 139.89L548.80 138.84L550.16 137.78L551.52 136.71L552.88 135.64L554.24 134.55L555.60 133.46L556.96 132.37L558.32 131.27L559.68 130.15L561.04 129.04L562.40 127.91L563.76 126.78L565.12 125.64L566.48 124.50L567.84 123.35L569.20 122.19L570.56 121.03L571.92 119.86L573.28 118.68L574.64 117.50L576.00 116.31L577.36 115.11L578.72 113.91L580.08 112.70L581.44 111.49L582.80 110.27L584.16 109.04L585.52 107.81L586.88 106.57L588.24 105.33L589.60 104.08L590.96 102.83L592.32 101.57L593.68 100.31L595.04 99.04L596.40 97.76L597.76 96.49L599.12 95.20L600.48 93.91L601.84 92.62L603.20 91.32L604.56 90.01L605.92 88.70L607.28 87.39L608.64 86.07L610.00 84.74" fill="none" stroke="#dc2626" stroke-width="1.8"/>
<line x1="622" y1="95" x2="644" y2="95" stroke="#dc2626" stroke-width="1.8"/>
<text x="650" y="99" font-size="11" fill="#3f3f46">PHL1 + Φ_BB corr</text>
<text x="338" y="292" text-anchor="middle" font-size="11" fill="#52525b">log-moneyness k</text>
<text transform="translate(18 144) rotate(-90)" text-anchor="middle" font-size="11" fill="#52525b">implied vol (ann %)</text>
<text x="380" y="320" text-anchor="middle" font-weight="600" font-size="14">Error vs PDE (basis points)</text>
<line x1="66" y1="554" x2="610" y2="554" stroke="#ececf0"/>
<text x="58" y="558" text-anchor="end" font-size="11" fill="#52525b">-300</text>
<line x1="66" y1="499" x2="610" y2="499" stroke="#ececf0"/>
<text x="58" y="503" text-anchor="end" font-size="11" fill="#52525b">-200</text>
<line x1="66" y1="444" x2="610" y2="444" stroke="#ececf0"/>
<text x="58" y="448" text-anchor="end" font-size="11" fill="#52525b">-100</text>
<line x1="66" y1="389" x2="610" y2="389" stroke="#a1a1aa"/>
<text x="58" y="393" text-anchor="end" font-size="11" fill="#52525b">0</text>
<line x1="66" y1="334" x2="610" y2="334" stroke="#ececf0"/>
<text x="58" y="338" text-anchor="end" font-size="11" fill="#52525b">100</text>
<line x1="145.52283220045922" y1="334" x2="145.52283220045922" y2="554" stroke="#ececf0"/>
<text x="145.52283220045922" y="570" text-anchor="middle" font-size="11" fill="#52525b">-0.05</text>
<line x1="358.92307692307696" y1="334" x2="358.92307692307696" y2="554" stroke="#ececf0"/>
<text x="358.92307692307696" y="570" text-anchor="middle" font-size="11" fill="#52525b">0.00</text>
<line x1="572.3233216456947" y1="334" x2="572.3233216456947" y2="554" stroke="#ececf0"/>
<text x="572.3233216456947" y="570" text-anchor="middle" font-size="11" fill="#52525b">0.05</text>
<line x1="66" y1="389" x2="610" y2="389" stroke="#71717a"/>
<line x1="358.92307692307696" y1="334" x2="358.92307692307696" y2="554" stroke="#ef4444" stroke-dasharray="3 3"/>
<path d="M66.00 425.77L67.36 425.60L68.72 425.44L70.08 425.28L71.44 425.11L72.80 424.95L74.16 424.79L75.52 424.63L76.88 424.46L78.24 424.30L79.60 424.14L80.96 423.98L82.32 423.82L83.68 423.66L85.04 423.50L86.40 423.34L87.76 423.18L89.12 423.02L90.48 422.86L91.84 422.70L93.20 422.55L94.56 422.39L95.92 422.23L97.28 422.08L98.64 421.92L100.00 421.77L101.36 421.61L102.72 421.46L104.08 421.30L105.44 421.15L106.80 421.00L108.16 420.84L109.52 420.69L110.88 420.54L112.24 420.39L113.60 420.24L114.96 420.09L116.32 419.94L117.68 419.79L119.04 419.64L120.40 419.49L121.76 419.35L123.12 419.20L124.48 419.05L125.84 418.91L127.20 418.76L128.56 418.62L129.92 418.47L131.28 418.33L132.64 418.19L134.00 418.04L135.36 417.90L136.72 417.76L138.08 417.62L139.44 417.48L140.80 417.34L142.16 417.20L143.52 417.06L144.88 416.92L146.24 416.79L147.60 416.65L148.96 416.51L150.32 416.38L151.68 416.24L153.04 416.11L154.40 415.97L155.76 415.84L157.12 415.71L158.48 415.58L159.84 415.44L161.20 415.31L162.56 415.18L163.92 415.05L165.28 414.92L166.64 414.79L168.00 414.67L169.36 414.54L170.72 414.41L172.08 414.28L173.44 414.16L174.80 414.03L176.16 413.91L177.52 413.78L178.88 413.66L180.24 413.54L181.60 413.42L182.96 413.29L184.32 413.17L185.68 413.05L187.04 412.93L188.40 412.81L189.76 412.70L191.12 412.58L192.48 412.46L193.84 412.34L195.20 412.23L196.56 412.11L197.92 412.00L199.28 411.88L200.64 411.77L202.00 411.66L203.36 411.54L204.72 411.43L206.08 411.32L207.44 411.21L208.80 411.10L210.16 410.99L211.52 410.89L212.88 410.78L214.24 410.67L215.60 410.57L216.96 410.46L218.32 410.36L219.68 410.25L221.04 410.15L222.40 410.05L223.76 409.94L225.12 409.84L226.48 409.74L227.84 409.64L229.20 409.55L230.56 409.45L231.92 409.35L233.28 409.25L234.64 409.16L236.00 409.06L237.36 408.97L238.72 408.88L240.08 408.78L241.44 408.69L242.80 408.60L244.16 408.51L245.52 408.43L246.88 408.34L248.24 408.25L249.60 408.17L250.96 408.08L252.32 408.00L253.68 407.91L255.04 407.83L256.40 407.75L257.76 407.67L259.12 407.59L260.48 407.52L261.84 407.44L263.20 407.36L264.56 407.29L265.92 407.22L267.28 407.15L268.64 407.08L270.00 407.01L271.36 406.94L272.72 406.87L274.08 406.81L275.44 406.75L276.80 406.68L278.16 406.62L279.52 406.56L280.88 406.51L282.24 406.45L283.60 406.40L284.96 406.34L286.32 406.29L287.68 406.24L289.04 406.20L290.40 406.15L291.76 406.11L293.12 406.07L294.48 406.03L295.84 405.99L297.20 405.96L298.56 405.92L299.92 405.89L301.28 405.87L302.64 405.84L304.00 405.82L305.36 405.80L306.72 405.78L308.08 405.77L309.44 405.76L310.80 405.75L312.16 405.74L313.52 405.74L314.88 405.74L316.24 405.75L317.60 405.76L318.96 405.77L320.32 405.78L321.68 405.81L323.04 405.83L324.40 405.86L325.76 405.89L327.12 405.93L328.48 405.97L329.84 406.02L331.20 406.07L332.56 406.13L333.92 406.19L335.28 406.26L336.64 406.34L338.00 406.42L339.36 406.51L340.72 406.61L342.08 406.71L343.44 406.82L344.80 406.94L346.16 407.06L347.52 407.20L348.88 407.34L350.24 407.49L351.60 407.65L352.96 407.82L354.32 408.00L355.68 408.19L357.04 408.40L358.40 408.61L359.76 408.84L361.12 409.08L362.48 409.32L363.84 409.59L365.20 409.86L366.56 410.14L367.92 410.43L369.28 410.73L370.64 411.04L372.00 411.36L373.36 411.69L374.72 412.02L376.08 412.37L377.44 412.72L378.80 413.08L380.16 413.44L381.52 413.82L382.88 414.20L384.24 414.58L385.60 414.98L386.96 415.38L388.32 415.78L389.68 416.19L391.04 416.61L392.40 417.03L393.76 417.46L395.12 417.89L396.48 418.33L397.84 418.77L399.20 419.22L400.56 419.67L401.92 420.13L403.28 420.59L404.64 421.06L406.00 421.53L407.36 422.00L408.72 422.48L410.08 422.96L411.44 423.45L412.80 423.94L414.16 424.44L415.52 424.94L416.88 425.44L418.24 425.95L419.60 426.46L420.96 426.97L422.32 427.49L423.68 428.01L425.04 428.54L426.40 429.07L427.76 429.60L429.12 430.14L430.48 430.68L431.84 431.23L433.20 431.78L434.56 432.33L435.92 432.88L437.28 433.44L438.64 434.01L440.00 434.57L441.36 435.15L442.72 435.72L444.08 436.30L445.44 436.88L446.80 437.47L448.16 438.06L449.52 438.65L450.88 439.25L452.24 439.85L453.60 440.45L454.96 441.06L456.32 441.67L457.68 442.29L459.04 442.91L460.40 443.53L461.76 444.16L463.12 444.79L464.48 445.43L465.84 446.07L467.20 446.71L468.56 447.36L469.92 448.01L471.28 448.67L472.64 449.33L474.00 449.99L475.36 450.66L476.72 451.33L478.08 452.00L479.44 452.68L480.80 453.37L482.16 454.05L483.52 454.74L484.88 455.44L486.24 456.14L487.60 456.84L488.96 457.54L490.32 458.25L491.68 458.96L493.04 459.68L494.40 460.40L495.76 461.12L497.12 461.85L498.48 462.58L499.84 463.31L501.20 464.05L502.56 464.78L503.92 465.53L505.28 466.27L506.64 467.02L508.00 467.77L509.36 468.52L510.72 469.27L512.08 470.03L513.44 470.79L514.80 471.55L516.16 472.31L517.52 473.07L518.88 473.84L520.24 474.61L521.60 475.37L522.96 476.14L524.32 476.91L525.68 477.68L527.04 478.45L528.40 479.22L529.76 479.99L531.12 480.76L532.48 481.53L533.84 482.30L535.20 483.07L536.56 483.84L537.92 484.60L539.28 485.36L540.64 486.13L542.00 486.88L543.36 487.64L544.72 488.40L546.08 489.15L547.44 489.89L548.80 490.64L550.16 491.38L551.52 492.11L552.88 492.85L554.24 493.57L555.60 494.30L556.96 495.01L558.32 495.72L559.68 496.43L561.04 497.13L562.40 497.82L563.76 498.50L565.12 499.18L566.48 499.85L567.84 500.51L569.20 501.17L570.56 501.81L571.92 502.45L573.28 503.08L574.64 503.69L576.00 504.30L577.36 504.90L578.72 505.49L580.08 506.06L581.44 506.63L582.80 507.18L584.16 507.72L585.52 508.25L586.88 508.77L588.24 509.27L589.60 509.76L590.96 510.24L592.32 510.70L593.68 511.15L595.04 511.58L596.40 512.00L597.76 512.41L599.12 512.79L600.48 513.17L601.84 513.52L603.20 513.86L604.56 514.18L605.92 514.49L607.28 514.77L608.64 515.04L610.00 515.30" fill="none" stroke="#a1a1aa" stroke-width="1.5" stroke-dasharray="5 4"/>
<line x1="622" y1="344" x2="644" y2="344" stroke="#a1a1aa" stroke-width="1.5" stroke-dasharray="5 4"/>
<text x="650" y="348" font-size="11" fill="#3f3f46">BBF0 − PDE</text>
<path d="M66.00 390.23L67.36 390.23L68.72 390.22L70.08 390.22L71.44 390.22L72.80 390.22L74.16 390.21L75.52 390.21L76.88 390.20L78.24 390.20L79.60 390.20L80.96 390.19L82.32 390.19L83.68 390.18L85.04 390.18L86.40 390.17L87.76 390.17L89.12 390.16L90.48 390.16L91.84 390.15L93.20 390.15L94.56 390.14L95.92 390.14L97.28 390.13L98.64 390.13L100.00 390.12L101.36 390.12L102.72 390.11L104.08 390.11L105.44 390.10L106.80 390.10L108.16 390.09L109.52 390.09L110.88 390.08L112.24 390.08L113.60 390.07L114.96 390.07L116.32 390.06L117.68 390.06L119.04 390.05L120.40 390.05L121.76 390.04L123.12 390.04L124.48 390.03L125.84 390.03L127.20 390.03L128.56 390.02L129.92 390.02L131.28 390.01L132.64 390.01L134.00 390.00L135.36 390.00L136.72 390.00L138.08 389.99L139.44 389.99L140.80 389.99L142.16 389.98L143.52 389.98L144.88 389.98L146.24 389.97L147.60 389.97L148.96 389.97L150.32 389.96L151.68 389.96L153.04 389.96L154.40 389.96L155.76 389.96L157.12 389.95L158.48 389.95L159.84 389.95L161.20 389.95L162.56 389.95L163.92 389.94L165.28 389.94L166.64 389.94L168.00 389.94L169.36 389.94L170.72 389.94L172.08 389.94L173.44 389.94L174.80 389.94L176.16 389.94L177.52 389.94L178.88 389.94L180.24 389.94L181.60 389.94L182.96 389.94L184.32 389.94L185.68 389.94L187.04 389.94L188.40 389.95L189.76 389.95L191.12 389.95L192.48 389.95L193.84 389.95L195.20 389.96L196.56 389.96L197.92 389.96L199.28 389.96L200.64 389.97L202.00 389.97L203.36 389.98L204.72 389.98L206.08 389.98L207.44 389.99L208.80 389.99L210.16 390.00L211.52 390.01L212.88 390.01L214.24 390.02L215.60 390.02L216.96 390.03L218.32 390.04L219.68 390.04L221.04 390.05L222.40 390.06L223.76 390.07L225.12 390.08L226.48 390.09L227.84 390.10L229.20 390.11L230.56 390.12L231.92 390.13L233.28 390.14L234.64 390.15L236.00 390.16L237.36 390.17L238.72 390.19L240.08 390.20L241.44 390.22L242.80 390.23L244.16 390.24L245.52 390.26L246.88 390.28L248.24 390.29L249.60 390.31L250.96 390.33L252.32 390.35L253.68 390.37L255.04 390.39L256.40 390.41L257.76 390.43L259.12 390.45L260.48 390.47L261.84 390.50L263.20 390.52L264.56 390.55L265.92 390.57L267.28 390.60L268.64 390.63L270.00 390.66L271.36 390.69L272.72 390.72L274.08 390.75L275.44 390.78L276.80 390.82L278.16 390.85L279.52 390.89L280.88 390.93L282.24 390.97L283.60 391.01L284.96 391.05L286.32 391.10L287.68 391.14L289.04 391.19L290.40 391.24L291.76 391.29L293.12 391.34L294.48 391.39L295.84 391.45L297.20 391.50L298.56 391.56L299.92 391.62L301.28 391.69L302.64 391.75L304.00 391.82L305.36 391.89L306.72 391.96L308.08 392.04L309.44 392.12L310.80 392.20L312.16 392.28L313.52 392.37L314.88 392.46L316.24 392.55L317.60 392.65L318.96 392.75L320.32 392.85L321.68 392.96L323.04 393.07L324.40 393.19L325.76 393.31L327.12 393.43L328.48 393.56L329.84 393.70L331.20 393.84L332.56 393.98L333.92 394.13L335.28 394.28L336.64 394.44L338.00 394.61L339.36 394.78L340.72 394.96L342.08 395.15L343.44 395.35L344.80 395.55L346.16 395.76L347.52 395.97L348.88 396.20L350.24 396.43L351.60 396.68L352.96 396.93L354.32 397.19L355.68 397.47L357.04 397.75L358.40 398.05L359.76 397.97L361.12 397.67L362.48 397.38L363.84 397.11L365.20 396.84L366.56 396.59L367.92 396.34L369.28 396.11L370.64 395.88L372.00 395.67L373.36 395.46L374.72 395.26L376.08 395.07L377.44 394.89L378.80 394.72L380.16 394.55L381.52 394.40L382.88 394.24L384.24 394.10L385.60 393.96L386.96 393.83L388.32 393.70L389.68 393.58L391.04 393.47L392.40 393.36L393.76 393.26L395.12 393.16L396.48 393.06L397.84 392.97L399.20 392.89L400.56 392.81L401.92 392.74L403.28 392.67L404.64 392.60L406.00 392.54L407.36 392.48L408.72 392.42L410.08 392.37L411.44 392.32L412.80 392.28L414.16 392.24L415.52 392.20L416.88 392.16L418.24 392.13L419.60 392.10L420.96 392.08L422.32 392.05L423.68 392.03L425.04 392.02L426.40 392.00L427.76 391.99L429.12 391.98L430.48 391.97L431.84 391.97L433.20 391.96L434.56 391.96L435.92 391.96L437.28 391.97L438.64 391.97L440.00 391.98L441.36 391.99L442.72 392.00L444.08 392.02L445.44 392.03L446.80 392.05L448.16 392.07L449.52 392.09L450.88 392.11L452.24 392.14L453.60 392.16L454.96 392.19L456.32 392.22L457.68 392.25L459.04 392.29L460.40 392.32L461.76 392.36L463.12 392.39L464.48 392.43L465.84 392.47L467.20 392.51L468.56 392.55L469.92 392.60L471.28 392.64L472.64 392.69L474.00 392.74L475.36 392.78L476.72 392.83L478.08 392.88L479.44 392.93L480.80 392.99L482.16 393.04L483.52 393.09L484.88 393.15L486.24 393.20L487.60 393.26L488.96 393.31L490.32 393.37L491.68 393.42L493.04 393.48L494.40 393.54L495.76 393.59L497.12 393.65L498.48 393.71L499.84 393.76L501.20 393.82L502.56 393.87L503.92 393.93L505.28 393.98L506.64 394.04L508.00 394.09L509.36 394.14L510.72 394.19L512.08 394.24L513.44 394.29L514.80 394.33L516.16 394.38L517.52 394.42L518.88 394.46L520.24 394.49L521.60 394.53L522.96 394.56L524.32 394.59L525.68 394.61L527.04 394.63L528.40 394.65L529.76 394.67L531.12 394.68L532.48 394.69L533.84 394.69L535.20 394.69L536.56 394.68L537.92 394.66L539.28 394.65L540.64 394.62L542.00 394.59L543.36 394.56L544.72 394.51L546.08 394.47L547.44 394.41L548.80 394.35L550.16 394.27L551.52 394.20L552.88 394.11L554.24 394.01L555.60 393.91L556.96 393.79L558.32 393.67L559.68 393.54L561.04 393.40L562.40 393.24L563.76 393.08L565.12 392.91L566.48 392.72L567.84 392.52L569.20 392.31L570.56 392.09L571.92 391.86L573.28 391.61L574.64 391.35L576.00 391.08L577.36 390.79L578.72 390.49L580.08 390.17L581.44 389.84L582.80 389.50L584.16 389.14L585.52 388.76L586.88 388.37L588.24 387.96L589.60 387.53L590.96 387.09L592.32 386.63L593.68 386.15L595.04 385.65L596.40 385.14L597.76 384.60L599.12 384.05L600.48 383.48L601.84 382.88L603.20 382.27L604.56 381.64L605.92 380.99L607.28 380.31L608.64 379.62L610.00 378.90" fill="none" stroke="#2563eb" stroke-width="1.5"/>
<line x1="622" y1="361" x2="644" y2="361" stroke="#2563eb" stroke-width="1.5"/>
<text x="650" y="365" font-size="11" fill="#3f3f46">PHL1 − PDE</text>
<path d="M66.00 390.18L67.36 390.18L68.72 390.18L70.08 390.17L71.44 390.17L72.80 390.17L74.16 390.16L75.52 390.16L76.88 390.15L78.24 390.15L79.60 390.14L80.96 390.14L82.32 390.13L83.68 390.13L85.04 390.12L86.40 390.11L87.76 390.11L89.12 390.10L90.48 390.10L91.84 390.09L93.20 390.08L94.56 390.08L95.92 390.07L97.28 390.06L98.64 390.06L100.00 390.05L101.36 390.04L102.72 390.04L104.08 390.03L105.44 390.03L106.80 390.02L108.16 390.01L109.52 390.01L110.88 390.00L112.24 389.99L113.60 389.99L114.96 389.98L116.32 389.97L117.68 389.97L119.04 389.96L120.40 389.95L121.76 389.95L123.12 389.94L124.48 389.93L125.84 389.93L127.20 389.92L128.56 389.91L129.92 389.91L131.28 389.90L132.64 389.89L134.00 389.89L135.36 389.88L136.72 389.88L138.08 389.87L139.44 389.86L140.80 389.86L142.16 389.85L143.52 389.85L144.88 389.84L146.24 389.83L147.60 389.83L148.96 389.82L150.32 389.82L151.68 389.81L153.04 389.81L154.40 389.80L155.76 389.79L157.12 389.79L158.48 389.78L159.84 389.78L161.20 389.77L162.56 389.77L163.92 389.76L165.28 389.76L166.64 389.75L168.00 389.75L169.36 389.74L170.72 389.74L172.08 389.73L173.44 389.73L174.80 389.72L176.16 389.72L177.52 389.71L178.88 389.71L180.24 389.70L181.60 389.70L182.96 389.69L184.32 389.69L185.68 389.68L187.04 389.68L188.40 389.68L189.76 389.67L191.12 389.67L192.48 389.66L193.84 389.66L195.20 389.65L196.56 389.65L197.92 389.65L199.28 389.64L200.64 389.64L202.00 389.63L203.36 389.63L204.72 389.63L206.08 389.62L207.44 389.62L208.80 389.61L210.16 389.61L211.52 389.61L212.88 389.60L214.24 389.60L215.60 389.59L216.96 389.59L218.32 389.59L219.68 389.58L221.04 389.58L222.40 389.58L223.76 389.57L225.12 389.57L226.48 389.57L227.84 389.56L229.20 389.56L230.56 389.56L231.92 389.55L233.28 389.55L234.64 389.55L236.00 389.54L237.36 389.54L238.72 389.54L240.08 389.53L241.44 389.53L242.80 389.53L244.16 389.52L245.52 389.52L246.88 389.52L248.24 389.51L249.60 389.51L250.96 389.51L252.32 389.50L253.68 389.50L255.04 389.50L256.40 389.49L257.76 389.49L259.12 389.49L260.48 389.48L261.84 389.48L263.20 389.48L264.56 389.47L265.92 389.47L267.28 389.47L268.64 389.46L270.00 389.46L271.36 389.46L272.72 389.46L274.08 389.45L275.44 389.45L276.80 389.45L278.16 389.44L279.52 389.44L280.88 389.44L282.24 389.43L283.60 389.43L284.96 389.42L286.32 389.42L287.68 389.42L289.04 389.41L290.40 389.41L291.76 389.41L293.12 389.40L294.48 389.40L295.84 389.40L297.20 389.39L298.56 389.39L299.92 389.39L301.28 389.38L302.64 389.38L304.00 389.37L305.36 389.37L306.72 389.37L308.08 389.36L309.44 389.36L310.80 389.35L312.16 389.35L313.52 389.34L314.88 389.34L316.24 389.34L317.60 389.33L318.96 389.33L320.32 389.32L321.68 389.32L323.04 389.31L324.40 389.31L325.76 389.30L327.12 389.30L328.48 389.29L329.84 389.29L331.20 389.28L332.56 389.28L333.92 389.27L335.28 389.27L336.64 389.26L338.00 389.26L339.36 389.25L340.72 389.25L342.08 389.24L343.44 389.24L344.80 389.23L346.16 389.23L347.52 389.22L348.88 389.22L350.24 389.21L351.60 389.21L352.96 389.20L354.32 389.20L355.68 389.19L357.04 389.19L358.40 389.19L359.76 389.18L361.12 389.18L362.48 389.18L363.84 389.18L365.20 389.18L366.56 389.18L367.92 389.18L369.28 389.18L370.64 389.19L372.00 389.19L373.36 389.20L374.72 389.20L376.08 389.21L377.44 389.22L378.80 389.23L380.16 389.24L381.52 389.25L382.88 389.27L384.24 389.28L385.60 389.29L386.96 389.31L388.32 389.33L389.68 389.34L391.04 389.36L392.40 389.38L393.76 389.40L395.12 389.42L396.48 389.44L397.84 389.47L399.20 389.49L400.56 389.51L401.92 389.54L403.28 389.57L404.64 389.59L406.00 389.62L407.36 389.65L408.72 389.68L410.08 389.71L411.44 389.74L412.80 389.77L414.16 389.80L415.52 389.84L416.88 389.87L418.24 389.91L419.60 389.94L420.96 389.98L422.32 390.02L423.68 390.06L425.04 390.10L426.40 390.14L427.76 390.18L429.12 390.22L430.48 390.26L431.84 390.30L433.20 390.35L434.56 390.39L435.92 390.44L437.28 390.48L438.64 390.53L440.00 390.58L441.36 390.63L442.72 390.68L444.08 390.73L445.44 390.78L446.80 390.83L448.16 390.88L449.52 390.93L450.88 390.99L452.24 391.04L453.60 391.10L454.96 391.16L456.32 391.21L457.68 391.27L459.04 391.33L460.40 391.39L461.76 391.45L463.12 391.51L464.48 391.57L465.84 391.63L467.20 391.70L468.56 391.76L469.92 391.82L471.28 391.89L472.64 391.95L474.00 392.02L475.36 392.08L476.72 392.15L478.08 392.22L479.44 392.29L480.80 392.35L482.16 392.42L483.52 392.49L484.88 392.56L486.24 392.63L487.60 392.70L488.96 392.77L490.32 392.84L491.68 392.91L493.04 392.98L494.40 393.04L495.76 393.11L497.12 393.18L498.48 393.25L499.84 393.32L501.20 393.38L502.56 393.45L503.92 393.51L505.28 393.58L506.64 393.64L508.00 393.70L509.36 393.76L510.72 393.82L512.08 393.88L513.44 393.93L514.80 393.99L516.16 394.04L517.52 394.09L518.88 394.13L520.24 394.18L521.60 394.22L522.96 394.26L524.32 394.29L525.68 394.33L527.04 394.35L528.40 394.38L529.76 394.40L531.12 394.42L532.48 394.43L533.84 394.44L535.20 394.44L536.56 394.44L537.92 394.43L539.28 394.42L540.64 394.40L542.00 394.37L543.36 394.34L544.72 394.30L546.08 394.26L547.44 394.21L548.80 394.15L550.16 394.08L551.52 394.01L552.88 393.92L554.24 393.83L555.60 393.73L556.96 393.62L558.32 393.50L559.68 393.37L561.04 393.23L562.40 393.08L563.76 392.92L565.12 392.75L566.48 392.57L567.84 392.38L569.20 392.17L570.56 391.95L571.92 391.72L573.28 391.48L574.64 391.22L576.00 390.95L577.36 390.66L578.72 390.37L580.08 390.05L581.44 389.72L582.80 389.38L584.16 389.02L585.52 388.65L586.88 388.26L588.24 387.85L589.60 387.42L590.96 386.98L592.32 386.52L593.68 386.05L595.04 385.55L596.40 385.04L597.76 384.51L599.12 383.96L600.48 383.39L601.84 382.80L603.20 382.19L604.56 381.55L605.92 380.90L607.28 380.23L608.64 379.54L610.00 378.82" fill="none" stroke="#dc2626" stroke-width="1.8"/>
<line x1="622" y1="378" x2="644" y2="378" stroke="#dc2626" stroke-width="1.8"/>
<text x="650" y="382" font-size="11" fill="#3f3f46">PHL1+corr − PDE</text>
<text x="338" y="592" text-anchor="middle" font-size="11" fill="#52525b">log-moneyness k</text>
<text transform="translate(18 444) rotate(-90)" text-anchor="middle" font-size="11" fill="#52525b">error (bps)</text>
</svg>
