<svg xmlns="http://www.w3.org/2000/svg" width="760" height="300" viewBox="0 0 760 300" font-family="DejaVu Sans, sans-serif"><rect width="760" height="300" fill="#ffffff"/>
<text x="380" y="20" text-anchor="middle" font-weight="600" font-size="14">ATM-knot IV correction added to PHL1 (kernel peak Φ_BB(0,0) = 0.05875)</text>
<line x1="66" y1="254" x2="610" y2="254" stroke="#ececf0"/>
<text x="58" y="258" text-anchor="end" font-size="11" fill="#52525b">-0.05</text>
<line x1="66" y1="210" x2="610" y2="210" stroke="#a1a1aa"/>
<text x="58" y="214" text-anchor="end" font-size="11" fill="#52525b">0.00</text>
<line x1="66" y1="166" x2="610" y2="166" stroke="#ececf0"/>
<text x="58" y="170" text-anchor="end" font-size="11" fill="#52525b">0.05</text>
<line x1="66" y1="121.99999999999997" x2="610" y2="121.99999999999997" stroke="#ececf0"/>
<text x="58" y="125.99999999999997" text-anchor="end" font-size="11" fill="#52525b">0.10</text>
<line x1="66" y1="78" x2="610" y2="78" stroke="#ececf0"/>
<text x="58" y="82" text-anchor="end" font-size="11" fill="#52525b">0.15</text>
<line x1="66" y1="34" x2="610" y2="34" stroke="#ececf0"/>
<text x="58" y="38" text-anchor="end" font-size="11" fill="#52525b">0.20</text>
<line x1="145.52283220045922" y1="34" x2="145.52283220045922" y2="254" stroke="#ececf0"/>
<text x="145.52283220045922" y="270" text-anchor="middle" font-size="11" fill="#52525b">-0.05</text>
<line x1="358.92307692307696" y1="34" x2="358.92307692307696" y2="254" stroke="#ececf0"/>
<text x="358.92307692307696" y="270" text-anchor="middle" font-size="11" fill="#52525b">0.00</text>
<line x1="572.3233216456947" y1="34" x2="572.3233216456947" y2="254" stroke="#ececf0"/>
<text x="572.3233216456947" y="270" text-anchor="middle" font-size="11" fill="#52525b">0.05</text>
<line x1="66" y1="210" x2="610" y2="210" stroke="#71717a"/>
<line x1="358.92307692307696" y1="34" x2="358.92307692307696" y2="254" stroke="#ef4444" stroke-dasharray="3 3"/>
<path d="M66.00 209.26L67.36 209.25L68.72 209.24L70.08 209.22L71.44 209.21L72.80 209.20L74.16 209.18L75.52 209.17L76.88 209.15L78.24 209.14L79.60 209.12L80.96 209.11L82.32 209.09L83.68 209.08L85.04 209.06L86.40 209.04L87.76 209.02L89.12 209.01L90.48 208.99L91.84 208.97L93.20 208.95L94.56 208.93L95.92 208.91L97.28 208.89L98.64 208.87L100.00 208.85L101.36 208.83L102.72 208.81L104.08 208.79L105.44 208.76L106.80 208.74L108.16 208.72L109.52 208.69L110.88 208.67L112.24 208.64L113.60 208.61L114.96 208.59L116.32 208.56L117.68 208.53L119.04 208.50L120.40 208.48L121.76 208.45L123.12 208.42L124.48 208.38L125.84 208.35L127.20 208.32L128.56 208.29L129.92 208.25L131.28 208.22L132.64 208.18L134.00 208.15L135.36 208.11L136.72 208.07L138.08 208.03L139.44 207.99L140.80 207.95L142.16 207.91L143.52 207.87L144.88 207.82L146.24 207.78L147.60 207.73L148.96 207.69L150.32 207.64L151.68 207.59L153.04 207.54L154.40 207.49L155.76 207.43L157.12 207.38L158.48 207.32L159.84 207.27L161.20 207.21L162.56 207.15L163.92 207.09L165.28 207.03L166.64 206.96L168.00 206.90L169.36 206.83L170.72 206.76L172.08 206.69L173.44 206.62L174.80 206.54L176.16 206.47L177.52 206.39L178.88 206.31L180.24 206.23L181.60 206.14L182.96 206.06L184.32 205.97L185.68 205.88L187.04 205.78L188.40 205.69L189.76 205.59L191.12 205.49L192.48 205.39L193.84 205.28L195.20 205.17L196.56 205.06L197.92 204.94L199.28 204.83L200.64 204.71L202.00 204.58L203.36 204.45L204.72 204.32L206.08 204.19L207.44 204.05L208.80 203.91L210.16 203.76L211.52 203.61L212.88 203.46L214.24 203.30L215.60 203.14L216.96 202.97L218.32 202.80L219.68 202.63L221.04 202.44L222.40 202.26L223.76 202.07L225.12 201.87L226.48 201.67L227.84 201.46L229.20 201.25L230.56 201.03L231.92 200.80L233.28 200.57L234.64 200.33L236.00 200.08L237.36 199.83L238.72 199.57L240.08 199.30L241.44 199.02L242.80 198.74L244.16 198.45L245.52 198.14L246.88 197.83L248.24 197.52L249.60 197.19L250.96 196.85L252.32 196.50L253.68 196.14L255.04 195.77L256.40 195.39L257.76 194.99L259.12 194.59L260.48 194.17L261.84 193.74L263.20 193.30L264.56 192.84L265.92 192.37L267.28 191.88L268.64 191.38L270.00 190.86L271.36 190.33L272.72 189.78L274.08 189.21L275.44 188.63L276.80 188.03L278.16 187.40L279.52 186.76L280.88 186.10L282.24 185.41L283.60 184.70L284.96 183.98L286.32 183.22L287.68 182.44L289.04 181.64L290.40 180.81L291.76 179.95L293.12 179.07L294.48 178.15L295.84 177.21L297.20 176.23L298.56 175.22L299.92 174.18L301.28 173.10L302.64 171.98L304.00 170.83L305.36 169.64L306.72 168.41L308.08 167.13L309.44 165.81L310.80 164.45L312.16 163.04L313.52 161.58L314.88 160.07L316.24 158.50L317.60 156.88L318.96 155.21L320.32 153.47L321.68 151.68L323.04 149.82L324.40 147.89L325.76 145.89L327.12 143.83L328.48 141.69L329.84 139.47L331.20 137.17L332.56 134.79L333.92 132.32L335.28 129.76L336.64 127.10L338.00 124.35L339.36 121.50L340.72 118.54L342.08 115.47L343.44 112.29L344.80 108.98L346.16 105.56L347.52 102.00L348.88 98.31L350.24 94.48L351.60 90.50L352.96 86.37L354.32 82.08L355.68 77.63L357.04 73.01L358.40 68.20L359.76 69.33L361.12 74.09L362.48 78.67L363.84 83.09L365.20 87.34L366.56 91.43L367.92 95.37L369.28 99.17L370.64 102.83L372.00 106.36L373.36 109.76L374.72 113.03L376.08 116.19L377.44 119.23L378.80 122.17L380.16 125.00L381.52 127.72L382.88 130.36L384.24 132.89L385.60 135.34L386.96 137.71L388.32 139.99L389.68 142.19L391.04 144.31L392.40 146.36L393.76 148.34L395.12 150.25L396.48 152.10L397.84 153.88L399.20 155.60L400.56 157.26L401.92 158.87L403.28 160.42L404.64 161.92L406.00 163.37L407.36 164.77L408.72 166.12L410.08 167.43L411.44 168.69L412.80 169.92L414.16 171.10L415.52 172.24L416.88 173.35L418.24 174.42L419.60 175.46L420.96 176.46L422.32 177.43L423.68 178.37L425.04 179.27L426.40 180.15L427.76 181.00L429.12 181.83L430.48 182.63L431.84 183.40L433.20 184.15L434.56 184.87L435.92 185.57L437.28 186.25L438.64 186.91L440.00 187.55L441.36 188.17L442.72 188.77L444.08 189.35L445.44 189.91L446.80 190.46L448.16 190.99L449.52 191.50L450.88 192.00L452.24 192.48L453.60 192.95L454.96 193.40L456.32 193.84L457.68 194.27L459.04 194.68L460.40 195.09L461.76 195.48L463.12 195.85L464.48 196.22L465.84 196.58L467.20 196.93L468.56 197.26L469.92 197.59L471.28 197.91L472.64 198.22L474.00 198.51L475.36 198.81L476.72 199.09L478.08 199.36L479.44 199.63L480.80 199.89L482.16 200.14L483.52 200.38L484.88 200.62L486.24 200.85L487.60 201.08L488.96 201.30L490.32 201.51L491.68 201.72L493.04 201.92L494.40 202.11L495.76 202.30L497.12 202.49L498.48 202.67L499.84 202.84L501.20 203.01L502.56 203.18L503.92 203.34L505.28 203.50L506.64 203.65L508.00 203.80L509.36 203.94L510.72 204.08L512.08 204.22L513.44 204.35L514.80 204.48L516.16 204.61L517.52 204.73L518.88 204.85L520.24 204.97L521.60 205.08L522.96 205.20L524.32 205.30L525.68 205.41L527.04 205.51L528.40 205.61L529.76 205.71L531.12 205.80L532.48 205.90L533.84 205.99L535.20 206.08L536.56 206.16L537.92 206.25L539.28 206.33L540.64 206.41L542.00 206.48L543.36 206.56L544.72 206.63L546.08 206.71L547.44 206.78L548.80 206.85L550.16 206.91L551.52 206.98L552.88 207.04L554.24 207.10L555.60 207.16L556.96 207.22L558.32 207.28L559.68 207.34L561.04 207.39L562.40 207.45L563.76 207.50L565.12 207.55L566.48 207.60L567.84 207.65L569.20 207.70L570.56 207.74L571.92 207.79L573.28 207.83L574.64 207.88L576.00 207.92L577.36 207.96L578.72 208.00L580.08 208.04L581.44 208.08L582.80 208.12L584.16 208.16L585.52 208.19L586.88 208.23L588.24 208.26L589.60 208.30L590.96 208.33L592.32 208.36L593.68 208.39L595.04 208.42L596.40 208.45L597.76 208.48L599.12 208.51L600.48 208.54L601.84 208.57L603.20 208.59L604.56 208.62L605.92 208.65L607.28 208.67L608.64 208.70L610.00 208.72" fill="none" stroke="#059669" stroke-width="1.8"/>
<line x1="622" y1="44" x2="644" y2="44" stroke="#059669" stroke-width="1.8"/>
<text x="650" y="48" font-size="11" fill="#3f3f46">δ·σ_total³·Φ_BB^dir</text>
<text x="338" y="292" text-anchor="middle" font-size="11" fill="#52525b">log-moneyness k</text>
<text transform="translate(18 144) rotate(-90)" text-anchor="middle" font-size="11" fill="#52525b">correction (annualised %)</text>
</svg>
