<svg xmlns="http://www.w3.org/2000/svg" width="760" height="600" viewBox="0 0 760 600" font-family="DejaVu Sans, sans-serif"><rect width="760" height="600" fill="#ffffff"/>
<text x="380" y="20" text-anchor="middle" font-weight="600" font-size="14">K₁ bridge integral at ATM (x = 0) — reference: closed form 3√(2π)/128</text>
<line x1="66" y1="34" x2="610" y2="34" stroke="#a1a1aa"/>
<text x="58" y="38" text-anchor="end" font-size="11" fill="#52525b">1</text>
<line x1="66" y1="89" x2="610" y2="89" stroke="#ececf0"/>
<text x="58" y="93" text-anchor="end" font-size="11" fill="#52525b">1e-4</text>
<line x1="66" y1="144" x2="610" y2="144" stroke="#ececf0"/>
<text x="58" y="148" text-anchor="end" font-size="11" fill="#52525b">1e-8</text>
<line x1="66" y1="199" x2="610" y2="199" stroke="#ececf0"/>
<text x="58" y="203" text-anchor="end" font-size="11" fill="#52525b">1e-12</text>
<line x1="66" y1="254" x2="610" y2="254" stroke="#ececf0"/>
<text x="58" y="258" text-anchor="end" font-size="11" fill="#52525b">1e-16</text>
<line x1="66" y1="34" x2="66" y2="254" stroke="#ececf0"/>
<text x="66" y="270" text-anchor="middle" font-size="11" fill="#52525b">4</text>
<line x1="174.8" y1="34" x2="174.8" y2="254" stroke="#ececf0"/>
<text x="174.8" y="270" text-anchor="middle" font-size="11" fill="#52525b">8</text>
<line x1="283.6" y1="34" x2="283.6" y2="254" stroke="#ececf0"/>
<text x="283.6" y="270" text-anchor="middle" font-size="11" fill="#52525b">16</text>
<line x1="392.4" y1="34" x2="392.4" y2="254" stroke="#ececf0"/>
<text x="392.4" y="270" text-anchor="middle" font-size="11" fill="#52525b">32</text>
<line x1="501.20000000000005" y1="34" x2="501.20000000000005" y2="254" stroke="#ececf0"/>
<text x="501.20000000000005" y="270" text-anchor="middle" font-size="11" fill="#52525b">64</text>
<line x1="610" y1="34" x2="610" y2="254" stroke="#ececf0"/>
<text x="610" y="270" text-anchor="middle" font-size="11" fill="#52525b">128</text>
<path d="M66.00 89.41L129.64 101.27L174.80 109.59L238.44 121.34L283.60 129.71L347.24 141.57L392.40 150.03L456.04 162.00L501.20 170.52L564.84 182.55L610.00 191.10" fill="none" stroke="#dc2626" stroke-width="1.8"/>
<line x1="622" y1="44" x2="644" y2="44" stroke="#dc2626" stroke-width="1.8"/>
<text x="650" y="48" font-size="11" fill="#3f3f46">Gauss–Legendre</text>
<path d="M66.00 247.07L129.64 246.69L174.80 246.94L238.44 247.33L283.60 247.20L347.24 248.53L392.40 246.57L456.04 246.57L501.20 246.22L564.84 246.34L610.00 245.79" fill="none" stroke="#2563eb" stroke-width="1.8"/>
<line x1="622" y1="61" x2="644" y2="61" stroke="#2563eb" stroke-width="1.8"/>
<text x="650" y="65" font-size="11" fill="#3f3f46">Gauss–Jacobi(3/2)</text>
<path d="M66.00 48.25L129.64 52.96L174.80 58.12L238.44 71.75L283.60 89.29L347.24 131.55L392.40 179.15L456.04 254.00L501.20 254.00L564.84 254.00L610.00 254.00" fill="none" stroke="#0d9488" stroke-width="1.8"/>
<line x1="622" y1="78" x2="644" y2="78" stroke="#0d9488" stroke-width="1.8"/>
<text x="650" y="82" font-size="11" fill="#3f3f46">tanh–sinh</text>
<text x="338" y="292" text-anchor="middle" font-size="11" fill="#52525b">node count n  (log scale)</text>
<text transform="translate(18 144) rotate(-90)" text-anchor="middle" font-size="11" fill="#52525b">|quadrature − reference|  (log scale)</text>
<text x="380" y="320" text-anchor="middle" font-weight="600" font-size="14">K₁ bridge integral off ATM (x = 2.0) — reference: tanh–sinh n = 1025</text>
<line x1="66" y1="334" x2="610" y2="334" stroke="#a1a1aa"/>
<text x="58" y="338" text-anchor="end" font-size="11" fill="#52525b">1</text>
<line x1="66" y1="389" x2="610" y2="389" stroke="#ececf0"/>
<text x="58" y="393" text-anchor="end" font-size="11" fill="#52525b">1e-4</text>
<line x1="66" y1="444" x2="610" y2="444" stroke="#ececf0"/>
<text x="58" y="448" text-anchor="end" font-size="11" fill="#52525b">1e-8</text>
<line x1="66" y1="499" x2="610" y2="499" stroke="#ececf0"/>
<text x="58" y="503" text-anchor="end" font-size="11" fill="#52525b">1e-12</text>
<line x1="66" y1="554" x2="610" y2="554" stroke="#ececf0"/>
<text x="58" y="558" text-anchor="end" font-size="11" fill="#52525b">1e-16</text>
<line x1="66" y1="334" x2="66" y2="554" stroke="#ececf0"/>
<text x="66" y="570" text-anchor="middle" font-size="11" fill="#52525b">4</text>
<line x1="174.8" y1="334" x2="174.8" y2="554" stroke="#ececf0"/>
<text x="174.8" y="570" text-anchor="middle" font-size="11" fill="#52525b">8</text>
<line x1="283.6" y1="334" x2="283.6" y2="554" stroke="#ececf0"/>
<text x="283.6" y="570" text-anchor="middle" font-size="11" fill="#52525b">16</text>
<line x1="392.4" y1="334" x2="392.4" y2="554" stroke="#ececf0"/>
<text x="392.4" y="570" text-anchor="middle" font-size="11" fill="#52525b">32</text>
<line x1="501.20000000000005" y1="334" x2="501.20000000000005" y2="554" stroke="#ececf0"/>
<text x="501.20000000000005" y="570" text-anchor="middle" font-size="11" fill="#52525b">64</text>
<line x1="610" y1="334" x2="610" y2="554" stroke="#ececf0"/>
<text x="610" y="570" text-anchor="middle" font-size="11" fill="#52525b">128</text>
<path d="M66.00 399.17L129.64 407.51L174.80 414.77L238.44 425.94L283.60 434.11L347.24 445.83L392.40 454.24L456.04 466.17L501.20 474.67L564.84 486.70L610.00 495.25" fill="none" stroke="#dc2626" stroke-width="1.8"/>
<line x1="622" y1="344" x2="644" y2="344" stroke="#dc2626" stroke-width="1.8"/>
<text x="650" y="348" font-size="11" fill="#3f3f46">Gauss–Legendre</text>
<path d="M66.00 339.68L129.64 343.09L174.80 345.75L238.44 349.75L283.60 352.75L347.24 357.14L392.40 360.34L456.04 364.95L501.20 368.26L564.84 372.99L610.00 376.36" fill="none" stroke="#2563eb" stroke-width="1.8"/>
<line x1="622" y1="361" x2="644" y2="361" stroke="#2563eb" stroke-width="1.8"/>
<text x="650" y="365" font-size="11" fill="#3f3f46">Gauss–Jacobi(3/2)</text>
<path d="M66.00 345.35L129.64 339.32L174.80 343.03L238.44 358.85L283.60 379.15L347.24 423.30L392.40 455.70L456.04 513.49L501.20 528.54L564.84 538.54L610.00 545.10" fill="none" stroke="#0d9488" stroke-width="1.8"/>
<line x1="622" y1="378" x2="644" y2="378" stroke="#0d9488" stroke-width="1.8"/>
<text x="650" y="382" font-size="11" fill="#3f3f46">tanh–sinh</text>
<text x="338" y="592" text-anchor="middle" font-size="11" fill="#52525b">node count n  (log scale)</text>
<text transform="translate(18 444) rotate(-90)" text-anchor="middle" font-size="11" fill="#52525b">|quadrature − reference|  (log scale)</text>
</svg>
